<?xml version="1.0" encoding="utf-8"?>
<!-- Generator: Adobe Illustrator 23.1.1, SVG Export Plug-In . SVG Version: 6.00 Build 0)  -->
<svg version="1.1" id="Layer_1" xmlns="http://www.w3.org/2000/svg" xmlns:xlink="http://www.w3.org/1999/xlink" x="0px" y="0px"
	 viewBox="0 0 40.71 40.71" style="enable-background:new 0 0 40.71 40.71;" xml:space="preserve">
<style type="text/css">
	.st0{fill:none;stroke:#F27321;stroke-linejoin:round;}
	.st1{fill:none;stroke:#F27321;stroke-linecap:round;stroke-linejoin:round;}
	.st2{fill:none;stroke:#F27321;stroke-linecap:round;stroke-linejoin:round;stroke-dasharray:0.363,2.539;}
	.st3{fill:#F27321;}
</style>
<g>
	<path class="st0" d="M33.57,22.65l-1.38,0.01 M35.68,22.63l-1.38,0.01 M33.94,23.01l0.01,1.38 M33.92,20.91l0.01,1.38 M36.75,27.7
		l-6.16-3.5l1.84,6.84l1.2-1.82l1.41,1.82l1.04-0.81l-1.41-1.82L36.75,27.7z M8.96,16.32h13.4 M8.96,14.11h13.4 M26.63,26.1h-7.57
		c-0.79,0-1.42-0.64-1.42-1.43c0-0.79,0.64-1.43,1.42-1.43h7.57c0.79,0,1.42,0.64,1.42,1.43C28.05,25.46,27.41,26.1,26.63,26.1z
		 M31.67,21.25H5.3V11.4h26.37V21.25z"/>
</g>
</svg>
