<?xml version="1.0" encoding="utf-8"?>
<!-- Generator: Adobe Illustrator 23.1.1, SVG Export Plug-In . SVG Version: 6.00 Build 0)  -->
<svg version="1.1" id="Layer_1" xmlns="http://www.w3.org/2000/svg" xmlns:xlink="http://www.w3.org/1999/xlink" x="0px" y="0px"
	 viewBox="0 0 40.71 40.71" style="enable-background:new 0 0 40.71 40.71;" xml:space="preserve">
<style type="text/css">
	.st0{fill:none;stroke:#F27321;stroke-linejoin:round;}
	.st1{fill:none;stroke:#F27321;stroke-linecap:round;stroke-linejoin:round;}
	.st2{fill:none;stroke:#F27321;stroke-linecap:round;stroke-linejoin:round;stroke-dasharray:0.363,2.539;}
	.st3{fill:#F27321;}
</style>
<g>
	<g>
		<path class="st0" d="M23.27,25.79l-5.05,3.51L2.34,23.28L11,17.26 M23.25,21.9L11,17.26l1.96-12.04l15.88,6.02l-1.96,7.24
			 M30.39,31.26l4.66-5.16V15.3l-4.66,5.16V31.26z M39.28,29.78c-3.29-1.21-4.24-3.65-4.24-3.65v-10.8c0,0,1.32,2.26,4.24,3.65
			V29.78z M30.39,31.26c-3.29-2.48-7.12-2.29-7.12-2.29v-10.8c0,0,4.8-0.44,7.12,2.29V31.26z"/>
	</g>
	<line class="st1" x1="18.83" y1="25.44" x2="17.9" y2="25.09"/>
	<line class="st2" x1="14.51" y1="23.8" x2="11.45" y2="22.64"/>
	<path class="st1" d="M20.82,24.01l-0.93-0.35 M9.76,22l-0.94-0.35"/>
	<line class="st2" x1="16.49" y1="22.37" x2="13.44" y2="21.21"/>
	<line class="st1" x1="11.75" y1="20.57" x2="10.81" y2="20.21"/>
	<g>
		<polyline class="st0" points="23.27,27.42 18.22,30.93 2.34,24.91 2.34,23.28 		"/>
	</g>
</g>
</svg>
