<?xml version="1.0" encoding="utf-8"?>
<!-- Generator: Adobe Illustrator 23.1.1, SVG Export Plug-In . SVG Version: 6.00 Build 0)  -->
<svg version="1.1" id="Layer_1" xmlns="http://www.w3.org/2000/svg" xmlns:xlink="http://www.w3.org/1999/xlink" x="0px" y="0px"
	 viewBox="0 0 40.71 40.71" style="enable-background:new 0 0 40.71 40.71;" xml:space="preserve">
<style type="text/css">
	.st0{fill:none;stroke:#F27321;stroke-linejoin:round;}
	.st1{fill:none;stroke:#F27321;stroke-linecap:round;stroke-linejoin:round;}
	.st2{fill:none;stroke:#F27321;stroke-linecap:round;stroke-linejoin:round;stroke-dasharray:0.363,2.539;}
	.st3{fill:#F27321;}
</style>
<g>
	<path class="st0" d="M32.61,9.07c-1.97,0-3.56,1.6-3.56,3.56c0,0.71,0.21,1.37,0.57,1.92l-1.21,1.48l2.45-0.32
		c0.52,0.3,1.11,0.48,1.76,0.48c1.97,0,3.56-1.6,3.56-3.56C36.17,10.66,34.58,9.07,32.61,9.07z M11.14,19.12h7.06 M11.14,17.79
		h11.62 M22.76,26.74H11.14v-6h11.62V26.74z M13.64,16.06h-2.5v-2.18h2.5V16.06z M11.8,12.31V9.76h15.02v16.05h-2.3 M24.52,28.36
		H9.5V12.31h15.02V28.36z"/>
</g>
</svg>
