<?xml version="1.0" encoding="utf-8"?>
<!-- Generator: Adobe Illustrator 23.1.1, SVG Export Plug-In . SVG Version: 6.00 Build 0)  -->
<svg version="1.1" id="Layer_1" xmlns="http://www.w3.org/2000/svg" xmlns:xlink="http://www.w3.org/1999/xlink" x="0px" y="0px"
	 viewBox="0 0 40.71 40.71" style="enable-background:new 0 0 40.71 40.71;" xml:space="preserve">
<style type="text/css">
	.st0{fill:none;stroke:#F27321;stroke-linejoin:round;}
	.st1{fill:none;stroke:#F27321;stroke-linecap:round;stroke-linejoin:round;}
	.st2{fill:none;stroke:#F27321;stroke-linecap:round;stroke-linejoin:round;stroke-dasharray:0.363,2.539;}
	.st3{fill:#F27321;}
</style>
<g>
	<path class="st0" d="M16.09,9.44c1.7,1.87,1.56,4.77-0.32,6.47C13.9,17.6,11,17.46,9.3,15.59c-1.7-1.87-1.56-4.77,0.32-6.47
		C11.49,7.43,14.39,7.57,16.09,9.44z"/>
	<path class="st3" d="M21.88,19.36c0.83,0.92,0.76,2.33-0.15,3.16c-0.92,0.83-2.33,0.76-3.16-0.15c-0.83-0.92-0.76-2.33,0.16-3.16
		C19.64,18.37,21.05,18.44,21.88,19.36"/>
	<path class="st0" d="M20.09,25.45l0.1-2.83 M17.27,28.08c0.05-1.5,1.31-2.68,2.81-2.62c1.5,0.05,2.68,1.31,2.62,2.82
		c-0.05,1.5-1.31,2.68-2.82,2.62C18.4,30.84,17.22,29.58,17.27,28.08z M26.06,18.32l-3.9,1.82 M31.55,20.32
		c-2.07,0.96-4.52,0.07-5.49-1.99c-0.96-2.07-0.07-4.52,1.99-5.49c2.07-0.96,4.52-0.07,5.49,1.99C34.5,16.9,33.61,19.36,31.55,20.32
		z M15.77,15.91l3.2,3.53"/>
	<path class="st3" d="M14.94,14.37L14.94,14.37L14.94,14.37l0-1.65c0-0.81-0.17-1.43-1.12-1.43c-0.45,0-0.76,0.25-0.88,0.49h-0.01
		v-0.41h-0.89v3h0.93v-1.49c0-0.39,0.07-0.77,0.56-0.77c0.48,0,0.48,0.45,0.48,0.79v1.46H14.94z"/>
	<rect x="10.52" y="11.37" class="st3" width="0.93" height="3"/>
	<path class="st3" d="M10.99,9.88c-0.3,0-0.54,0.24-0.54,0.54s0.24,0.54,0.54,0.54c0.3,0,0.54-0.25,0.54-0.54S11.28,9.88,10.99,9.88
		"/>
	<path class="st3" d="M30.61,14.87h0.47v-0.81c-0.08-0.01-0.36-0.04-0.68-0.04c-0.67,0-1.13,0.42-1.13,1.2v0.72h-0.74v0.91h0.74
		v2.29h0.91v-2.29h0.71L31,15.94h-0.83v-0.63C30.18,15.05,30.25,14.87,30.61,14.87"/>
	<path class="st3" d="M21.63,27.48c-0.11,0.05-0.22,0.08-0.33,0.09c0.12-0.07,0.21-0.18,0.25-0.32c-0.11,0.07-0.23,0.11-0.36,0.14
		c-0.11-0.11-0.26-0.18-0.42-0.18c-0.32,0-0.58,0.26-0.58,0.58c0,0.04,0,0.09,0.01,0.13c-0.48-0.02-0.9-0.25-1.19-0.6
		c-0.05,0.09-0.08,0.18-0.08,0.29c0,0.2,0.1,0.38,0.26,0.48c-0.09,0-0.18-0.03-0.26-0.07v0.01c0,0.28,0.2,0.51,0.46,0.57
		c-0.05,0.01-0.1,0.02-0.15,0.02c-0.04,0-0.07,0-0.11-0.01c0.07,0.23,0.29,0.4,0.54,0.4c-0.2,0.15-0.44,0.25-0.72,0.25
		c-0.05,0-0.09,0-0.14-0.01c0.26,0.17,0.56,0.26,0.89,0.26c1.06,0,1.64-0.88,1.64-1.64c0-0.02,0-0.05,0-0.07
		C21.46,27.7,21.56,27.6,21.63,27.48"/>
</g>
</svg>
