<?xml version="1.0" encoding="utf-8"?>
<!-- Generator: Adobe Illustrator 23.1.1, SVG Export Plug-In . SVG Version: 6.00 Build 0)  -->
<svg version="1.1" id="Layer_1" xmlns="http://www.w3.org/2000/svg" xmlns:xlink="http://www.w3.org/1999/xlink" x="0px" y="0px"
	 viewBox="0 0 40.71 40.71" style="enable-background:new 0 0 40.71 40.71;" xml:space="preserve">
<style type="text/css">
	.st0{fill:none;stroke:#F27321;stroke-linejoin:round;}
	.st1{fill:none;stroke:#F27321;stroke-linecap:round;stroke-linejoin:round;}
	.st2{fill:none;stroke:#F27321;stroke-linecap:round;stroke-linejoin:round;stroke-dasharray:0.363,2.539;}
	.st3{fill:#F27321;}
</style>
<g>
	<path class="st0" d="M28.13,11.88c1.19,0.4,1.83,1.69,1.43,2.88 M28.73,10.08c2.18,0.73,3.36,3.1,2.63,5.28 M33.19,15.97
		c1.07-3.19-0.65-6.65-3.84-7.71 M11.39,23.43l0.93-0.46 M10.82,22.29l0.93-0.46 M10.25,21.15l0.93-0.46 M23.92,28.13l-2.7,1.35
		l-4.46-5.07l2.7-1.35L23.92,28.13z M10.26,24.29L10.26,24.29c-0.69,0.34-1.53,0.06-1.87-0.63l-0.12-0.24
		c-0.34-0.69-0.06-1.53,0.63-1.87L10.26,24.29z M12.21,25.94l2.46-0.65l-3.92-7.88l-2,1.58c-0.47,0.37-0.62,1.02-0.35,1.56
		l2.35,4.73C11.02,25.81,11.63,26.09,12.21,25.94z M15.39,15.09l-3.43,1.71l3.94,7.91l3.43-1.71c3.14-1.56,6.66-2.17,10.14-1.77
		l1.43,0.17L23.63,6.82l-0.73,1.24C21.13,11.08,18.52,13.52,15.39,15.09z"/>
</g>
</svg>
