<?xml version="1.0" encoding="utf-8"?>
<!-- Generator: Adobe Illustrator 23.1.1, SVG Export Plug-In . SVG Version: 6.00 Build 0)  -->
<svg version="1.1" id="Layer_1" xmlns="http://www.w3.org/2000/svg" xmlns:xlink="http://www.w3.org/1999/xlink" x="0px" y="0px"
	 viewBox="0 0 40.71 40.71" style="enable-background:new 0 0 40.71 40.71;" xml:space="preserve">
<style type="text/css">
	.st0{fill:none;stroke:#F27321;stroke-linejoin:round;}
	.st1{fill:none;stroke:#F27321;stroke-linecap:round;stroke-linejoin:round;}
	.st2{fill:none;stroke:#F27321;stroke-linecap:round;stroke-linejoin:round;stroke-dasharray:0.363,2.539;}
	.st3{fill:#F27321;}
</style>
<g>
	<path class="st0" d="M35.17,27.99l-7.03-4l2.11,7.81l1.37-2.08l1.61,2.08l1.19-0.92l-1.6-2.07L35.17,27.99z M15.52,13.88h5.23
		 M15.52,11.9h5.23 M26.02,8.84h0.28c0.82,0,1.48,0.66,1.48,1.48v2.2h-3.25 M26.3,17.86h-1.77 M11.75,17.86h1.88 M26.3,25.1v-7.24
		l-7.63,3.45 M11.75,17.86L26.3,25.1H11.75V17.86z M13.62,18.93V11c0-1.19,0.97-2.16,2.16-2.16h10.24c-0.82,0-1.48,0.66-1.48,1.48
		v8.44"/>
</g>
</svg>
