<?xml version="1.0" encoding="utf-8"?>
<!-- Generator: Adobe Illustrator 23.0.3, SVG Export Plug-In . SVG Version: 6.00 Build 0)  -->
<svg version="1.0" id="Layer_1" xmlns="http://www.w3.org/2000/svg" xmlns:xlink="http://www.w3.org/1999/xlink" x="0px" y="0px"
	 viewBox="0 0 330 225" style="enable-background:new 0 0 330 225;" xml:space="preserve">
<style type="text/css">
	.st0{clip-path:url(#SVGID_2_);}
	.st1{fill:#E8F0F7;}
	.st2{fill:#F37422;}
	.st3{clip-path:url(#SVGID_4_);fill:#020202;}
	.st4{opacity:0.67;clip-path:url(#SVGID_4_);fill:#0A395A;}
	.st5{fill:#FFFFFF;}
	.st6{fill:#FFFFFF;stroke:#F37422;stroke-width:3;stroke-miterlimit:10;}
	.st7{fill:#0A395A;}
	.st8{fill:none;stroke:#F37422;stroke-width:2;stroke-miterlimit:10;}
	.st9{fill:none;stroke:#FFFFFF;stroke-width:3;stroke-miterlimit:10;}
	.st10{opacity:0.25;fill:#F37422;}
	.st11{fill:none;stroke:#F37422;stroke-miterlimit:10;}
	.st12{opacity:0.52;clip-path:url(#SVGID_6_);fill:#212B66;}
	.st13{clip-path:url(#SVGID_6_);fill:#FFFFFF;}
	.st14{fill:none;stroke:#0A395A;stroke-width:2;stroke-miterlimit:10;}
	.st15{clip-path:url(#SVGID_18_);}
	.st16{clip-path:url(#SVGID_20_);}
	.st17{fill:none;stroke:#BDBDBD;stroke-miterlimit:10;}
	.st18{fill:#FF6A00;}
	.st19{fill:none;}
	.st20{fill:#003A5D;}
	.st21{fill:none;stroke:#0A395A;stroke-width:2.25;stroke-miterlimit:10;}
	.st22{fill:none;stroke:#F37422;stroke-width:2.25;stroke-miterlimit:10;}
	.st23{fill:none;stroke:#F37422;stroke-width:2.25;stroke-linejoin:round;stroke-miterlimit:10;}
	.st24{clip-path:url(#SVGID_22_);fill:#020202;}
	.st25{opacity:0.7;clip-path:url(#SVGID_22_);fill:#003A5D;}
	.st26{opacity:0.4;clip-path:url(#SVGID_22_);fill:#003A5D;}
	.st27{fill:#EF7522;}
	.st28{clip-path:url(#SVGID_24_);fill:#020202;}
	.st29{opacity:0.7;clip-path:url(#SVGID_24_);fill:#003A5D;}
	.st30{opacity:0.4;clip-path:url(#SVGID_24_);fill:#003A5D;}
	.st31{clip-path:url(#SVGID_28_);}
	.st32{clip-path:url(#SVGID_30_);fill:#D8D8D8;}
	.st33{clip-path:url(#SVGID_32_);}
	.st34{clip-path:url(#SVGID_34_);fill:#D8D8D8;}
	.st35{clip-path:url(#SVGID_36_);}
	.st36{clip-path:url(#SVGID_38_);fill:#D8D8D8;}
	.st37{clip-path:url(#SVGID_40_);}
	.st38{clip-path:url(#SVGID_42_);fill:#D8D8D8;}
	.st39{clip-path:url(#SVGID_44_);}
	.st40{clip-path:url(#SVGID_46_);fill:#D8D8D8;}
	.st41{clip-path:url(#SVGID_48_);}
	.st42{clip-path:url(#SVGID_50_);fill:#D8D8D8;}
	.st43{clip-path:url(#SVGID_52_);}
	.st44{clip-path:url(#SVGID_54_);fill:#D8D8D8;}
	.st45{clip-path:url(#SVGID_56_);}
	.st46{clip-path:url(#SVGID_58_);fill:#D8D8D8;}
	.st47{clip-path:url(#SVGID_60_);}
	.st48{clip-path:url(#SVGID_62_);fill:#D8D8D8;}
	.st49{clip-path:url(#SVGID_64_);}
	.st50{clip-path:url(#SVGID_66_);fill:#D8D8D8;}
	.st51{clip-path:url(#SVGID_68_);}
	.st52{clip-path:url(#SVGID_70_);fill:#D8D8D8;}
	.st53{clip-path:url(#SVGID_72_);}
	.st54{clip-path:url(#SVGID_74_);fill:#D8D8D8;}
	.st55{clip-path:url(#SVGID_76_);}
	.st56{clip-path:url(#SVGID_78_);fill:#D8D8D8;}
	.st57{clip-path:url(#SVGID_80_);}
	.st58{clip-path:url(#SVGID_82_);fill:#D8D8D8;}
	.st59{clip-path:url(#SVGID_84_);}
	.st60{clip-path:url(#SVGID_86_);fill:#D8D8D8;}
	.st61{clip-path:url(#SVGID_88_);}
	.st62{clip-path:url(#SVGID_90_);fill:#D8D8D8;}
	.st63{clip-path:url(#SVGID_92_);}
	.st64{clip-path:url(#SVGID_94_);fill:#D8D8D8;}
	.st65{clip-path:url(#SVGID_96_);}
	.st66{clip-path:url(#SVGID_98_);fill:#D8D8D8;}
	.st67{clip-path:url(#SVGID_100_);}
	.st68{clip-path:url(#SVGID_102_);fill:#D8D8D8;}
	.st69{clip-path:url(#SVGID_104_);}
	.st70{clip-path:url(#SVGID_106_);fill:#D8D8D8;}
	.st71{clip-path:url(#SVGID_108_);}
	.st72{clip-path:url(#SVGID_110_);fill:#D8D8D8;}
	.st73{clip-path:url(#SVGID_112_);}
	.st74{clip-path:url(#SVGID_114_);fill:#D8D8D8;}
	.st75{clip-path:url(#SVGID_116_);}
	.st76{clip-path:url(#SVGID_118_);fill:#D8D8D8;}
	.st77{clip-path:url(#SVGID_120_);}
	.st78{clip-path:url(#SVGID_122_);fill:#D8D8D8;}
	.st79{clip-path:url(#SVGID_124_);}
	.st80{clip-path:url(#SVGID_126_);fill:#D8D8D8;}
	.st81{clip-path:url(#SVGID_128_);}
	.st82{clip-path:url(#SVGID_130_);fill:#D8D8D8;}
	.st83{clip-path:url(#SVGID_132_);}
	.st84{clip-path:url(#SVGID_134_);fill:#D8D8D8;}
	.st85{clip-path:url(#SVGID_136_);}
	.st86{clip-path:url(#SVGID_138_);fill:#D8D8D8;}
	.st87{clip-path:url(#SVGID_140_);}
	.st88{clip-path:url(#SVGID_142_);fill:#D8D8D8;}
	.st89{clip-path:url(#SVGID_144_);}
	.st90{clip-path:url(#SVGID_146_);fill:#D8D8D8;}
	.st91{clip-path:url(#SVGID_148_);}
	.st92{clip-path:url(#SVGID_150_);fill:#D8D8D8;}
	.st93{clip-path:url(#SVGID_152_);}
	.st94{clip-path:url(#SVGID_154_);fill:#D8D8D8;}
	.st95{clip-path:url(#SVGID_156_);}
	.st96{clip-path:url(#SVGID_158_);fill:#D8D8D8;}
	.st97{clip-path:url(#SVGID_160_);}
	.st98{clip-path:url(#SVGID_162_);fill:#D8D8D8;}
	.st99{clip-path:url(#SVGID_164_);}
	.st100{clip-path:url(#SVGID_166_);fill:#D8D8D8;}
	.st101{clip-path:url(#SVGID_168_);}
	.st102{clip-path:url(#SVGID_170_);fill:#F37422;}
	.st103{clip-path:url(#SVGID_172_);}
	.st104{clip-path:url(#SVGID_174_);fill:#F37422;}
	.st105{clip-path:url(#SVGID_176_);}
	.st106{clip-path:url(#SVGID_178_);fill:#F37422;}
	.st107{clip-path:url(#SVGID_180_);fill:none;stroke:#D8D8D8;stroke-linecap:square;stroke-miterlimit:10;}
	.st108{clip-path:url(#SVGID_182_);}
	.st109{clip-path:url(#SVGID_184_);fill:#F37422;}
	.st110{clip-path:url(#SVGID_186_);}
	.st111{clip-path:url(#SVGID_188_);fill:#0A395A;}
	.st112{clip-path:url(#SVGID_190_);}
	.st113{clip-path:url(#SVGID_192_);fill:#FFFFFF;}
	.st114{clip-path:url(#SVGID_194_);}
	.st115{clip-path:url(#SVGID_196_);fill:#003A5D;}
	.st116{clip-path:url(#SVGID_198_);}
	.st117{clip-path:url(#SVGID_200_);fill:#003A5D;}
	.st118{clip-path:url(#SVGID_202_);}
	.st119{clip-path:url(#SVGID_204_);enable-background:new    ;}
	.st120{clip-path:url(#SVGID_206_);}
	.st121{clip-path:url(#SVGID_208_);}
	.st122{clip-path:url(#SVGID_210_);fill:#003A5D;}
	.st123{clip-path:url(#SVGID_212_);}
	.st124{clip-path:url(#SVGID_214_);fill:#003A5D;}
	.st125{clip-path:url(#SVGID_216_);}
	.st126{clip-path:url(#SVGID_218_);fill:#003A5D;}
	.st127{clip-path:url(#SVGID_220_);}
	.st128{clip-path:url(#SVGID_222_);fill:#003A5D;}
	.st129{clip-path:url(#SVGID_224_);}
	.st130{clip-path:url(#SVGID_226_);fill:#003A5D;}
	.st131{clip-path:url(#SVGID_228_);}
	.st132{clip-path:url(#SVGID_230_);fill:#003A5D;}
	.st133{clip-path:url(#SVGID_232_);}
	.st134{clip-path:url(#SVGID_234_);fill:#003A5D;}
	.st135{clip-path:url(#SVGID_236_);}
	.st136{clip-path:url(#SVGID_238_);fill:#003A5D;}
	.st137{clip-path:url(#SVGID_240_);}
	.st138{clip-path:url(#SVGID_242_);fill:#003A5D;}
	.st139{clip-path:url(#SVGID_244_);}
	.st140{clip-path:url(#SVGID_246_);fill:#003A5D;}
	.st141{clip-path:url(#SVGID_248_);}
	.st142{clip-path:url(#SVGID_250_);fill:#003A5D;}
	.st143{clip-path:url(#SVGID_252_);}
	.st144{clip-path:url(#SVGID_254_);fill:#003A5D;}
	.st145{clip-path:url(#SVGID_256_);}
	.st146{clip-path:url(#SVGID_258_);fill:#003A5D;}
	.st147{clip-path:url(#SVGID_260_);}
	.st148{clip-path:url(#SVGID_262_);fill:#003A5D;}
	.st149{clip-path:url(#SVGID_264_);}
	.st150{clip-path:url(#SVGID_266_);fill:#003A5D;}
	.st151{clip-path:url(#SVGID_268_);}
	.st152{clip-path:url(#SVGID_270_);fill:#003A5D;}
	.st153{clip-path:url(#SVGID_272_);}
	.st154{clip-path:url(#SVGID_274_);fill:#003A5D;}
	.st155{clip-path:url(#SVGID_276_);}
	.st156{clip-path:url(#SVGID_278_);fill:#003A5D;}
	.st157{clip-path:url(#SVGID_280_);}
	.st158{clip-path:url(#SVGID_282_);fill:#003A5D;}
	.st159{clip-path:url(#SVGID_284_);}
	.st160{clip-path:url(#SVGID_286_);fill:#003A5D;}
	.st161{clip-path:url(#SVGID_288_);}
	.st162{clip-path:url(#SVGID_290_);fill:#003A5D;}
	.st163{clip-path:url(#SVGID_292_);}
	.st164{clip-path:url(#SVGID_294_);fill:#FFFFFF;}
	.st165{clip-path:url(#SVGID_296_);}
	.st166{clip-path:url(#SVGID_298_);fill:#FFFFFF;}
	.st167{clip-path:url(#SVGID_300_);}
	.st168{clip-path:url(#SVGID_302_);fill:#FFFFFF;}
	.st169{clip-path:url(#SVGID_304_);}
	.st170{clip-path:url(#SVGID_306_);fill:#FFFFFF;}
	.st171{clip-path:url(#SVGID_308_);}
	.st172{clip-path:url(#SVGID_310_);fill:#FFFFFF;}
	.st173{clip-path:url(#SVGID_312_);}
	.st174{clip-path:url(#SVGID_314_);fill:#FFFFFF;}
	.st175{clip-path:url(#SVGID_316_);}
	.st176{clip-path:url(#SVGID_318_);fill:#FFFFFF;}
	.st177{clip-path:url(#SVGID_320_);}
	.st178{clip-path:url(#SVGID_322_);fill:#FFFFFF;}
	.st179{clip-path:url(#SVGID_324_);}
	.st180{clip-path:url(#SVGID_326_);fill:#FFFFFF;}
	.st181{clip-path:url(#SVGID_328_);}
	.st182{clip-path:url(#SVGID_330_);fill:#FFFFFF;}
	.st183{clip-path:url(#SVGID_332_);}
	.st184{clip-path:url(#SVGID_334_);fill:#FFFFFF;}
	.st185{clip-path:url(#SVGID_336_);}
	.st186{clip-path:url(#SVGID_338_);fill:#FFFFFF;}
	.st187{clip-path:url(#SVGID_340_);}
	.st188{clip-path:url(#SVGID_342_);fill:#FFFFFF;}
	.st189{clip-path:url(#SVGID_344_);}
	.st190{clip-path:url(#SVGID_346_);fill:#FFFFFF;}
	.st191{clip-path:url(#SVGID_348_);}
	.st192{clip-path:url(#SVGID_350_);fill:#FFFFFF;}
	.st193{clip-path:url(#SVGID_352_);}
	.st194{clip-path:url(#SVGID_354_);fill:#FFFFFF;}
	.st195{clip-path:url(#SVGID_356_);}
	.st196{clip-path:url(#SVGID_358_);fill:#FFFFFF;}
	.st197{clip-path:url(#SVGID_360_);}
	.st198{clip-path:url(#SVGID_362_);fill:#FFFFFF;}
	.st199{clip-path:url(#SVGID_364_);}
	.st200{clip-path:url(#SVGID_366_);fill:#FFFFFF;}
	.st201{clip-path:url(#SVGID_368_);}
	.st202{clip-path:url(#SVGID_370_);fill:#FFFFFF;}
	.st203{clip-path:url(#SVGID_372_);}
	.st204{clip-path:url(#SVGID_374_);fill:#FFFFFF;}
	.st205{clip-path:url(#SVGID_376_);}
	.st206{clip-path:url(#SVGID_378_);fill:#FFFFFF;}
	.st207{clip-path:url(#SVGID_382_);}
	.st208{clip-path:url(#SVGID_384_);fill:#0A395A;}
	.st209{clip-path:url(#SVGID_386_);}
	.st210{clip-path:url(#SVGID_388_);fill:#FFFFFF;}
</style>
<g>
	<g>
		<polygon class="st5" points="303.73,17.39 302.41,19.72 122.79,10.38 121.8,7.37 98.28,6.15 72.99,9.02 72.14,12.3 29.82,17.73 
			28.13,14.3 0.07,19.47 0.07,191.63 97.57,218.85 330,189.14 330,18.76 		"/>
	</g>
	<polygon class="st5" points="316.98,27.46 315.66,29.78 105.56,18.86 104.57,15.85 99,15.56 99,15.56 91.65,16.4 90.86,19.44 
		16.21,29.01 14.41,25.36 6.09,26.3 6.09,30.16 6.09,166.93 99,188.09 323.08,164.78 323.08,30.17 323.08,27.78 	"/>
	<g>
		<polygon class="st5" points="316.98,27.46 315.66,29.78 105.56,18.86 104.57,15.85 99,15.56 99,15.56 91.65,16.4 90.86,19.44 
			16.21,29.01 14.41,25.36 6.09,26.3 6.09,30.16 6.09,166.93 99,188.09 323.08,164.78 323.08,30.17 323.08,27.78 		"/>
		<path class="st2" d="M98.88,189.99l-0.3-0.07L4.21,168.43V24.63l11.29-1.28l1.8,3.64l72.06-9.24l0.79-3.06l8.79-1l7.01,0.36
			l0.99,3.01l207.66,10.8l1.32-2.32l9.04,0.47v140.47L98.88,189.99z M7.97,165.43l91.14,20.76l222.09-23.1V29.56l-3.16-0.16
			l-1.32,2.32L104.18,20.67l-0.99-3.01l-4.14-0.22l-5.91,0.67l-0.78,3.02l-77.24,9.91l-1.81-3.67l-5.34,0.61V165.43z"/>
	</g>
	<g>
		<polygon class="st7" points="99.52,180.99 12.63,161.23 12.63,37.29 99.54,26.52 99.54,28.18 14.28,38.76 14.28,159.89 
			99.52,179.31 		"/>
	</g>
	<g>
		<polygon class="st7" points="187.95,81.37 187.95,32.26 178.37,31.8 178.37,81.37 		"/>
		<polygon class="st7" points="199.31,81.37 199.31,32.8 190.45,32.38 190.45,81.37 		"/>
		<polygon class="st7" points="210.67,81.37 210.67,33.35 202.53,32.96 202.53,81.37 		"/>
		<polygon class="st7" points="222.03,81.37 222.03,33.89 214.61,33.54 214.61,81.37 		"/>
		<polygon class="st7" points="233.39,81.37 233.39,34.43 226.68,34.11 226.68,81.37 		"/>
		<polygon class="st7" points="244.75,81.37 244.75,34.98 238.76,34.69 238.76,81.37 		"/>
		<polygon class="st7" points="256.11,81.37 256.11,35.52 250.84,35.27 250.84,81.37 		"/>
		<polygon class="st7" points="267.47,81.37 267.47,36.07 262.92,35.85 262.92,81.37 		"/>
		<polygon class="st7" points="278.83,81.37 278.83,36.61 274.99,36.43 274.99,81.37 		"/>
		<polygon class="st7" points="290.19,81.37 290.19,37.15 287.07,37 287.07,81.37 		"/>
		<polygon class="st7" points="301.55,81.37 301.55,37.7 299.15,37.58 299.15,81.37 		"/>
	</g>
	<g>
		<path class="st2" d="M46.23,155.75h5.34v1.4H44.6v-2.13c0-5.24,5.37-3.55,5.37-7.32c0-1.6-0.82-2.12-2.07-2.12
			c-1.14,0-2.04,0.57-2.04,2.33h-1.4c0-2.57,1.32-3.65,3.49-3.65c2.37,0,3.59,1.23,3.59,3.37c0,4.8-5.3,3.42-5.3,7V155.75z"/>
		<path class="st2" d="M57.65,157.15l4.52-11.29h-5.49v-1.42h7.15v1.32l-4.45,11.39H57.65z"/>
		<path class="st2" d="M73.46,152.6h-4.05v-1.28h4.05V152.6z"/>
		<path class="st2" d="M81.07,155.75h5.34v1.4h-6.97v-2.13c0-5.24,5.37-3.55,5.37-7.32c0-1.6-0.82-2.12-2.07-2.12
			c-1.14,0-2.04,0.57-2.04,2.33h-1.4c0-2.57,1.32-3.65,3.49-3.65c2.37,0,3.59,1.23,3.59,3.37c0,4.8-5.3,3.42-5.3,7V155.75z"/>
		<path class="st2" d="M97.87,153.28v-1.87c-0.52,0.65-1.42,1.03-2.52,1.03c-1.97,0-3.32-1.05-3.32-3.77v-0.74
			c0-2.6,1.4-3.7,3.72-3.7c2.3,0,3.63,1,3.63,3.8v5.24c0,2.72-1.17,4.07-3.7,4.07c-2.42,0-3.45-1.3-3.45-3.3h1.48
			c0.03,1.33,0.65,1.97,1.97,1.97C97.37,156.02,97.87,154.95,97.87,153.28z M97.85,148.05c0-1.78-0.53-2.48-2.13-2.48
			c-1.4,0-2.13,0.67-2.13,2.47v0.58c0,1.75,0.7,2.52,2.13,2.52c1.2,0,2.13-0.5,2.13-2.24V148.05z"/>
		<path class="st2" d="M115.08,147.63c0-2.2,1.27-3.38,3.6-3.38c2,0,3.6,0.8,3.79,3.25h-1.57c-0.12-1.32-0.98-1.85-2.18-1.85
			c-1.38,0-2.08,0.6-2.08,1.93c0,1.28,0.63,1.82,2.27,2.29c2.2,0.62,3.67,1.55,3.67,3.85c0,2.53-1.35,3.63-3.94,3.63
			c-2.57,0-3.77-1.42-3.78-3.35h1.55c0.05,1.23,0.8,1.93,2.3,1.93c1.57,0,2.28-0.55,2.28-2.2c0-1.35-0.68-1.93-2.64-2.5
			C116.38,150.67,115.08,149.92,115.08,147.63z"/>
		<path class="st2" d="M131.58,149.93h4.35v1.4h-4.35v4.42h5.13v1.4h-6.72v-12.71h6.55v1.4h-4.97V149.93z"/>
		<path class="st2" d="M145.87,152.02v5.14h-1.58v-12.71h3.35c2.44,0,3.82,0.85,3.82,3.58v0.43c0,2.62-1.15,3.55-3.72,3.55H145.87z
			 M145.87,150.6h1.88c1.67,0,2.13-0.52,2.13-2.13v-0.42c0-1.82-0.78-2.18-2.27-2.18h-1.75V150.6z"/>
		<path class="st2" d="M160.79,157.15V145.9h-3.07v-1.45h7.74v1.45h-3.09v11.26H160.79z"/>
		<path class="st2" d="M183.85,159.2h-1.09l0.02-15.82h1.09L183.85,159.2z"/>
		<path class="st2" d="M208.81,153.7c0,2.49-1.25,3.45-4.04,3.45h-3.63v-12.71h3.25c2.48,0,3.9,0.62,3.92,3.2v0.23
			c0,1.37-0.53,2.2-1.38,2.55c1,0.37,1.88,1.27,1.88,2.95V153.7z M202.65,150.02h2c1.59,0,2.13-0.65,2.13-2.08v-0.13
			c0-1.78-0.88-2.08-2.37-2.08h-1.77V150.02z M207.22,153.5c0-1.73-0.85-2.25-2.54-2.25h-2.03v4.64h2.27c1.73,0,2.3-0.67,2.3-2.18
			V153.5z"/>
		<path class="st2" d="M221.82,153.58h-4.07l-0.97,3.57h-1.63l3.74-12.71h1.92l3.74,12.71h-1.73L221.82,153.58z M218.15,152.14h3.29
			l-1.63-6L218.15,152.14z"/>
		<path class="st2" d="M233.27,144.45l4.55,9.77v-9.77h1.57v12.71h-1.65l-4.59-9.64v9.64h-1.57v-12.71H233.27z"/>
		<path class="st2" d="M255.34,150.63v2.44c0,2.83-0.95,4.28-4.05,4.28c-3.12,0-4.1-1.52-4.1-4.47v-4.1c0-3.09,1.2-4.53,4.15-4.53
			c2.85,0,4,1.32,4.02,3.83v0.12h-1.6v-0.15c0-1.7-0.67-2.37-2.42-2.37c-1.98,0-2.57,0.95-2.57,3.1v4.1c0,2.24,0.48,3.07,2.57,3.07
			c1.93,0,2.47-0.93,2.47-2.77v-1.15h-2.53v-1.4H255.34z"/>
		<path class="st2" d="M269.62,157.15l-3.65-5.75h-1.33v5.75h-1.58v-12.71h1.58v5.54h1.32l3.3-5.54h1.83l-3.83,6.17l4.28,6.54
			H269.62z"/>
		<path class="st2" d="M286.11,148.7v4.2c0,2.95-1.07,4.45-4.09,4.45c-3.02,0-4.08-1.5-4.08-4.45v-4.2c0-2.95,1.07-4.45,4.08-4.45
			C285.04,144.25,286.11,145.75,286.11,148.7z M279.59,152.93c0,1.95,0.45,2.98,2.44,2.98c2.02,0,2.44-1.03,2.44-2.98v-4.27
			c0-1.93-0.43-2.98-2.44-2.98c-2,0-2.44,1.05-2.44,2.98V152.93z"/>
		<path class="st2" d="M300.49,157.15l-3.65-5.75h-1.33v5.75h-1.58v-12.71h1.58v5.54h1.32l3.3-5.54h1.83l-3.83,6.17l4.28,6.54
			H300.49z"/>
	</g>
	<rect x="43.78" y="135.06" class="st7" width="269.18" height="1.45"/>
	<g>
		<g>
			<path class="st2" d="M65.35,70.31v0.74c-0.08,6.59-3.27,10.18-10.43,10.18c-7.57,0-10.59-3.97-10.59-11.17v-9.73
				c0-7.28,3.07-11.25,10.59-11.25c6.99,0,10.39,3.56,10.39,10.18v0.45h-6.05v-0.57c0-3.23-1.47-4.74-4.34-4.74
				c-3.72,0-4.66,2.13-4.66,6.14v9.28c0,4.01,0.86,6.09,4.66,6.09c3.03,0,4.29-1.43,4.42-4.79v-0.82H65.35z"/>
			<path class="st2" d="M84.01,73.01h-9.12l-2,7.73h-5.77l9.08-31.17h6.79l9.08,31.17h-6.09L84.01,73.01z M76.23,67.77h6.46
				l-3.19-12.6L76.23,67.77z"/>
			<path class="st2" d="M100.99,69.08v11.66h-5.6V49.57h9.08c6.83,0,10.47,2.66,10.47,9.16v0.86c0,4.17-1.51,6.59-4.25,7.85
				l5.24,13.29h-6.34l-4.05-11.66H100.99z M100.99,63.93h3.72c3.44,0,4.46-1.1,4.46-4.42v-0.49c0-3.56-1.47-4.25-4.66-4.25h-3.52
				V63.93z"/>
			<path class="st2" d="M135.07,69.25h-5.15v-4.99h10.88v6.14c0,7.32-3.15,10.84-10.88,10.84c-7.69,0-10.88-3.84-10.88-11.08v-9.86
				c0-7.49,3.52-11.21,10.96-11.21c7.36,0,10.8,3.48,10.84,10.1v0.33h-5.77v-0.45c0-3.35-1.6-4.7-5.07-4.7
				c-3.72,0-5.15,1.76-5.15,6.01v9.73c0,4.34,1.1,5.93,5.24,5.93c3.52,0,4.99-1.64,4.99-5.19V69.25z"/>
			<path class="st2" d="M166.94,60.17v9.98c0,7.28-3.23,11.08-10.84,11.08c-7.57,0-10.8-3.8-10.8-11.08v-9.98
				c0-7.28,3.23-11.08,10.8-11.08C163.71,49.08,166.94,52.88,166.94,60.17z M151.23,70.35c0,3.89,1.23,5.77,4.87,5.77
				c3.72,0,4.91-1.88,4.91-5.77V59.96c0-3.84-1.23-5.77-4.91-5.77c-3.68,0-4.87,1.92-4.87,5.77V70.35z"/>
		</g>
	</g>
	<g>
		<g>
			<path class="st7" d="M67.18,114.46v0.82c-0.09,7.3-3.63,11.29-11.56,11.29c-8.39,0-11.74-4.4-11.74-12.38V103.4
				c0-8.07,3.4-12.47,11.74-12.47c7.75,0,11.51,3.94,11.51,11.29v0.5h-6.71v-0.63c0-3.58-1.63-5.26-4.81-5.26
				c-4.13,0-5.17,2.36-5.17,6.8v10.29c0,4.44,0.95,6.75,5.17,6.75c3.35,0,4.76-1.59,4.9-5.3v-0.91H67.18z"/>
			<path class="st7" d="M94.97,103.21v11.06c0,8.07-3.58,12.29-12.01,12.29c-8.39,0-11.97-4.22-11.97-12.29v-11.06
				c0-8.07,3.58-12.29,11.97-12.29C91.39,90.93,94.97,95.15,94.97,103.21z M77.56,114.5c0,4.31,1.36,6.39,5.39,6.39
				c4.13,0,5.44-2.09,5.44-6.39v-11.51c0-4.26-1.36-6.39-5.44-6.39c-4.08,0-5.39,2.13-5.39,6.39V114.5z"/>
			<path class="st7" d="M107.13,91.47l11.02,23.39V91.47h5.85v34.54h-6.35l-11.11-22.89v22.89h-5.89V91.47H107.13z"/>
			<path class="st7" d="M134.47,91.47l5.98,27.52l5.98-27.52h6.8l-8.84,34.54h-8.11l-8.84-34.54H134.47z"/>
			<path class="st7" d="M163.04,105.71h11.29v5.53h-11.29v9.07h13.56v5.71h-19.86V91.47h19.4v5.71h-13.1V105.71z"/>
			<path class="st7" d="M188.25,91.47l11.02,23.39V91.47h5.85v34.54h-6.35l-11.11-22.89v22.89h-5.89V91.47H188.25z"/>
			<path class="st7" d="M217.86,126.02V97h-8.16v-5.53h22.62V97h-8.16v29.01H217.86z"/>
			<path class="st7" d="M243.25,126.02h-6.3V91.47h6.3V126.02z"/>
			<path class="st7" d="M272.95,103.21v11.06c0,8.07-3.58,12.29-12.01,12.29c-8.39,0-11.97-4.22-11.97-12.29v-11.06
				c0-8.07,3.58-12.29,11.97-12.29C269.37,90.93,272.95,95.15,272.95,103.21z M255.54,114.5c0,4.31,1.36,6.39,5.39,6.39
				c4.13,0,5.44-2.09,5.44-6.39v-11.51c0-4.26-1.36-6.39-5.44-6.39c-4.08,0-5.39,2.13-5.39,6.39V114.5z"/>
			<path class="st7" d="M285.11,91.47l11.02,23.39V91.47h5.85v34.54h-6.35l-11.11-22.89v22.89h-5.89V91.47H285.11z"/>
		</g>
	</g>
</g>
<polygon class="st7" points="101.21,44.67 98.88,44.67 98.88,27.09 99.54,26.52 101.21,26.52 "/>
<polygon class="st7" points="101.21,181.4 98.88,180.85 98.88,180.43 98.88,162.1 101.21,162.1 "/>
</svg>
