<?xml version="1.0" encoding="utf-8"?>
<!-- Generator: Adobe Illustrator 23.0.3, SVG Export Plug-In . SVG Version: 6.00 Build 0)  -->
<svg version="1.0" id="Layer_1" xmlns="http://www.w3.org/2000/svg" xmlns:xlink="http://www.w3.org/1999/xlink" x="0px" y="0px"
	 viewBox="0 0 350 250" style="enable-background:new 0 0 350 250;" xml:space="preserve">
<style type="text/css">
	.st0{clip-path:url(#SVGID_2_);}
	.st1{fill:#E8F0F7;}
	.st2{fill:#F37422;}
	.st3{clip-path:url(#SVGID_4_);fill:#020202;}
	.st4{opacity:0.67;clip-path:url(#SVGID_4_);fill:#0A395A;}
	.st5{fill:#FFFFFF;}
	.st6{fill:#FFFFFF;stroke:#F37422;stroke-width:3;stroke-miterlimit:10;}
	.st7{fill:#0A395A;}
	.st8{fill:none;stroke:#F37422;stroke-width:2;stroke-miterlimit:10;}
	.st9{fill:none;stroke:#FFFFFF;stroke-width:3;stroke-miterlimit:10;}
	.st10{opacity:0.25;fill:#F37422;}
	.st11{fill:none;stroke:#F37422;stroke-miterlimit:10;}
	.st12{opacity:0.52;clip-path:url(#SVGID_6_);fill:#212B66;}
	.st13{clip-path:url(#SVGID_6_);fill:#FFFFFF;}
	.st14{fill:none;stroke:#0A395A;stroke-width:2;stroke-miterlimit:10;}
	.st15{clip-path:url(#SVGID_18_);}
	.st16{clip-path:url(#SVGID_20_);}
	.st17{fill:none;stroke:#BDBDBD;stroke-miterlimit:10;}
	.st18{fill:#FF6A00;}
	.st19{fill:none;}
	.st20{fill:#003A5D;}
	.st21{fill:none;stroke:#0A395A;stroke-width:2.25;stroke-miterlimit:10;}
	.st22{fill:none;stroke:#F37422;stroke-width:2.25;stroke-miterlimit:10;}
	.st23{fill:none;stroke:#F37422;stroke-width:2.25;stroke-linejoin:round;stroke-miterlimit:10;}
	.st24{clip-path:url(#SVGID_22_);fill:#020202;}
	.st25{opacity:0.7;clip-path:url(#SVGID_22_);fill:#003A5D;}
	.st26{opacity:0.4;clip-path:url(#SVGID_22_);fill:#003A5D;}
	.st27{fill:#EF7522;}
	.st28{clip-path:url(#SVGID_24_);fill:#020202;}
	.st29{opacity:0.7;clip-path:url(#SVGID_24_);fill:#003A5D;}
	.st30{opacity:0.4;clip-path:url(#SVGID_24_);fill:#003A5D;}
</style>
<g>
	<g>
		<polygon class="st5" points="43.42,189.09 43.42,51.54 65.83,47.42 67.18,50.16 100.99,45.82 101.67,43.2 121.87,40.9 
			140.67,41.88 141.46,44.28 284.96,51.74 286.01,49.89 320.18,51.66 320.18,185.41 121.31,210.83 		"/>
		<polygon class="st5" points="296.59,57.93 295.54,59.79 127.69,51.06 126.9,48.65 122.45,48.42 122.45,48.42 116.58,49.09 
			115.95,51.52 56.31,59.17 54.87,56.25 48.22,57.01 48.22,60.09 48.22,169.35 122.45,186.25 301.46,167.63 301.46,60.09 
			301.46,58.18 		"/>
		<g>
			<polygon class="st5" points="296.59,57.93 295.54,59.79 127.69,51.06 126.9,48.65 122.45,48.42 122.45,48.42 116.58,49.09 
				115.95,51.52 56.31,59.17 54.87,56.25 48.22,57.01 48.22,60.09 48.22,169.35 122.45,186.25 301.46,167.63 301.46,60.09 
				301.46,58.18 			"/>
			<path class="st2" d="M122.35,187.77l-0.24-0.06l-75.39-17.17V55.67l9.02-1.02l1.43,2.9l57.57-7.38l0.63-2.45l7.02-0.8l5.6,0.29
				l0.79,2.4l165.9,8.63l1.05-1.86l7.22,0.38v112.22L122.35,187.77z M49.72,168.15l72.81,16.58l177.43-18.46V59.61l-2.52-0.13
				l-1.05,1.86l-169.8-8.83l-0.79-2.4l-3.3-0.17l-4.72,0.54l-0.62,2.42l-61.71,7.91l-1.45-2.93l-4.27,0.48V168.15z"/>
		</g>
		<g>
			<polygon class="st7" points="122.86,180.58 53.45,164.8 53.45,65.78 122.88,57.18 122.88,58.5 54.77,66.96 54.77,163.73 
				122.86,179.24 			"/>
		</g>
		<g>
			<polygon class="st7" points="193.51,101 193.51,61.76 185.86,61.4 185.86,101 			"/>
			<polygon class="st7" points="202.59,101 202.59,62.2 195.51,61.86 195.51,101 			"/>
			<polygon class="st7" points="211.66,101 211.66,62.63 205.16,62.32 205.16,101 			"/>
			<polygon class="st7" points="220.74,101 220.74,63.07 214.81,62.78 214.81,101 			"/>
			<polygon class="st7" points="229.81,101 229.81,63.5 224.46,63.24 224.46,101 			"/>
			<polygon class="st7" points="238.89,101 238.89,63.93 234.1,63.71 234.1,101 			"/>
			<polygon class="st7" points="247.96,101 247.96,64.37 243.75,64.17 243.75,101 			"/>
			<polygon class="st7" points="257.04,101 257.04,64.8 253.4,64.63 253.4,101 			"/>
			<polygon class="st7" points="266.11,101 266.11,65.24 263.05,65.09 263.05,101 			"/>
			<polygon class="st7" points="275.19,101 275.19,65.67 272.7,65.55 272.7,101 			"/>
			<polygon class="st7" points="284.26,101 284.26,66.11 282.35,66.02 282.35,101 			"/>
		</g>
		<g>
			<path class="st2" d="M80.29,160.42h4.26v1.12h-5.57v-1.71c0-4.18,4.29-2.84,4.29-5.85c0-1.28-0.65-1.69-1.65-1.69
				c-0.91,0-1.63,0.45-1.63,1.86h-1.12c0-2.05,1.05-2.92,2.78-2.92c1.89,0,2.86,0.99,2.86,2.69c0,3.84-4.24,2.73-4.24,5.6V160.42z"
				/>
			<path class="st2" d="M89.41,161.54l3.61-9.02h-4.38v-1.13h5.72v1.05l-3.56,9.1H89.41z"/>
			<path class="st2" d="M102.05,157.9h-3.24v-1.03h3.24V157.9z"/>
			<path class="st2" d="M108.13,160.42h4.26v1.12h-5.57v-1.71c0-4.18,4.29-2.84,4.29-5.85c0-1.28-0.65-1.69-1.65-1.69
				c-0.91,0-1.63,0.45-1.63,1.86h-1.12c0-2.05,1.05-2.92,2.78-2.92c1.89,0,2.86,0.99,2.86,2.69c0,3.84-4.24,2.73-4.24,5.6V160.42z"
				/>
			<path class="st2" d="M121.55,158.45v-1.49c-0.41,0.52-1.13,0.83-2.01,0.83c-1.57,0-2.65-0.84-2.65-3.01v-0.59
				c0-2.08,1.12-2.96,2.97-2.96c1.84,0,2.9,0.8,2.9,3.04v4.18c0,2.17-0.93,3.25-2.96,3.25c-1.93,0-2.76-1.04-2.76-2.64h1.19
				c0.03,1.07,0.52,1.57,1.57,1.57C121.15,160.64,121.55,159.78,121.55,158.45z M121.53,154.27c0-1.42-0.43-1.98-1.71-1.98
				c-1.12,0-1.71,0.53-1.71,1.97v0.47c0,1.4,0.56,2.01,1.71,2.01c0.96,0,1.71-0.4,1.71-1.79V154.27z"/>
			<path class="st2" d="M135.29,153.93c0-1.76,1.01-2.7,2.88-2.7c1.6,0,2.88,0.64,3.02,2.6h-1.25c-0.09-1.05-0.79-1.48-1.75-1.48
				c-1.11,0-1.66,0.48-1.66,1.54c0,1.03,0.51,1.45,1.81,1.83c1.76,0.49,2.93,1.24,2.93,3.08c0,2.02-1.08,2.9-3.14,2.9
				c-2.05,0-3.01-1.13-3.02-2.68h1.24c0.04,0.99,0.64,1.55,1.84,1.55c1.25,0,1.82-0.44,1.82-1.76c0-1.08-0.55-1.55-2.11-2
				C136.33,156.36,135.29,155.76,135.29,153.93z"/>
			<path class="st2" d="M148.47,155.77h3.48v1.12h-3.48v3.53h4.1v1.12h-5.37v-10.15h5.24v1.12h-3.97V155.77z"/>
			<path class="st2" d="M159.9,157.44v4.1h-1.27v-10.15h2.68c1.95,0,3.05,0.68,3.05,2.86v0.35c0,2.09-0.92,2.84-2.97,2.84H159.9z
				 M159.9,156.31h1.51c1.33,0,1.71-0.41,1.71-1.71v-0.33c0-1.45-0.62-1.75-1.81-1.75h-1.4V156.31z"/>
			<path class="st2" d="M171.81,161.54v-8.99h-2.45v-1.16h6.18v1.16h-2.46v8.99H171.81z"/>
			<path class="st2" d="M190.24,163.18h-0.87l0.01-12.64h0.87L190.24,163.18z"/>
			<path class="st2" d="M210.17,158.78c0,1.99-1,2.76-3.22,2.76h-2.9v-10.15h2.6c1.98,0,3.12,0.49,3.13,2.56v0.19
				c0,1.09-0.43,1.76-1.11,2.04c0.8,0.29,1.51,1.01,1.51,2.36V158.78z M205.26,155.84h1.6c1.27,0,1.71-0.52,1.71-1.66v-0.11
				c0-1.42-0.71-1.66-1.89-1.66h-1.41V155.84z M208.91,158.62c0-1.39-0.68-1.8-2.03-1.8h-1.62v3.7h1.81c1.38,0,1.84-0.53,1.84-1.75
				V158.62z"/>
			<path class="st2" d="M220.57,158.69h-3.25l-0.77,2.85h-1.31l2.98-10.15h1.53l2.98,10.15h-1.39L220.57,158.69z M217.64,157.53
				h2.62l-1.31-4.8L217.64,157.53z"/>
			<path class="st2" d="M229.72,151.39l3.64,7.81v-7.81h1.25v10.15h-1.32l-3.66-7.7v7.7h-1.25v-10.15H229.72z"/>
			<path class="st2" d="M247.35,156.33v1.95c0,2.26-0.76,3.42-3.24,3.42c-2.49,0-3.28-1.21-3.28-3.57v-3.28
				c0-2.46,0.96-3.62,3.32-3.62c2.28,0,3.2,1.05,3.21,3.06v0.09h-1.28v-0.12c0-1.36-0.53-1.89-1.93-1.89
				c-1.58,0-2.05,0.76-2.05,2.48v3.28c0,1.79,0.39,2.45,2.05,2.45c1.55,0,1.97-0.75,1.97-2.21v-0.92h-2.02v-1.12H247.35z"/>
			<path class="st2" d="M258.76,161.54l-2.92-4.6h-1.07v4.6h-1.27v-10.15h1.27v4.42h1.05l2.64-4.42h1.46l-3.06,4.93l3.42,5.22
				H258.76z"/>
			<path class="st2" d="M271.93,154.79v3.36c0,2.36-0.85,3.56-3.26,3.56c-2.41,0-3.26-1.2-3.26-3.56v-3.36
				c0-2.36,0.85-3.56,3.26-3.56C271.08,151.23,271.93,152.43,271.93,154.79z M266.72,158.17c0,1.56,0.36,2.38,1.95,2.38
				c1.61,0,1.95-0.83,1.95-2.38v-3.41c0-1.55-0.35-2.38-1.95-2.38s-1.95,0.84-1.95,2.38V158.17z"/>
			<path class="st2" d="M283.42,161.54l-2.92-4.6h-1.07v4.6h-1.27v-10.15h1.27v4.42h1.05l2.64-4.42h1.46l-3.06,4.93l3.42,5.22
				H283.42z"/>
		</g>
		<rect x="78.34" y="143.89" class="st7" width="215.05" height="1.16"/>
		<g>
			<g>
				<path class="st2" d="M95.56,92.16v0.59c-0.07,5.26-2.61,8.14-8.33,8.14c-6.05,0-8.46-3.17-8.46-8.92v-7.78
					c0-5.82,2.45-8.99,8.46-8.99c5.59,0,8.3,2.84,8.3,8.14v0.36H90.7v-0.46c0-2.58-1.18-3.79-3.46-3.79c-2.97,0-3.73,1.7-3.73,4.9
					v7.42c0,3.2,0.69,4.87,3.73,4.87c2.42,0,3.43-1.14,3.53-3.82v-0.65H95.56z"/>
				<path class="st2" d="M110.47,94.32h-7.29l-1.6,6.18h-4.61l7.25-24.9h5.42l7.25,24.9h-4.87L110.47,94.32z M104.26,90.13h5.16
					l-2.55-10.06L104.26,90.13z"/>
				<path class="st2" d="M124.04,91.18v9.31h-4.48v-24.9h7.25c5.46,0,8.37,2.12,8.37,7.32v0.69c0,3.33-1.21,5.26-3.4,6.27
					l4.18,10.62h-5.06l-3.24-9.31H124.04z M124.04,87.06h2.97c2.74,0,3.56-0.88,3.56-3.53v-0.39c0-2.84-1.18-3.4-3.73-3.4h-2.81
					V87.06z"/>
				<path class="st2" d="M151.26,91.31h-4.12v-3.99h8.69v4.9c0,5.85-2.52,8.66-8.69,8.66c-6.14,0-8.69-3.07-8.69-8.86v-7.88
					c0-5.98,2.81-8.95,8.76-8.95c5.88,0,8.63,2.78,8.66,8.07v0.26h-4.61v-0.36c0-2.68-1.27-3.76-4.05-3.76
					c-2.97,0-4.12,1.41-4.12,4.8V92c0,3.46,0.88,4.74,4.18,4.74c2.81,0,3.99-1.31,3.99-4.15V91.31z"/>
				<path class="st2" d="M176.72,84.06v7.97c0,5.82-2.58,8.86-8.66,8.86c-6.05,0-8.63-3.04-8.63-8.86v-7.97
					c0-5.82,2.58-8.86,8.63-8.86C174.14,75.2,176.72,78.24,176.72,84.06z M164.17,92.19c0,3.1,0.98,4.61,3.89,4.61
					c2.97,0,3.92-1.5,3.92-4.61v-8.3c0-3.07-0.98-4.61-3.92-4.61c-2.94,0-3.89,1.54-3.89,4.61V92.19z"/>
			</g>
		</g>
		<g>
			<g>
				<path class="st7" d="M97.03,127.43v0.65c-0.07,5.83-2.9,9.02-9.24,9.02c-6.7,0-9.38-3.51-9.38-9.89v-8.62
					c0-6.45,2.72-9.96,9.38-9.96c6.19,0,9.2,3.15,9.2,9.02v0.4h-5.36v-0.51c0-2.86-1.3-4.2-3.84-4.2c-3.3,0-4.13,1.88-4.13,5.43V127
					c0,3.55,0.76,5.4,4.13,5.4c2.68,0,3.8-1.27,3.91-4.24v-0.72H97.03z"/>
				<path class="st7" d="M119.23,118.45v8.84c0,6.45-2.86,9.81-9.6,9.81c-6.7,0-9.56-3.37-9.56-9.81v-8.84
					c0-6.45,2.86-9.81,9.56-9.81C116.37,108.63,119.23,112,119.23,118.45z M105.32,127.47c0,3.44,1.09,5.11,4.31,5.11
					c3.3,0,4.35-1.67,4.35-5.11v-9.2c0-3.4-1.09-5.11-4.35-5.11s-4.31,1.7-4.31,5.11V127.47z"/>
				<path class="st7" d="M128.94,109.07l8.8,18.69v-18.69h4.67v27.6h-5.07l-8.87-18.29v18.29h-4.71v-27.6H128.94z"/>
				<path class="st7" d="M150.79,109.07l4.78,21.98l4.78-21.98h5.43l-7.06,27.6h-6.48l-7.06-27.6H150.79z"/>
				<path class="st7" d="M173.61,120.44h9.02v4.42h-9.02v7.24h10.83v4.56h-15.86v-27.6h15.5v4.56h-10.47V120.44z"/>
				<path class="st7" d="M193.75,109.07l8.8,18.69v-18.69h4.67v27.6h-5.07l-8.87-18.29v18.29h-4.71v-27.6H193.75z"/>
				<path class="st7" d="M217.41,136.67v-23.18h-6.52v-4.42h18.07v4.42h-6.52v23.18H217.41z"/>
				<path class="st7" d="M237.69,136.67h-5.03v-27.6h5.03V136.67z"/>
				<path class="st7" d="M261.42,118.45v8.84c0,6.45-2.86,9.81-9.6,9.81c-6.7,0-9.56-3.37-9.56-9.81v-8.84
					c0-6.45,2.86-9.81,9.56-9.81C258.56,108.63,261.42,112,261.42,118.45z M247.51,127.47c0,3.44,1.09,5.11,4.31,5.11
					c3.3,0,4.35-1.67,4.35-5.11v-9.2c0-3.4-1.09-5.11-4.35-5.11c-3.26,0-4.31,1.7-4.31,5.11V127.47z"/>
				<path class="st7" d="M271.13,109.07l8.8,18.69v-18.69h4.67v27.6h-5.07l-8.87-18.29v18.29h-4.71v-27.6H271.13z"/>
			</g>
		</g>
	</g>
	<rect x="122.88" y="57.18" class="st7" width="1.84" height="15.26"/>
	<rect x="122.88" y="165.32" class="st7" width="1.84" height="15.26"/>
</g>
</svg>
