<?xml version="1.0" encoding="utf-8"?>
<!-- Generator: Adobe Illustrator 23.0.3, SVG Export Plug-In . SVG Version: 6.00 Build 0)  -->
<svg version="1.0" id="Layer_1" xmlns="http://www.w3.org/2000/svg" xmlns:xlink="http://www.w3.org/1999/xlink" x="0px" y="0px"
	 viewBox="0 0 172 98" style="enable-background:new 0 0 172 98;" xml:space="preserve">
<style type="text/css">
	.st0{clip-path:url(#SVGID_2_);}
	.st1{fill:#E8F0F7;}
	.st2{fill:#F37422;}
	.st3{clip-path:url(#SVGID_4_);fill:#020202;}
	.st4{opacity:0.67;clip-path:url(#SVGID_4_);fill:#0A395A;}
	.st5{fill:#FFFFFF;}
	.st6{fill:#FFFFFF;stroke:#F37422;stroke-width:3;stroke-miterlimit:10;}
	.st7{fill:#0A395A;}
	.st8{fill:none;stroke:#F37422;stroke-width:2;stroke-miterlimit:10;}
	.st9{fill:none;stroke:#FFFFFF;stroke-width:3;stroke-miterlimit:10;}
	.st10{opacity:0.25;fill:#F37422;}
	.st11{fill:none;stroke:#F37422;stroke-miterlimit:10;}
	.st12{opacity:0.52;clip-path:url(#SVGID_6_);fill:#212B66;}
	.st13{clip-path:url(#SVGID_6_);fill:#FFFFFF;}
	.st14{fill:none;stroke:#0A395A;stroke-width:2;stroke-miterlimit:10;}
	.st15{clip-path:url(#SVGID_18_);}
	.st16{clip-path:url(#SVGID_20_);}
	.st17{fill:none;stroke:#BDBDBD;stroke-miterlimit:10;}
	.st18{fill:#FF6A00;}
	.st19{fill:none;}
	.st20{fill:#003A5D;}
	.st21{fill:none;stroke:#0A395A;stroke-width:2.25;stroke-miterlimit:10;}
	.st22{fill:none;stroke:#F37422;stroke-width:2.25;stroke-miterlimit:10;}
	.st23{fill:none;stroke:#F37422;stroke-width:2.25;stroke-linejoin:round;stroke-miterlimit:10;}
	.st24{clip-path:url(#SVGID_22_);fill:#020202;}
	.st25{opacity:0.7;clip-path:url(#SVGID_22_);fill:#003A5D;}
	.st26{opacity:0.4;clip-path:url(#SVGID_22_);fill:#003A5D;}
	.st27{fill:#EF7522;}
	.st28{clip-path:url(#SVGID_24_);fill:#020202;}
	.st29{opacity:0.7;clip-path:url(#SVGID_24_);fill:#003A5D;}
	.st30{opacity:0.4;clip-path:url(#SVGID_24_);fill:#003A5D;}
	.st31{clip-path:url(#SVGID_28_);}
	.st32{clip-path:url(#SVGID_30_);fill:#D8D8D8;}
	.st33{clip-path:url(#SVGID_32_);}
	.st34{clip-path:url(#SVGID_34_);fill:#D8D8D8;}
	.st35{clip-path:url(#SVGID_36_);}
	.st36{clip-path:url(#SVGID_38_);fill:#D8D8D8;}
	.st37{clip-path:url(#SVGID_40_);}
	.st38{clip-path:url(#SVGID_42_);fill:#D8D8D8;}
	.st39{clip-path:url(#SVGID_44_);}
	.st40{clip-path:url(#SVGID_46_);fill:#D8D8D8;}
	.st41{clip-path:url(#SVGID_48_);}
	.st42{clip-path:url(#SVGID_50_);fill:#D8D8D8;}
	.st43{clip-path:url(#SVGID_52_);}
	.st44{clip-path:url(#SVGID_54_);fill:#D8D8D8;}
	.st45{clip-path:url(#SVGID_56_);}
	.st46{clip-path:url(#SVGID_58_);fill:#D8D8D8;}
	.st47{clip-path:url(#SVGID_60_);}
	.st48{clip-path:url(#SVGID_62_);fill:#D8D8D8;}
	.st49{clip-path:url(#SVGID_64_);}
	.st50{clip-path:url(#SVGID_66_);fill:#D8D8D8;}
	.st51{clip-path:url(#SVGID_68_);}
	.st52{clip-path:url(#SVGID_70_);fill:#D8D8D8;}
	.st53{clip-path:url(#SVGID_72_);}
	.st54{clip-path:url(#SVGID_74_);fill:#D8D8D8;}
	.st55{clip-path:url(#SVGID_76_);}
	.st56{clip-path:url(#SVGID_78_);fill:#D8D8D8;}
	.st57{clip-path:url(#SVGID_80_);}
	.st58{clip-path:url(#SVGID_82_);fill:#D8D8D8;}
	.st59{clip-path:url(#SVGID_84_);}
	.st60{clip-path:url(#SVGID_86_);fill:#D8D8D8;}
	.st61{clip-path:url(#SVGID_88_);}
	.st62{clip-path:url(#SVGID_90_);fill:#D8D8D8;}
	.st63{clip-path:url(#SVGID_92_);}
	.st64{clip-path:url(#SVGID_94_);fill:#D8D8D8;}
	.st65{clip-path:url(#SVGID_96_);}
	.st66{clip-path:url(#SVGID_98_);fill:#D8D8D8;}
	.st67{clip-path:url(#SVGID_100_);}
	.st68{clip-path:url(#SVGID_102_);fill:#D8D8D8;}
	.st69{clip-path:url(#SVGID_104_);}
	.st70{clip-path:url(#SVGID_106_);fill:#D8D8D8;}
	.st71{clip-path:url(#SVGID_108_);}
	.st72{clip-path:url(#SVGID_110_);fill:#D8D8D8;}
	.st73{clip-path:url(#SVGID_112_);}
	.st74{clip-path:url(#SVGID_114_);fill:#D8D8D8;}
	.st75{clip-path:url(#SVGID_116_);}
	.st76{clip-path:url(#SVGID_118_);fill:#D8D8D8;}
	.st77{clip-path:url(#SVGID_120_);}
	.st78{clip-path:url(#SVGID_122_);fill:#D8D8D8;}
	.st79{clip-path:url(#SVGID_124_);}
	.st80{clip-path:url(#SVGID_126_);fill:#D8D8D8;}
	.st81{clip-path:url(#SVGID_128_);}
	.st82{clip-path:url(#SVGID_130_);fill:#D8D8D8;}
	.st83{clip-path:url(#SVGID_132_);}
	.st84{clip-path:url(#SVGID_134_);fill:#D8D8D8;}
	.st85{clip-path:url(#SVGID_136_);}
	.st86{clip-path:url(#SVGID_138_);fill:#D8D8D8;}
	.st87{clip-path:url(#SVGID_140_);}
	.st88{clip-path:url(#SVGID_142_);fill:#D8D8D8;}
	.st89{clip-path:url(#SVGID_144_);}
	.st90{clip-path:url(#SVGID_146_);fill:#D8D8D8;}
	.st91{clip-path:url(#SVGID_148_);}
	.st92{clip-path:url(#SVGID_150_);fill:#D8D8D8;}
	.st93{clip-path:url(#SVGID_152_);}
	.st94{clip-path:url(#SVGID_154_);fill:#D8D8D8;}
	.st95{clip-path:url(#SVGID_156_);}
	.st96{clip-path:url(#SVGID_158_);fill:#D8D8D8;}
	.st97{clip-path:url(#SVGID_160_);}
	.st98{clip-path:url(#SVGID_162_);fill:#D8D8D8;}
	.st99{clip-path:url(#SVGID_164_);}
	.st100{clip-path:url(#SVGID_166_);fill:#D8D8D8;}
	.st101{clip-path:url(#SVGID_168_);}
	.st102{clip-path:url(#SVGID_170_);fill:#F37422;}
	.st103{clip-path:url(#SVGID_172_);}
	.st104{clip-path:url(#SVGID_174_);fill:#F37422;}
	.st105{clip-path:url(#SVGID_176_);}
	.st106{clip-path:url(#SVGID_178_);fill:#F37422;}
	.st107{clip-path:url(#SVGID_180_);fill:none;stroke:#D8D8D8;stroke-linecap:square;stroke-miterlimit:10;}
	.st108{clip-path:url(#SVGID_182_);}
	.st109{clip-path:url(#SVGID_184_);fill:#F37422;}
	.st110{clip-path:url(#SVGID_186_);}
	.st111{clip-path:url(#SVGID_188_);fill:#0A395A;}
	.st112{clip-path:url(#SVGID_190_);}
	.st113{clip-path:url(#SVGID_192_);fill:#FFFFFF;}
	.st114{clip-path:url(#SVGID_194_);}
	.st115{clip-path:url(#SVGID_196_);fill:#003A5D;}
	.st116{clip-path:url(#SVGID_198_);}
	.st117{clip-path:url(#SVGID_200_);fill:#003A5D;}
	.st118{clip-path:url(#SVGID_202_);}
	.st119{clip-path:url(#SVGID_204_);enable-background:new    ;}
	.st120{clip-path:url(#SVGID_206_);}
	.st121{clip-path:url(#SVGID_208_);}
	.st122{clip-path:url(#SVGID_210_);fill:#003A5D;}
	.st123{clip-path:url(#SVGID_212_);}
	.st124{clip-path:url(#SVGID_214_);fill:#003A5D;}
	.st125{clip-path:url(#SVGID_216_);}
	.st126{clip-path:url(#SVGID_218_);fill:#003A5D;}
	.st127{clip-path:url(#SVGID_220_);}
	.st128{clip-path:url(#SVGID_222_);fill:#003A5D;}
	.st129{clip-path:url(#SVGID_224_);}
	.st130{clip-path:url(#SVGID_226_);fill:#003A5D;}
	.st131{clip-path:url(#SVGID_228_);}
	.st132{clip-path:url(#SVGID_230_);fill:#003A5D;}
	.st133{clip-path:url(#SVGID_232_);}
	.st134{clip-path:url(#SVGID_234_);fill:#003A5D;}
	.st135{clip-path:url(#SVGID_236_);}
	.st136{clip-path:url(#SVGID_238_);fill:#003A5D;}
	.st137{clip-path:url(#SVGID_240_);}
	.st138{clip-path:url(#SVGID_242_);fill:#003A5D;}
	.st139{clip-path:url(#SVGID_244_);}
	.st140{clip-path:url(#SVGID_246_);fill:#003A5D;}
	.st141{clip-path:url(#SVGID_248_);}
	.st142{clip-path:url(#SVGID_250_);fill:#003A5D;}
	.st143{clip-path:url(#SVGID_252_);}
	.st144{clip-path:url(#SVGID_254_);fill:#003A5D;}
	.st145{clip-path:url(#SVGID_256_);}
	.st146{clip-path:url(#SVGID_258_);fill:#003A5D;}
	.st147{clip-path:url(#SVGID_260_);}
	.st148{clip-path:url(#SVGID_262_);fill:#003A5D;}
	.st149{clip-path:url(#SVGID_264_);}
	.st150{clip-path:url(#SVGID_266_);fill:#003A5D;}
	.st151{clip-path:url(#SVGID_268_);}
	.st152{clip-path:url(#SVGID_270_);fill:#003A5D;}
	.st153{clip-path:url(#SVGID_272_);}
	.st154{clip-path:url(#SVGID_274_);fill:#003A5D;}
	.st155{clip-path:url(#SVGID_276_);}
	.st156{clip-path:url(#SVGID_278_);fill:#003A5D;}
	.st157{clip-path:url(#SVGID_280_);}
	.st158{clip-path:url(#SVGID_282_);fill:#003A5D;}
	.st159{clip-path:url(#SVGID_284_);}
	.st160{clip-path:url(#SVGID_286_);fill:#003A5D;}
	.st161{clip-path:url(#SVGID_288_);}
	.st162{clip-path:url(#SVGID_290_);fill:#003A5D;}
	.st163{clip-path:url(#SVGID_292_);}
	.st164{clip-path:url(#SVGID_294_);fill:#FFFFFF;}
	.st165{clip-path:url(#SVGID_296_);}
	.st166{clip-path:url(#SVGID_298_);fill:#FFFFFF;}
	.st167{clip-path:url(#SVGID_300_);}
	.st168{clip-path:url(#SVGID_302_);fill:#FFFFFF;}
	.st169{clip-path:url(#SVGID_304_);}
	.st170{clip-path:url(#SVGID_306_);fill:#FFFFFF;}
	.st171{clip-path:url(#SVGID_308_);}
	.st172{clip-path:url(#SVGID_310_);fill:#FFFFFF;}
	.st173{clip-path:url(#SVGID_312_);}
	.st174{clip-path:url(#SVGID_314_);fill:#FFFFFF;}
	.st175{clip-path:url(#SVGID_316_);}
	.st176{clip-path:url(#SVGID_318_);fill:#FFFFFF;}
	.st177{clip-path:url(#SVGID_320_);}
	.st178{clip-path:url(#SVGID_322_);fill:#FFFFFF;}
	.st179{clip-path:url(#SVGID_324_);}
	.st180{clip-path:url(#SVGID_326_);fill:#FFFFFF;}
	.st181{clip-path:url(#SVGID_328_);}
	.st182{clip-path:url(#SVGID_330_);fill:#FFFFFF;}
	.st183{clip-path:url(#SVGID_332_);}
	.st184{clip-path:url(#SVGID_334_);fill:#FFFFFF;}
	.st185{clip-path:url(#SVGID_336_);}
	.st186{clip-path:url(#SVGID_338_);fill:#FFFFFF;}
	.st187{clip-path:url(#SVGID_340_);}
	.st188{clip-path:url(#SVGID_342_);fill:#FFFFFF;}
	.st189{clip-path:url(#SVGID_344_);}
	.st190{clip-path:url(#SVGID_346_);fill:#FFFFFF;}
	.st191{clip-path:url(#SVGID_348_);}
	.st192{clip-path:url(#SVGID_350_);fill:#FFFFFF;}
	.st193{clip-path:url(#SVGID_352_);}
	.st194{clip-path:url(#SVGID_354_);fill:#FFFFFF;}
	.st195{clip-path:url(#SVGID_356_);}
	.st196{clip-path:url(#SVGID_358_);fill:#FFFFFF;}
	.st197{clip-path:url(#SVGID_360_);}
	.st198{clip-path:url(#SVGID_362_);fill:#FFFFFF;}
	.st199{clip-path:url(#SVGID_364_);}
	.st200{clip-path:url(#SVGID_366_);fill:#FFFFFF;}
	.st201{clip-path:url(#SVGID_368_);}
	.st202{clip-path:url(#SVGID_370_);fill:#FFFFFF;}
	.st203{clip-path:url(#SVGID_372_);}
	.st204{clip-path:url(#SVGID_374_);fill:#FFFFFF;}
	.st205{clip-path:url(#SVGID_376_);}
	.st206{clip-path:url(#SVGID_378_);fill:#FFFFFF;}
	.st207{clip-path:url(#SVGID_382_);}
	.st208{clip-path:url(#SVGID_384_);fill:#0A395A;}
	.st209{clip-path:url(#SVGID_386_);}
	.st210{clip-path:url(#SVGID_388_);fill:#FFFFFF;}
	.st211{fill:none;stroke:#FFFFFF;stroke-width:3;stroke-linejoin:round;stroke-miterlimit:10;}
	.st212{fill:none;stroke:#0A395A;stroke-width:3.5;stroke-miterlimit:10;}
	.st213{fill:none;stroke:#F37422;stroke-width:3.5;stroke-miterlimit:10;}
</style>
<g>
	<g>
		<g>
			<polygon class="st19" points="161.54,9.96 160.9,11.1 57.79,5.72 57.3,4.24 54.18,4.1 54.18,4.1 50.57,4.51 50.18,6.01 
				12.67,10.91 11.78,9.11 8.43,9.58 8.43,11.29 8.43,78.65 54.18,89.07 164.55,77.59 164.55,11.29 164.55,10.12 			"/>
			<path class="st5" d="M54.16,89.55l-0.08-0.02L7.95,79.03V9.16l4.1-0.57l0.89,1.8L49.8,5.58l0.39-1.5l3.94-0.45l3.52,0.16
				l0.49,1.48l102.49,5.35l0.65-1.14l3.75,0.19v68.35l-0.43,0.04L54.16,89.55z M8.9,78.27l45.31,10.32l109.86-11.43V10.57
				l-2.26-0.12l-0.65,1.14l-0.29-0.01L57.44,6.18L56.95,4.7l-2.79-0.13l-3.22,0.37l-0.38,1.49l-38.17,4.99l-0.89-1.8L8.9,9.99V78.27
				z"/>
		</g>
		<g>
			<path class="st20" d="M26.95,73.71h2.68v0.7h-3.51v-1.07c0-2.63,2.7-1.79,2.7-3.68c0-0.81-0.41-1.07-1.04-1.07
				c-0.57,0-1.02,0.29-1.02,1.17h-0.7c0-1.29,0.66-1.84,1.75-1.84c1.19,0,1.8,0.62,1.8,1.69c0,2.42-2.67,1.72-2.67,3.52V73.71z"/>
			<path class="st20" d="M32.69,74.42l2.27-5.68h-2.76v-0.71h3.6v0.66l-2.24,5.73H32.69z"/>
			<path class="st20" d="M40.65,72.13h-2.04v-0.65h2.04V72.13z"/>
			<path class="st20" d="M44.48,73.71h2.68v0.7h-3.51v-1.07c0-2.63,2.7-1.79,2.7-3.68c0-0.81-0.41-1.07-1.04-1.07
				c-0.57,0-1.02,0.29-1.02,1.17h-0.7c0-1.29,0.66-1.84,1.75-1.84c1.19,0,1.8,0.62,1.8,1.69c0,2.42-2.67,1.72-2.67,3.52V73.71z"/>
			<path class="st20" d="M52.93,72.47v-0.94c-0.26,0.33-0.71,0.52-1.27,0.52c-0.99,0-1.67-0.53-1.67-1.9v-0.37
				c0-1.31,0.7-1.86,1.87-1.86c1.16,0,1.83,0.5,1.83,1.91v2.63c0,1.37-0.59,2.05-1.86,2.05c-1.22,0-1.74-0.65-1.74-1.66h0.75
				c0.02,0.67,0.33,0.99,0.99,0.99C52.68,73.85,52.93,73.31,52.93,72.47z M52.92,69.84c0-0.9-0.27-1.25-1.07-1.25
				c-0.7,0-1.07,0.33-1.07,1.24v0.29c0,0.88,0.35,1.27,1.07,1.27c0.6,0,1.07-0.25,1.07-1.12V69.84z"/>
			<path class="st20" d="M61.58,69.63c0-1.11,0.64-1.7,1.81-1.7c1.01,0,1.81,0.4,1.9,1.64h-0.79c-0.06-0.66-0.49-0.93-1.1-0.93
				c-0.7,0-1.05,0.3-1.05,0.97c0,0.65,0.32,0.91,1.14,1.15c1.11,0.31,1.84,0.78,1.84,1.94c0,1.27-0.68,1.83-1.98,1.83
				c-1.29,0-1.9-0.71-1.9-1.69h0.78c0.03,0.62,0.4,0.97,1.16,0.97c0.79,0,1.15-0.28,1.15-1.11c0-0.68-0.34-0.97-1.33-1.26
				C62.24,71.15,61.58,70.78,61.58,69.63z"/>
			<path class="st20" d="M69.88,70.78h2.19v0.7h-2.19v2.22h2.58v0.7h-3.38v-6.39h3.3v0.7h-2.5V70.78z"/>
			<path class="st20" d="M77.08,71.83v2.58h-0.8v-6.39h1.69c1.22,0,1.92,0.43,1.92,1.8v0.22c0,1.32-0.58,1.79-1.87,1.79H77.08z
				 M77.08,71.12h0.95c0.84,0,1.07-0.26,1.07-1.07v-0.21c0-0.91-0.39-1.1-1.14-1.1h-0.88V71.12z"/>
			<path class="st20" d="M84.58,74.42v-5.66h-1.54v-0.73h3.89v0.73h-1.55v5.66H84.58z"/>
			<path class="st20" d="M96.18,75.45h-0.55l0.01-7.96h0.55L96.18,75.45z"/>
			<path class="st20" d="M108.73,72.68c0,1.25-0.63,1.74-2.03,1.74h-1.83v-6.39h1.64c1.25,0,1.96,0.31,1.97,1.61v0.12
				c0,0.69-0.27,1.11-0.7,1.28c0.5,0.18,0.95,0.64,0.95,1.48V72.68z M105.64,70.83h1.01c0.8,0,1.07-0.33,1.07-1.05v-0.07
				c0-0.9-0.44-1.05-1.19-1.05h-0.89V70.83z M107.94,72.58c0-0.87-0.43-1.13-1.28-1.13h-1.02v2.33h1.14c0.87,0,1.16-0.34,1.16-1.1
				V72.58z"/>
			<path class="st20" d="M115.28,72.62h-2.05l-0.49,1.8h-0.82l1.88-6.39h0.97l1.88,6.39h-0.87L115.28,72.62z M113.43,71.89h1.65
				l-0.82-3.02L113.43,71.89z"/>
			<path class="st20" d="M121.04,68.03l2.29,4.92v-4.92h0.79v6.39h-0.83l-2.31-4.85v4.85h-0.79v-6.39H121.04z"/>
			<path class="st20" d="M132.14,71.14v1.22c0,1.43-0.48,2.16-2.04,2.16c-1.57,0-2.06-0.76-2.06-2.25v-2.06
				c0-1.55,0.6-2.28,2.09-2.28c1.43,0,2.01,0.66,2.02,1.93v0.06h-0.81v-0.08c0-0.86-0.34-1.19-1.22-1.19c-1,0-1.29,0.48-1.29,1.56
				v2.06c0,1.12,0.24,1.54,1.29,1.54c0.97,0,1.24-0.47,1.24-1.39v-0.58h-1.27v-0.7H132.14z"/>
			<path class="st20" d="M139.33,74.42l-1.84-2.89h-0.67v2.89h-0.8v-6.39h0.8v2.78h0.66l1.66-2.78h0.92l-1.93,3.1l2.16,3.29H139.33z
				"/>
			<path class="st20" d="M147.62,70.16v2.11c0,1.48-0.54,2.24-2.06,2.24c-1.52,0-2.05-0.75-2.05-2.24v-2.11
				c0-1.48,0.54-2.24,2.05-2.24C147.08,67.92,147.62,68.68,147.62,70.16z M144.34,72.29c0,0.98,0.23,1.5,1.22,1.5
				c1.02,0,1.22-0.52,1.22-1.5v-2.15c0-0.97-0.22-1.5-1.22-1.5s-1.22,0.53-1.22,1.5V72.29z"/>
			<path class="st20" d="M154.85,74.42l-1.84-2.89h-0.67v2.89h-0.8v-6.39h0.8v2.78h0.66l1.66-2.78h0.92l-1.93,3.1l2.16,3.29H154.85z
				"/>
		</g>
		<rect x="25.72" y="63.46" class="st20" width="130.57" height="0.73"/>
		<g>
			<g>
				<path class="st20" d="M37.72,30.28v0.41c-0.05,3.67-1.82,5.67-5.81,5.67c-4.21,0-5.9-2.21-5.9-6.22v-5.42
					c0-4.05,1.71-6.26,5.9-6.26c3.89,0,5.78,1.98,5.78,5.67v0.25h-3.37v-0.32c0-1.8-0.82-2.64-2.41-2.64c-2.07,0-2.6,1.18-2.6,3.41
					v5.17c0,2.23,0.48,3.39,2.6,3.39c1.68,0,2.39-0.8,2.46-2.66v-0.46H37.72z"/>
				<path class="st20" d="M48.1,31.79h-5.08l-1.12,4.3H38.7l5.05-17.35h3.78l5.05,17.35H49.2L48.1,31.79z M43.78,28.87h3.6
					l-1.78-7.01L43.78,28.87z"/>
				<path class="st20" d="M57.56,29.6v6.49h-3.12V18.74h5.05c3.8,0,5.83,1.48,5.83,5.1v0.48c0,2.32-0.84,3.67-2.37,4.37l2.91,7.4
					h-3.53l-2.25-6.49H57.56z M57.56,26.73h2.07c1.91,0,2.48-0.61,2.48-2.46V24c0-1.98-0.82-2.37-2.6-2.37h-1.96V26.73z"/>
				<path class="st20" d="M76.52,29.69h-2.87v-2.78h6.06v3.41c0,4.08-1.75,6.03-6.06,6.03c-4.28,0-6.06-2.14-6.06-6.17v-5.49
					c0-4.17,1.96-6.24,6.1-6.24c4.1,0,6.01,1.94,6.03,5.62v0.18h-3.21v-0.25c0-1.87-0.89-2.62-2.82-2.62
					c-2.07,0-2.87,0.98-2.87,3.35v5.42c0,2.41,0.61,3.3,2.91,3.3c1.96,0,2.78-0.91,2.78-2.89V29.69z"/>
				<path class="st20" d="M94.26,24.64v5.55c0,4.05-1.8,6.17-6.03,6.17c-4.21,0-6.01-2.12-6.01-6.17v-5.55
					c0-4.05,1.8-6.17,6.01-6.17C92.46,18.47,94.26,20.59,94.26,24.64z M85.52,30.31c0,2.16,0.68,3.21,2.71,3.21
					c2.07,0,2.73-1.05,2.73-3.21v-5.78c0-2.14-0.68-3.21-2.73-3.21c-2.05,0-2.71,1.07-2.71,3.21V30.31z"/>
			</g>
		</g>
		<g>
			<polygon class="st5" points="103.85,36.3 103.85,10.68 99.5,10.44 99.5,36.3 			"/>
			<polygon class="st5" points="109,36.3 109,10.96 104.98,10.74 104.98,36.3 			"/>
			<polygon class="st5" points="114.15,36.3 114.15,11.25 110.46,11.05 110.46,36.3 			"/>
			<polygon class="st5" points="119.31,36.3 119.31,11.53 115.94,11.35 115.94,36.3 			"/>
			<polygon class="st5" points="124.46,36.3 124.46,11.82 121.42,11.65 121.42,36.3 			"/>
			<polygon class="st5" points="129.61,36.3 129.61,12.1 126.9,11.95 126.9,36.3 			"/>
			<polygon class="st5" points="134.77,36.3 134.77,12.38 132.38,12.25 132.38,36.3 			"/>
			<polygon class="st5" points="139.92,36.3 139.92,12.67 137.86,12.55 137.86,36.3 			"/>
			<polygon class="st5" points="145.08,36.3 145.08,12.95 143.34,12.85 143.34,36.3 			"/>
			<polygon class="st5" points="150.23,36.3 150.23,13.23 148.82,13.16 148.82,36.3 			"/>
			<polygon class="st5" points="155.38,36.3 155.38,13.52 154.3,13.46 154.3,36.3 			"/>
		</g>
		<g>
			<g>
				<path class="st5" d="M37.47,52.5v0.41c-0.05,3.67-1.82,5.67-5.81,5.67c-4.21,0-5.9-2.21-5.9-6.22v-5.42
					c0-4.05,1.71-6.26,5.9-6.26c3.89,0,5.78,1.98,5.78,5.67v0.25h-3.37v-0.32c0-1.8-0.82-2.64-2.41-2.64c-2.07,0-2.6,1.18-2.6,3.41
					v5.17c0,2.23,0.48,3.39,2.6,3.39c1.68,0,2.39-0.8,2.46-2.66V52.5H37.47z"/>
				<path class="st5" d="M51.43,46.85v5.55c0,4.05-1.8,6.17-6.03,6.17c-4.21,0-6.01-2.12-6.01-6.17v-5.55c0-4.05,1.8-6.17,6.01-6.17
					C49.63,40.68,51.43,42.8,51.43,46.85z M42.69,52.52c0,2.16,0.68,3.21,2.71,3.21c2.07,0,2.73-1.05,2.73-3.21v-5.78
					c0-2.14-0.68-3.21-2.73-3.21s-2.71,1.07-2.71,3.21V52.52z"/>
				<path class="st5" d="M57.53,40.95l5.53,11.75V40.95H66V58.3h-3.19l-5.58-11.5v11.5h-2.96V40.95H57.53z"/>
				<path class="st5" d="M71.27,40.95l3.01,13.82l3.01-13.82h3.41L76.25,58.3h-4.08l-4.44-17.35H71.27z"/>
				<path class="st5" d="M85.61,48.1h5.67v2.78h-5.67v4.55h6.81v2.87h-9.97V40.95h9.74v2.87h-6.58V48.1z"/>
				<path class="st5" d="M98.27,40.95l5.53,11.75V40.95h2.94V58.3h-3.19l-5.58-11.5v11.5h-2.96V40.95H98.27z"/>
				<path class="st5" d="M113.14,58.3V43.73h-4.1v-2.78h11.36v2.78h-4.1V58.3H113.14z"/>
				<path class="st5" d="M125.9,58.3h-3.16V40.95h3.16V58.3z"/>
				<path class="st5" d="M140.81,46.85v5.55c0,4.05-1.8,6.17-6.03,6.17c-4.21,0-6.01-2.12-6.01-6.17v-5.55
					c0-4.05,1.8-6.17,6.01-6.17C139.01,40.68,140.81,42.8,140.81,46.85z M132.07,52.52c0,2.16,0.68,3.21,2.71,3.21
					c2.07,0,2.73-1.05,2.73-3.21v-5.78c0-2.14-0.68-3.21-2.73-3.21c-2.05,0-2.71,1.07-2.71,3.21V52.52z"/>
				<path class="st5" d="M146.91,40.95l5.53,11.75V40.95h2.94V58.3h-3.19l-5.58-11.5v11.5h-2.96V40.95H146.91z"/>
			</g>
		</g>
	</g>
	<polygon class="st5" points="54.87,15.55 54.87,8.6 54.87,8.6 54.87,7.76 11.2,13.31 11.2,77.01 53.69,86.39 53.69,86.41 
		54.64,86.41 54.64,78.78 53.69,78.78 53.69,85.54 11.99,76.33 11.99,14.06 53.92,8.72 53.92,15.55 	"/>
</g>
</svg>
