<?xml version="1.0" encoding="utf-8"?>
<!-- Generator: Adobe Illustrator 23.0.1, SVG Export Plug-In . SVG Version: 6.00 Build 0)  -->
<svg version="1.1" id="Layer_1" xmlns="http://www.w3.org/2000/svg" xmlns:xlink="http://www.w3.org/1999/xlink" x="0px" y="0px"
	 viewBox="0 0 140 140" style="enable-background:new 0 0 140 140;" xml:space="preserve">
<style type="text/css">
	.st0{fill:#FFFFFF;}
	.st1{fill:#6A6968;}
	.st2{fill:#231F20;}
	.st3{fill:#274080;}
</style>
<g>
	<g>
		<path d="M60.81,53.74c-3.81,0-6.9,3.09-6.9,6.9c0,3.81,3.09,6.9,6.9,6.9c0.62,0,1.22-0.09,1.79-0.24v-6.67h5.11
			C67.7,56.82,64.62,53.74,60.81,53.74z"/>
		<path class="st0" d="M86.53,60.63c0,0.01,0,0.01,0,0.02h6.12v-0.02H86.53z"/>
		<g>
			<path class="st1" d="M25.51,111.69h0.83v4.36h-0.83V111.69z"/>
			<path class="st1" d="M30.64,111.69h0.81v4.36h-0.79l-2.24-3v3H27.6v-4.36h0.79l2.25,3.01V111.69z"/>
			<path class="st1" d="M32.22,111.69h3.56v0.74h-1.36v3.62h-0.84v-3.62h-1.36V111.69z"/>
			<path class="st1" d="M36.56,111.69h3.2v0.73h-2.36v1.08h2.12v0.73h-2.12v1.1h2.44v0.73h-3.27V111.69z"/>
			<path class="st1" d="M40.86,111.69h0.83v3.61h1.88v0.75h-2.72V111.69z"/>
			<path class="st1" d="M44.42,111.69h0.83v3.61h1.88v0.75h-2.72V111.69z"/>
			<path class="st1" d="M47.97,111.69h0.83v4.36h-0.83V111.69z"/>
			<path class="st1" d="M53.03,113.88h0.73v1.66c-0.23,0.17-0.5,0.31-0.81,0.41s-0.62,0.16-0.92,0.16c-0.43,0-0.82-0.1-1.17-0.3
				c-0.35-0.2-0.63-0.47-0.83-0.81c-0.2-0.34-0.31-0.72-0.31-1.14c0-0.42,0.1-0.79,0.31-1.13c0.21-0.34,0.49-0.61,0.85-0.8
				c0.36-0.2,0.76-0.3,1.19-0.3c0.31,0,0.62,0.06,0.92,0.17c0.3,0.11,0.57,0.27,0.78,0.46l-0.47,0.62
				c-0.17-0.16-0.36-0.28-0.58-0.37c-0.22-0.09-0.44-0.13-0.66-0.13c-0.27,0-0.53,0.07-0.76,0.2c-0.23,0.13-0.41,0.31-0.55,0.54
				c-0.13,0.23-0.2,0.48-0.2,0.75c0,0.27,0.07,0.53,0.2,0.75c0.14,0.23,0.32,0.41,0.54,0.54c0.23,0.13,0.48,0.2,0.76,0.2
				c0.15,0,0.31-0.02,0.47-0.07c0.16-0.05,0.32-0.12,0.47-0.2V113.88z"/>
			<path class="st1" d="M54.91,111.69h3.2v0.73h-2.36v1.08h2.12v0.73h-2.12v1.1h2.44v0.73h-3.27V111.69z"/>
			<path class="st1" d="M62.25,111.69h0.81v4.36h-0.79l-2.24-3v3h-0.82v-4.36H60l2.25,3.01V111.69z"/>
			<path class="st1" d="M63.83,111.69h3.56v0.74h-1.36v3.62h-0.84v-3.62h-1.36V111.69z"/>
			<path class="st1" d="M69.88,111.69h0.95l1.45,2.81l1.43-2.81h0.95v4.36H73.9v-3.13l-1.36,2.68H72l-1.36-2.68v3.13h-0.76V111.69z"
				/>
			<path class="st1" d="M79.15,116.05l-0.39-0.92h-2.13l-0.39,0.92h-0.87l1.91-4.36h0.87l1.89,4.36H79.15z M76.93,114.41h1.53
				l-0.76-1.83L76.93,114.41z"/>
			<path class="st1" d="M83.8,111.69h0.81v4.36h-0.79l-2.24-3v3h-0.82v-4.36h0.79l2.25,3.01V111.69z"/>
			<path class="st1" d="M89.1,116.05l-0.39-0.92h-2.13l-0.39,0.92h-0.87l1.91-4.36h0.87l1.89,4.36H89.1z M86.88,114.41h1.53
				l-0.76-1.83L86.88,114.41z"/>
			<path class="st1" d="M93.56,113.88h0.73v1.66c-0.23,0.17-0.5,0.31-0.81,0.41c-0.31,0.11-0.62,0.16-0.92,0.16
				c-0.43,0-0.82-0.1-1.17-0.3c-0.35-0.2-0.63-0.47-0.83-0.81c-0.2-0.34-0.31-0.72-0.31-1.14c0-0.42,0.1-0.79,0.31-1.13
				c0.21-0.34,0.49-0.61,0.85-0.8c0.36-0.2,0.76-0.3,1.19-0.3c0.31,0,0.62,0.06,0.92,0.17c0.3,0.11,0.57,0.27,0.78,0.46l-0.47,0.62
				c-0.17-0.16-0.36-0.28-0.58-0.37s-0.44-0.13-0.66-0.13c-0.27,0-0.53,0.07-0.76,0.2c-0.23,0.13-0.41,0.31-0.55,0.54
				c-0.13,0.23-0.2,0.48-0.2,0.75c0,0.27,0.07,0.53,0.2,0.75c0.14,0.23,0.32,0.41,0.54,0.54c0.23,0.13,0.48,0.2,0.76,0.2
				c0.15,0,0.31-0.02,0.47-0.07c0.16-0.05,0.32-0.12,0.47-0.2V113.88z"/>
			<path class="st1" d="M95.44,111.69h3.2v0.73h-2.36v1.08h2.12v0.73h-2.12v1.1h2.44v0.73h-3.27V111.69z"/>
			<path class="st1" d="M99.74,111.69h0.95l1.45,2.81l1.43-2.81h0.95v4.36h-0.77v-3.13l-1.36,2.68h-0.54l-1.36-2.68v3.13h-0.76
				V111.69z"/>
			<path class="st1" d="M105.78,111.69h3.2v0.73h-2.36v1.08h2.12v0.73h-2.12v1.1h2.44v0.73h-3.27V111.69z"/>
			<path class="st1" d="M113.13,111.69h0.81v4.36h-0.79l-2.24-3v3h-0.82v-4.36h0.79l2.25,3.01V111.69z"/>
			<path class="st1" d="M114.71,111.69h3.56v0.74h-1.36v3.62h-0.84v-3.62h-1.36V111.69z"/>
		</g>
		<g>
			<path class="st1" d="M40.65,97.22h2.22l3.37,6.55l3.34-6.55h2.22v10.17h-1.79v-7.29l-3.17,6.25H45.6l-3.18-6.25v7.29h-1.77V97.22
				z"/>
			<path class="st1" d="M62.11,97.77c0.83,0.46,1.48,1.08,1.95,1.87c0.47,0.79,0.71,1.68,0.71,2.64s-0.24,1.85-0.71,2.65
				c-0.47,0.8-1.13,1.43-1.95,1.9c-0.83,0.46-1.75,0.7-2.75,0.7c-1.01,0-1.92-0.23-2.75-0.7c-0.83-0.46-1.48-1.1-1.95-1.9
				c-0.47-0.8-0.71-1.68-0.71-2.65s0.24-1.85,0.71-2.64c0.47-0.79,1.13-1.42,1.95-1.87c0.83-0.46,1.75-0.68,2.75-0.68
				C60.36,97.09,61.28,97.31,62.11,97.77z M57.65,99.29c-0.53,0.3-0.95,0.72-1.26,1.25c-0.31,0.53-0.47,1.11-0.47,1.75
				s0.16,1.22,0.47,1.76c0.31,0.53,0.74,0.95,1.26,1.26c0.53,0.31,1.1,0.46,1.72,0.46c0.61,0,1.18-0.15,1.7-0.46
				c0.52-0.31,0.94-0.73,1.24-1.26c0.3-0.53,0.46-1.12,0.46-1.76s-0.15-1.22-0.46-1.75c-0.3-0.53-0.72-0.94-1.24-1.25
				c-0.52-0.3-1.09-0.46-1.7-0.46C58.76,98.83,58.19,98.98,57.65,99.29z"/>
			<path class="st1" d="M74.01,97.22h1.89v10.17h-1.84l-5.23-7v7h-1.9V97.22h1.84l5.24,7.02V97.22z"/>
			<path class="st1" d="M86.2,97.77c0.83,0.46,1.48,1.08,1.95,1.87c0.47,0.79,0.71,1.68,0.71,2.64s-0.24,1.85-0.71,2.65
				c-0.47,0.8-1.13,1.43-1.95,1.9c-0.83,0.46-1.75,0.7-2.75,0.7c-1.01,0-1.92-0.23-2.75-0.7c-0.83-0.46-1.48-1.1-1.95-1.9
				c-0.47-0.8-0.71-1.68-0.71-2.65s0.24-1.85,0.71-2.64c0.47-0.79,1.13-1.42,1.95-1.87c0.83-0.46,1.75-0.68,2.75-0.68
				C84.45,97.09,85.37,97.31,86.2,97.77z M81.75,99.29c-0.53,0.3-0.95,0.72-1.26,1.25c-0.31,0.53-0.47,1.11-0.47,1.75
				s0.16,1.22,0.47,1.76c0.31,0.53,0.74,0.95,1.26,1.26c0.53,0.31,1.1,0.46,1.72,0.46c0.61,0,1.18-0.15,1.7-0.46
				c0.52-0.31,0.94-0.73,1.24-1.26c0.3-0.53,0.46-1.12,0.46-1.76s-0.15-1.22-0.46-1.75c-0.3-0.53-0.72-0.94-1.24-1.25
				c-0.52-0.3-1.09-0.46-1.7-0.46C82.86,98.83,82.28,98.98,81.75,99.29z"/>
			<path class="st1" d="M96.76,99.18c-0.49-0.23-0.99-0.35-1.49-0.35c-0.63,0-1.21,0.15-1.73,0.45c-0.52,0.3-0.93,0.71-1.23,1.24
				c-0.3,0.53-0.45,1.11-0.45,1.74c0,0.63,0.15,1.21,0.45,1.74c0.3,0.53,0.71,0.94,1.23,1.25c0.52,0.3,1.1,0.46,1.73,0.46
				c0.48,0,0.97-0.11,1.46-0.32c0.49-0.21,0.92-0.51,1.3-0.89l1.15,1.28c-0.53,0.54-1.15,0.97-1.86,1.29
				c-0.71,0.31-1.42,0.47-2.15,0.47c-0.98,0-1.87-0.23-2.69-0.7c-0.81-0.46-1.45-1.1-1.92-1.9c-0.46-0.8-0.7-1.68-0.7-2.65
				s0.24-1.85,0.71-2.64c0.47-0.79,1.12-1.42,1.94-1.87c0.82-0.46,1.73-0.68,2.72-0.68c0.73,0,1.44,0.15,2.14,0.44
				c0.7,0.29,1.29,0.69,1.79,1.21l-1.13,1.42C97.67,99.73,97.25,99.41,96.76,99.18z"/>
			<path class="st1" d="M101.21,97.22h1.95v8.41h4.39v1.76h-6.33V97.22z"/>
			<path class="st1" d="M109.5,97.22h7.45v1.7h-5.5v2.51h4.94v1.7h-4.94v2.56h5.68v1.7h-7.63V97.22z"/>
		</g>
		<g>
			<path class="st2" d="M86.56,64.43h6.09v28.42H86.8L73.04,74.58v18.27h-6.13V64.43h5.85l13.8,18.35V64.43z"/>
			<path class="st2" d="M96.42,64.43h21.27v5.32h-14.86v6.17h14.86v5.32h-14.86v6.29h14.86v5.32H96.42V64.43z"/>
		</g>
		<path class="st3" d="M92.68,60.65c0-17.58-14.3-31.88-31.88-31.88c-16.29,0-29.75,12.28-31.64,28.07
			c-0.44,1.07-2.68,0.57-3.57,0.61c-0.04,0-0.07,0.01-0.1,0.01c-0.02,0-0.05,0-0.07,0c-1.75,0.08-3.1,1.56-3.02,3.31
			c0.07,1.51,1.19,2.73,2.62,2.98V90.5c-0.32,0.19-0.54,0.54-0.54,0.94c0,0.6,0.49,1.09,1.09,1.09c0.6,0,1.09-0.49,1.09-1.09
			c0-0.4-0.22-0.75-0.54-0.94v-26.7c1.11-0.08,2.86-0.47,3.06,0.8c0.01,0.08,0.03,0.15,0.04,0.23c2.05,15.61,15.43,27.7,31.59,27.7
			c0.59,0,1.19-0.02,1.79-0.06V86.3c-0.59,0.04-1.19,0.07-1.79,0.07c-14.18,0-25.72-11.54-25.72-25.72
			c0-14.18,11.54-25.72,25.72-25.72c14.17,0,25.71,11.53,25.72,25.7h6.12v0.02H92.68z M24.04,60.7c-0.04-0.84,0.62-1.56,1.46-1.6
			c0.84-0.04,1.56,0.62,1.6,1.46c0.03,0.68-0.39,1.27-0.99,1.5v-0.2c0-0.3-0.24-0.54-0.54-0.54c-0.3,0-0.54,0.24-0.54,0.54v0.21
			C24.47,61.85,24.07,61.33,24.04,60.7z"/>
	</g>
</g>
</svg>
