<?xml version="1.0" encoding="UTF-8"?>
<svg width="63px" height="47px" viewBox="0 0 63 47" version="1.1" xmlns="http://www.w3.org/2000/svg" xmlns:xlink="http://www.w3.org/1999/xlink">
    <!-- Generator: Sketch 53.2 (72643) - https://sketchapp.com -->
    <title>Group 8</title>
    <desc>Created with Sketch.</desc>
    <g id="Page-1" stroke="none" stroke-width="1" fill="none" fill-rule="evenodd">
        <g id="Home-page" transform="translate(-841.000000, -1446.000000)" stroke="#F37422" stroke-width="2.25">
            <g id="Group-8" transform="translate(842.000000, 1447.000000)">
                <polygon id="Stroke-1" points="0.125 44.4838 59.904 44.4838 59.904 7.5498 0.125 7.5498"></polygon>
                <polygon id="Stroke-3" points="45.4356 7.5497 15.9266 7.5497 19.3536 0.1247 42.3896 0.1247"></polygon>
                <path d="M54.1172,16.3075 L46.2732,16.3075 C45.8102,16.3075 45.4352,15.9325 45.4352,15.4695 L45.4352,12.7665 C45.4352,12.3035 45.8102,11.9285 46.2732,11.9285 L54.1172,11.9285 C54.5802,11.9285 54.9552,12.3035 54.9552,12.7665 L54.9552,15.4695 C54.9552,15.9325 54.5802,16.3075 54.1172,16.3075 Z" id="Stroke-4"></path>
                <path d="M10.8955,2.3115 L5.5425,2.3115 C4.5785,2.3115 3.7965,3.0925 3.7965,4.0565 L3.7965,5.8035 C3.7965,6.7685 4.5785,7.5495 5.5425,7.5495 L10.8955,7.5495 C11.8595,7.5495 12.6415,6.7685 12.6415,5.8035 L12.6415,4.0565 C12.6415,3.0925 11.8595,2.3115 10.8955,2.3115 Z" id="Stroke-5"></path>
                <path d="M37.6192,26.706 C37.6192,30.906 34.2152,34.31 30.0152,34.31 C25.8152,34.31 22.4102,30.906 22.4102,26.706 C22.4102,22.506 25.8152,19.102 30.0152,19.102 C34.2152,19.102 37.6192,22.506 37.6192,26.706 Z" id="Stroke-6"></path>
                <path d="M43.7422,26.706 C43.7422,34.287 37.5962,40.434 30.0142,40.434 C22.4332,40.434 16.2872,34.287 16.2872,26.706 C16.2872,19.125 22.4332,12.978 30.0142,12.978 C37.5962,12.978 43.7422,19.125 43.7422,26.706 Z" id="Stroke-7"></path>
            </g>
        </g>
    </g>
</svg>