<?xml version="1.0" encoding="UTF-8"?>
<svg width="61px" height="63px" viewBox="0 0 61 63" version="1.1" xmlns="http://www.w3.org/2000/svg" xmlns:xlink="http://www.w3.org/1999/xlink">
    <!-- Generator: Sketch 53.2 (72643) - https://sketchapp.com -->
    <title>Group 37</title>
    <desc>Created with Sketch.</desc>
    <g id="Page-1" stroke="none" stroke-width="1" fill="none" fill-rule="evenodd">
        <g id="regular-screen" transform="translate(-352.000000, -692.000000)">
            <g id="Group-37" transform="translate(353.000000, 693.000000)">
                <polygon id="Fill-1" fill="#0A395A" points="16.593 51.9967 41.511 51.9967 41.511 40.7017 16.593 40.7017"></polygon>
                <polygon id="Fill-2" fill="#0A395A" points="22.466 43.7157 26.669 43.7157 26.669 40.9237 22.466 40.9237"></polygon>
                <polygon id="Fill-3" fill="#0A395A" points="31.39 43.7397 35.611 43.7397 35.611 40.8977 31.39 40.8977"></polygon>
                <polygon id="Fill-4" fill="#0A395A" points="22.402 49.7437 26.606 49.7437 26.606 46.9457 22.402 46.9457"></polygon>
                <polygon id="Fill-5" fill="#0A395A" points="31.367 49.7637 35.586 49.7637 35.586 46.9207 31.367 46.9207"></polygon>
                <polygon id="Fill-6" fill="#0A395A" points="22.53 25.7357 26.733 25.7357 26.733 22.9437 22.53 22.9437"></polygon>
                <polygon id="Fill-7" fill="#0A395A" points="31.454 25.7587 35.675 25.7587 35.675 22.9167 31.454 22.9167"></polygon>
                <polygon id="Fill-8" fill="#0A395A" points="22.466 31.7627 26.67 31.7627 26.67 28.9647 22.466 28.9647"></polygon>
                <polygon id="Fill-9" fill="#0A395A" points="31.431 31.7837 35.65 31.7837 35.65 28.9407 31.431 28.9407"></polygon>
                <polygon id="Fill-10" fill="#0A395A" points="22.53 37.7857 26.733 37.7857 26.733 34.9927 22.53 34.9927"></polygon>
                <polygon id="Fill-11" fill="#0A395A" points="31.473 37.7927 35.63 37.7927 35.63 34.9327 31.473 34.9327"></polygon>
                <polygon id="Fill-12" fill="#0A395A" points="22.53 7.6927 26.733 7.6927 26.733 4.9007 22.53 4.9007"></polygon>
                <polygon id="Fill-13" fill="#0A395A" points="31.454 7.7157 35.675 7.7157 35.675 4.8737 31.454 4.8737"></polygon>
                <polygon id="Fill-14" fill="#0A395A" points="22.466 13.7197 26.67 13.7197 26.67 10.9217 22.466 10.9217"></polygon>
                <polygon id="Fill-15" fill="#0A395A" points="31.431 13.7417 35.65 13.7417 35.65 10.8987 31.431 10.8987"></polygon>
                <polygon id="Fill-16" fill="#0A395A" points="22.53 19.7427 26.733 19.7427 26.733 16.9497 22.53 16.9497"></polygon>
                <polygon id="Fill-17" fill="#0A395A" points="31.473 19.7497 35.63 19.7497 35.63 16.8897 31.473 16.8897"></polygon>
                <polygon id="Stroke-18" stroke="#0A395A" stroke-width="2.25" points="16.593 60.3967 41.511 60.3967 41.511 0.1257 16.593 0.1257"></polygon>
                <polygon id="Fill-20" fill="#0A395A" points="6.285 43.7157 10.488 43.7157 10.488 40.9237 6.285 40.9237"></polygon>
                <polygon id="Fill-21" fill="#0A395A" points="6.221 49.7437 10.425 49.7437 10.425 46.9457 6.221 46.9457"></polygon>
                <polygon id="Fill-22" fill="#0A395A" points="6.285 55.7657 10.488 55.7657 10.488 52.9727 6.285 52.9727"></polygon>
                <polygon id="Fill-23" fill="#0A395A" points="6.348 25.7357 10.551 25.7357 10.551 22.9437 6.348 22.9437"></polygon>
                <polygon id="Fill-24" fill="#0A395A" points="6.285 31.7627 10.489 31.7627 10.489 28.9647 6.285 28.9647"></polygon>
                <polygon id="Fill-25" fill="#0A395A" points="6.348 37.7857 10.551 37.7857 10.551 34.9927 6.348 34.9927"></polygon>
                <polygon id="Stroke-26" stroke="#0A395A" stroke-width="2.25" points="0.125 60.3967 16.593 60.3967 16.593 18.0387 0.125 18.0387"></polygon>
                <polygon id="Fill-28" fill="#0A395A" points="47.67 43.7157 51.873 43.7157 51.873 40.9237 47.67 40.9237"></polygon>
                <polygon id="Fill-29" fill="#0A395A" points="47.607 49.7437 51.811 49.7437 51.811 46.9457 47.607 46.9457"></polygon>
                <polygon id="Fill-30" fill="#0A395A" points="47.67 55.7657 51.873 55.7657 51.873 52.9727 47.67 52.9727"></polygon>
                <polygon id="Fill-31" fill="#0A395A" points="47.734 25.7357 51.937 25.7357 51.937 22.9437 47.734 22.9437"></polygon>
                <polygon id="Fill-32" fill="#0A395A" points="47.671 31.7627 51.875 31.7627 51.875 28.9647 47.671 28.9647"></polygon>
                <polygon id="Fill-33" fill="#0A395A" points="47.734 37.7857 51.937 37.7857 51.937 34.9927 47.734 34.9927"></polygon>
                <polygon id="Stroke-34" stroke="#0A395A" stroke-width="2.25" points="41.511 60.3967 57.979 60.3967 57.979 18.0387 41.511 18.0387"></polygon>
                <polygon id="Fill-36" fill="#0A395A" points="22.53 60.3967 35.587 60.3967 35.587 56.2047 22.53 56.2047"></polygon>
            </g>
        </g>
    </g>
</svg>