<?xml version="1.0" encoding="UTF-8"?>
<svg width="59px" height="59px" viewBox="0 0 59 59" version="1.1" xmlns="http://www.w3.org/2000/svg" xmlns:xlink="http://www.w3.org/1999/xlink">
    <!-- Generator: Sketch 53.2 (72643) - https://sketchapp.com -->
    <title>Group 15</title>
    <desc>Created with Sketch.</desc>
    <g id="Page-1" stroke="none" stroke-width="1" fill="none" fill-rule="evenodd">
        <g id="regular-screen" transform="translate(-632.000000, -694.000000)" stroke="#0A395A" stroke-width="2.25">
            <g id="Group-15" transform="translate(633.000000, 695.000000)">
                <path d="M56.3695,28.247 C56.3695,43.779 43.7785,56.37 28.2475,56.37 C12.7165,56.37 0.1255,43.779 0.1255,28.247 C0.1255,12.716 12.7165,0.125 28.2475,0.125 C43.7785,0.125 56.3695,12.716 56.3695,28.247 Z" id="Stroke-1"></path>
                <path d="M56.3695,28.247 C56.3695,43.779 43.7785,56.37 28.2475,56.37 C12.7165,56.37 0.1255,43.779 0.1255,28.247 C0.1255,12.716 12.7165,0.125 28.2475,0.125 C43.7785,0.125 56.3695,12.716 56.3695,28.247 Z" id="Stroke-3"></path>
                <path d="M42.3089,28.247 C42.3089,43.779 36.0129,56.37 28.2469,56.37 C20.4819,56.37 14.1859,43.779 14.1859,28.247 C14.1859,12.716 20.4819,0.125 28.2469,0.125 C36.0129,0.125 42.3089,12.716 42.3089,28.247 Z" id="Stroke-5"></path>
                <path d="M0.1253,28.247 L56.3693,28.247" id="Stroke-7"></path>
                <path d="M3.8324,14.1864 L52.6624,14.1864" id="Stroke-9"></path>
                <path d="M3.8324,42.3085 L52.6624,42.3085" id="Stroke-11"></path>
                <path d="M28.2474,56.37 L28.2474,0.125" id="Stroke-13"></path>
            </g>
        </g>
    </g>
</svg>