<?xml version="1.0" encoding="UTF-8"?>
<svg width="93px" height="55px" viewBox="0 0 93 55" version="1.1" xmlns="http://www.w3.org/2000/svg" xmlns:xlink="http://www.w3.org/1999/xlink">
    <!-- Generator: Sketch 53.2 (72643) - https://sketchapp.com -->
    <title>Group 13</title>
    <desc>Created with Sketch.</desc>
    <g id="Page-1" stroke="none" stroke-width="1" fill="none" fill-rule="evenodd">
        <g id="regular-screen" transform="translate(-103.000000, -696.000000)" stroke="#0A395A" stroke-width="2.25">
            <g id="Group-13" transform="translate(105.000000, 698.000000)">
                <path d="M17.8304862,35.4756381 L16.0577339,35.4756381 C7.24599083,35.4756381 0.102963303,42.616146 0.102963303,51.424781 L33.7844312,51.424781 C33.7844312,42.616146 26.6414037,35.4756381 17.8304862,35.4756381 Z" id="Stroke-1"></path>
                <path d="M26.7695505,25.7643492 C26.7695505,20.4000952 22.4198257,16.0519048 17.0536789,16.0519048 C11.6883578,16.0519048 7.33863303,20.4000952 7.33863303,25.7643492 C7.33863303,31.1277778 11.6883578,35.4759683 17.0536789,35.4759683 C22.4198257,35.4759683 26.7695505,31.1277778 26.7695505,25.7643492 Z" id="Stroke-3"></path>
                <path d="M45.5510642,27.5013968 L43.7783119,27.5013968 C36.3586789,27.5013968 30.1214312,32.5652063 28.3362936,39.4234286 C30.2180367,41.3763175 31.6481284,43.4505397 31.6481284,43.4505397 L61.5058349,43.4505397 C61.5058349,34.6419048 54.3619817,27.5013968 45.5510642,27.5013968 Z" id="Stroke-5"></path>
                <path d="M54.4901284,17.7892825 C54.4901284,12.425854 50.1404037,8.0768381 44.7742569,8.0768381 C39.4089358,8.0768381 35.059211,12.425854 35.059211,17.7892825 C35.059211,23.1535365 39.4089358,27.501727 44.7742569,27.501727 C50.1404037,27.501727 54.4901284,23.1535365 54.4901284,17.7892825 Z" id="Stroke-7"></path>
                <path d="M73.2717248,19.527073 L71.4989725,19.527073 C64.0793394,19.527073 57.8420917,24.5908825 56.0569541,31.4499302 C57.9164037,33.3731048 59.3696147,35.4753905 59.3696147,35.4753905 L89.2264954,35.4753905 C89.2264954,26.667581 82.0826422,19.527073 73.2717248,19.527073 Z" id="Stroke-9"></path>
                <path d="M82.210789,9.81495873 C82.210789,4.45153016 77.8610642,0.102514286 72.4949174,0.102514286 C67.1295963,0.102514286 62.7798716,4.45153016 62.7798716,9.81495873 C62.7798716,15.1792127 67.1295963,19.5274032 72.4949174,19.5274032 C77.8610642,19.5274032 82.210789,15.1792127 82.210789,9.81495873 Z" id="Stroke-11"></path>
            </g>
        </g>
    </g>
</svg>