<svg xmlns="http://www.w3.org/2000/svg" width="90" height="53" viewBox="0 0 90 53">
    <path fill="#0A395A" fill-rule="evenodd" d="M76.593 27.286L59.248 9.872l2.66-2.671 17.345 17.414-2.66 2.671zm-12.37 4.995L52.077 20.086c-.762-.766-1.777-1.187-2.855-1.187-1.077 0-2.092.42-2.854 1.187l-4.56 4.579c-.764.767-1.78 1.19-2.862 1.19-1.08 0-2.096-.423-2.861-1.19-1.578-1.585-1.578-4.163 0-5.747l8.048-8.08H57.49L71.535 24.94l-7.312 7.34zm.238 6.079l-.04.039c-.413.415-.963.643-1.548.643-.529 0-1.028-.189-1.425-.532-.037-.04-.074-.081-.114-.12l-5.952-5.977c-.376-.377-.986-.377-1.362 0l-.004.005-.004.003c-.376.378-.376.99 0 1.367l5.952 5.977c.039.04.079.077.119.113.74.862.704 2.168-.11 2.986l-.04.04c-.412.414-.962.643-1.546.643-.585 0-1.134-.229-1.548-.644l-5.953-5.976c-.376-.378-.986-.378-1.361 0-.376.378-.376.99 0 1.367l5.953 5.977c.853.856.853 2.251 0 3.107l-.04.039c-.413.415-.963.644-1.547.644-.585 0-1.134-.23-1.547-.644l-1.481-1.486c-.115-.13-.238-.254-.368-.37l-4.105-4.12c-.376-.378-.985-.378-1.36 0-.377.377-.377.988 0 1.366l4.412 4.43c.359.418.562.953.562 1.513 0 1.278-1.035 2.318-2.308 2.318-.791 0-1.529-.41-1.951-1.078.12-.393.185-.809.185-1.24 0-2.088-1.507-3.827-3.486-4.183.964-1.59.764-3.696-.604-5.07l-.038-.039c-.778-.78-1.81-1.21-2.909-1.21-.122 0-.242.007-.362.017.102-1.174-.293-2.384-1.187-3.281l-.039-.04c-.776-.78-1.81-1.209-2.908-1.209-.117 0-.234.006-.35.015.01-.116.016-.233.016-.35 0-1.104-.428-2.141-1.205-2.922l-.038-.038c-.778-.78-1.81-1.21-2.91-1.21-1.099 0-2.132.43-2.909 1.21l-1.81 1.817-7.196-7.226L32.13 10.838h9.28l-6.687 6.714c-2.328 2.338-2.328 6.142 0 8.48 2.329 2.336 6.117 2.336 8.444 0l4.561-4.58c.823-.826 2.163-.826 2.986 0l12.827 12.879.919.921c.853.856.853 2.251 0 3.108zM41.696 51.068c-1.274 0-2.31-1.04-2.31-2.318 0-.578.213-1.106.563-1.512l.24-.242c.405-.35.931-.565 1.507-.565 1.272 0 2.309 1.04 2.309 2.32 0 1.277-1.037 2.317-2.31 2.317zM35.5 48.061c-.585 0-1.135-.23-1.548-.644l-.038-.038c-.854-.857-.854-2.252 0-3.108l3.43-3.446c.414-.415.964-.643 1.55-.643.584 0 1.133.228 1.546.644l.039.039c.853.856.853 2.25 0 3.107l-1.605 1.61c-.116.106-.228.218-.333.336l-1.493 1.499c-.414.415-.963.644-1.548.644zm-6.044-5.158l-.039-.039c-.412-.415-.64-.966-.64-1.553 0-.532.188-1.033.529-1.431.041-.037.081-.075.12-.115l3.432-3.445.115-.121c.396-.343.895-.532 1.424-.532.585 0 1.134.23 1.548.645l.038.037c.854.857.854 2.253 0 3.11l-3.431 3.444c-.413.415-.963.644-1.548.644-.584 0-1.134-.229-1.548-.644zm-2.939-3.86c-.584 0-1.134-.23-1.547-.644l-.039-.04c-.853-.856-.853-2.25 0-3.107l3.432-3.446c.412-.415.963-.643 1.547-.643.585 0 1.135.228 1.548.644l.039.039c.413.415.641.967.641 1.554 0 .53-.188 1.031-.53 1.43l-.12.114-3.432 3.446c-.04.04-.076.08-.114.12-.397.343-.896.532-1.425.532zM13.253 27.265l-2.573-2.583L28.005 7.289l2.572 2.583-17.324 17.394zm76.516-4.316l-3.36-3.373c-.035-.192-.126-.372-.266-.513L67.438.284C67.258.102 67.012 0 66.757 0c-.255 0-.5.102-.68.284l-8.588 8.62H32.131l-3.166-3.178c-.036-.12-.098-.234-.193-.328L23.801.406c-.148-.149-.35-.232-.559-.232-.208 0-.41.083-.558.232L.232 22.95c-.148.148-.232.35-.232.56 0 .21.084.412.232.561l4.97 4.99c.155.156.357.232.559.232.201 0 .404-.076.558-.232l3.104-3.116 3.202 3.215c.173.174.401.262.628.262.228 0 .456-.088.63-.262l2.854-2.866 7.196 7.226-.363.365c-1.604 1.61-1.604 4.23 0 5.842l.04.038c.776.78 1.81 1.21 2.907 1.21.118 0 .235-.006.35-.016-.01.117-.015.234-.015.352 0 1.102.428 2.14 1.204 2.92l.04.039c.776.78 1.81 1.21 2.908 1.21.121 0 .242-.006.362-.017-.103 1.175.293 2.385 1.187 3.282l.038.04c.777.78 1.81 1.209 2.91 1.209.719 0 1.411-.186 2.021-.533.338 2.006 2.08 3.539 4.174 3.539 1.17 0 2.23-.48 2.999-1.252.785.79 1.862 1.252 3 1.252 2.093 0 3.835-1.533 4.174-3.54.61.348 1.3.534 2.022.534 1.099 0 2.131-.43 2.909-1.21l.038-.039c.894-.897 1.288-2.107 1.187-3.282.12.01.24.016.362.016 1.098 0 2.132-.429 2.908-1.21l.04-.038c.89-.894 1.285-2.1 1.186-3.272.117.01.234.016.352.016 1.1 0 2.132-.43 2.91-1.21l.038-.038c1.604-1.611 1.604-4.232 0-5.842l-.236-.238 7.31-7.34 3.018 3.028c.187.19.434.284.68.284.247 0 .493-.095.68-.284l3.341-3.353 3.067 3.08c.149.148.35.231.559.231.209 0 .41-.083.559-.232l4.97-4.99c.308-.31.308-.81 0-1.12z"/>
</svg>
