<svg xmlns="http://www.w3.org/2000/svg" width="93" height="55" viewBox="0 0 93 55">
    <g fill="none" fill-rule="evenodd" stroke="#0A395A" stroke-width="2.25">
        <path d="M17.83 35.476h-1.772c-8.812 0-15.955 7.14-15.955 15.949h33.681c0-8.809-7.143-15.95-15.954-15.95z" transform="translate(2 2)"/>
        <path d="M26.77 25.764c0-5.364-4.35-9.712-9.716-9.712S7.339 20.4 7.339 25.764s4.35 9.712 9.715 9.712c5.366 0 9.716-4.348 9.716-9.712zM45.551 27.501h-1.773c-7.42 0-13.657 5.064-15.442 11.922 1.882 1.953 3.312 4.028 3.312 4.028h29.858c0-8.81-7.144-15.95-15.955-15.95z" transform="translate(2 2)"/>
        <path d="M54.49 17.79c0-5.364-4.35-9.713-9.716-9.713-5.365 0-9.715 4.349-9.715 9.712 0 5.365 4.35 9.713 9.715 9.713 5.366 0 9.716-4.348 9.716-9.713zM73.272 19.527h-1.773c-7.42 0-13.657 5.064-15.442 11.923 1.86 1.923 3.313 4.025 3.313 4.025h29.856c0-8.807-7.143-15.948-15.954-15.948zM82.21 9.815c0-5.363-4.349-9.712-9.715-9.712-5.365 0-9.715 4.349-9.715 9.712 0 5.364 4.35 9.712 9.715 9.712 5.366 0 9.716-4.348 9.716-9.712z" transform="translate(2 2)"/>
    </g>
</svg>
