<svg xmlns="http://www.w3.org/2000/svg" width="61" height="63" viewBox="0 0 61 63">
    <g fill="none" fill-rule="evenodd">
        <path fill="#0A395A" d="M16.593 51.997L41.511 51.997 41.511 40.702 16.593 40.702z" transform="translate(1 1)"/>
        <path fill="#0A395A" d="M22.466 43.716L26.669 43.716 26.669 40.924 22.466 40.924zM31.39 43.74L35.611 43.74 35.611 40.898 31.39 40.898zM22.402 49.744L26.606 49.744 26.606 46.946 22.402 46.946zM31.367 49.764L35.586 49.764 35.586 46.921 31.367 46.921zM22.53 25.736L26.733 25.736 26.733 22.944 22.53 22.944zM31.454 25.759L35.675 25.759 35.675 22.917 31.454 22.917zM22.466 31.763L26.67 31.763 26.67 28.965 22.466 28.965zM31.431 31.784L35.65 31.784 35.65 28.941 31.431 28.941zM22.53 37.786L26.733 37.786 26.733 34.993 22.53 34.993zM31.473 37.793L35.63 37.793 35.63 34.933 31.473 34.933zM22.53 7.693L26.733 7.693 26.733 4.901 22.53 4.901zM31.454 7.716L35.675 7.716 35.675 4.874 31.454 4.874zM22.466 13.72L26.67 13.72 26.67 10.922 22.466 10.922zM31.431 13.742L35.65 13.742 35.65 10.899 31.431 10.899zM22.53 19.743L26.733 19.743 26.733 16.95 22.53 16.95zM31.473 19.75L35.63 19.75 35.63 16.89 31.473 16.89z" transform="translate(1 1)"/>
        <path stroke="#0A395A" stroke-width="2.25" d="M16.593 60.397L41.511 60.397 41.511 0.126 16.593 0.126z" transform="translate(1 1)"/>
        <path fill="#0A395A" d="M6.285 43.716L10.488 43.716 10.488 40.924 6.285 40.924zM6.221 49.744L10.425 49.744 10.425 46.946 6.221 46.946zM6.285 55.766L10.488 55.766 10.488 52.973 6.285 52.973zM6.348 25.736L10.551 25.736 10.551 22.944 6.348 22.944zM6.285 31.763L10.489 31.763 10.489 28.965 6.285 28.965zM6.348 37.786L10.551 37.786 10.551 34.993 6.348 34.993z" transform="translate(1 1)"/>
        <path stroke="#0A395A" stroke-width="2.25" d="M0.125 60.397L16.593 60.397 16.593 18.039 0.125 18.039z" transform="translate(1 1)"/>
        <path fill="#0A395A" d="M47.67 43.716L51.873 43.716 51.873 40.924 47.67 40.924zM47.607 49.744L51.811 49.744 51.811 46.946 47.607 46.946zM47.67 55.766L51.873 55.766 51.873 52.973 47.67 52.973zM47.734 25.736L51.937 25.736 51.937 22.944 47.734 22.944zM47.671 31.763L51.875 31.763 51.875 28.965 47.671 28.965zM47.734 37.786L51.937 37.786 51.937 34.993 47.734 34.993z" transform="translate(1 1)"/>
        <path stroke="#0A395A" stroke-width="2.25" d="M41.511 60.397L57.979 60.397 57.979 18.039 41.511 18.039z" transform="translate(1 1)"/>
        <path fill="#0A395A" d="M22.53 60.397L35.587 60.397 35.587 56.205 22.53 56.205z" transform="translate(1 1)"/>
    </g>
</svg>
