<svg xmlns="http://www.w3.org/2000/svg" width="59" height="59" viewBox="0 0 59 59">
    <g fill="none" fill-rule="evenodd" stroke="#0A395A" stroke-width="2.25">
        <path d="M56.37 28.247c0 15.532-12.591 28.123-28.122 28.123C12.715 56.37.124 43.779.124 28.247.125 12.716 12.716.125 28.247.125 43.78.125 56.37 12.716 56.37 28.247z" transform="translate(1 1)"/>
        <path d="M56.37 28.247c0 15.532-12.591 28.123-28.122 28.123C12.715 56.37.124 43.779.124 28.247.125 12.716 12.716.125 28.247.125 43.78.125 56.37 12.716 56.37 28.247z" transform="translate(1 1)"/>
        <path d="M42.309 28.247c0 15.532-6.296 28.123-14.062 28.123-7.765 0-14.061-12.591-14.061-28.123 0-15.531 6.296-28.122 14.06-28.122 7.767 0 14.063 12.591 14.063 28.122zM.125 28.247H56.37M3.832 14.186h48.83M3.832 42.309h48.83M28.247 56.37V.125" transform="translate(1 1)"/>
    </g>
</svg>
