<?xml version="1.0" encoding="UTF-8"?>
<svg width="44px" height="59px" viewBox="0 0 44 59" version="1.1" xmlns="http://www.w3.org/2000/svg" xmlns:xlink="http://www.w3.org/1999/xlink">
    <!-- Generator: Sketch 53.2 (72643) - https://sketchapp.com -->
    <title>Group 5</title>
    <desc>Created with Sketch.</desc>
    <g id="Page-1" stroke="none" stroke-width="1" fill="none" fill-rule="evenodd">
        <g id="Home-page" transform="translate(-646.000000, -1441.000000)" stroke="#F37422" stroke-width="2.25">
            <g id="Group-5" transform="translate(647.000000, 1442.000000)">
                <path d="M29.0496,20.9118 C29.0496,25.4058 25.4056,29.0498 20.9116,29.0498 C16.4176,29.0498 12.7756,25.4058 12.7756,20.9118 C12.7756,16.4188 16.4176,12.7748 20.9116,12.7748 C25.4056,12.7748 29.0496,16.4188 29.0496,20.9118 Z" id="Stroke-1"></path>
                <path d="M3.6756,32.5348 C1.4336,29.2168 0.1246,25.2178 0.1246,20.9118 C0.1246,9.4308 9.4316,0.1248 20.9116,0.1248 C32.3926,0.1248 41.6986,9.4308 41.6986,20.9118 C41.6986,25.2178 40.3906,29.2168 38.1496,32.5348 L20.9116,55.4398 L3.6756,32.5348 Z" id="Stroke-3"></path>
            </g>
        </g>
    </g>
</svg>