<?xml version="1.0" encoding="utf-8"?>
<!-- Generator: Adobe Illustrator 23.0.3, SVG Export Plug-In . SVG Version: 6.00 Build 0)  -->
<svg version="1.0" id="Layer_1" xmlns="http://www.w3.org/2000/svg" xmlns:xlink="http://www.w3.org/1999/xlink" x="0px" y="0px"
	 viewBox="0 0 100 100" style="enable-background:new 0 0 100 100;" xml:space="preserve">
<style type="text/css">
	.st0{clip-path:url(#SVGID_2_);}
	.st1{fill:#E8F0F7;}
	.st2{fill:#F37422;}
	.st3{clip-path:url(#SVGID_4_);fill:#020202;}
	.st4{opacity:0.67;clip-path:url(#SVGID_4_);fill:#0A395A;}
	.st5{fill:#FFFFFF;}
	.st6{fill:#FFFFFF;stroke:#F37422;stroke-width:3;stroke-miterlimit:10;}
	.st7{fill:#0A395A;}
	.st8{fill:none;stroke:#F37422;stroke-width:2;stroke-miterlimit:10;}
	.st9{fill:none;stroke:#FFFFFF;stroke-width:3;stroke-miterlimit:10;}
	.st10{opacity:0.25;fill:#F37422;}
	.st11{fill:none;stroke:#F37422;stroke-miterlimit:10;}
	.st12{opacity:0.52;clip-path:url(#SVGID_6_);fill:#212B66;}
	.st13{clip-path:url(#SVGID_6_);fill:#FFFFFF;}
	.st14{fill:none;stroke:#0A395A;stroke-width:2;stroke-miterlimit:10;}
	.st15{clip-path:url(#SVGID_18_);}
	.st16{clip-path:url(#SVGID_20_);}
	.st17{fill:none;stroke:#BDBDBD;stroke-miterlimit:10;}
	.st18{fill:#FF6A00;}
	.st19{fill:none;}
	.st20{fill:#003A5D;}
	.st21{fill:none;stroke:#0A395A;stroke-width:2.25;stroke-miterlimit:10;}
	.st22{fill:none;stroke:#F37422;stroke-width:2.25;stroke-miterlimit:10;}
	.st23{fill:none;stroke:#F37422;stroke-width:2.25;stroke-linejoin:round;stroke-miterlimit:10;}
	.st24{clip-path:url(#SVGID_22_);fill:#020202;}
	.st25{opacity:0.7;clip-path:url(#SVGID_22_);fill:#003A5D;}
	.st26{opacity:0.4;clip-path:url(#SVGID_22_);fill:#003A5D;}
	.st27{fill:#EF7522;}
	.st28{clip-path:url(#SVGID_24_);fill:#020202;}
	.st29{opacity:0.7;clip-path:url(#SVGID_24_);fill:#003A5D;}
	.st30{opacity:0.4;clip-path:url(#SVGID_24_);fill:#003A5D;}
	.st31{clip-path:url(#SVGID_28_);}
	.st32{clip-path:url(#SVGID_30_);fill:#D8D8D8;}
	.st33{clip-path:url(#SVGID_32_);}
	.st34{clip-path:url(#SVGID_34_);fill:#D8D8D8;}
	.st35{clip-path:url(#SVGID_36_);}
	.st36{clip-path:url(#SVGID_38_);fill:#D8D8D8;}
	.st37{clip-path:url(#SVGID_40_);}
	.st38{clip-path:url(#SVGID_42_);fill:#D8D8D8;}
	.st39{clip-path:url(#SVGID_44_);}
	.st40{clip-path:url(#SVGID_46_);fill:#D8D8D8;}
	.st41{clip-path:url(#SVGID_48_);}
	.st42{clip-path:url(#SVGID_50_);fill:#D8D8D8;}
	.st43{clip-path:url(#SVGID_52_);}
	.st44{clip-path:url(#SVGID_54_);fill:#D8D8D8;}
	.st45{clip-path:url(#SVGID_56_);}
	.st46{clip-path:url(#SVGID_58_);fill:#D8D8D8;}
	.st47{clip-path:url(#SVGID_60_);}
	.st48{clip-path:url(#SVGID_62_);fill:#D8D8D8;}
	.st49{clip-path:url(#SVGID_64_);}
	.st50{clip-path:url(#SVGID_66_);fill:#D8D8D8;}
	.st51{clip-path:url(#SVGID_68_);}
	.st52{clip-path:url(#SVGID_70_);fill:#D8D8D8;}
	.st53{clip-path:url(#SVGID_72_);}
	.st54{clip-path:url(#SVGID_74_);fill:#D8D8D8;}
	.st55{clip-path:url(#SVGID_76_);}
	.st56{clip-path:url(#SVGID_78_);fill:#D8D8D8;}
	.st57{clip-path:url(#SVGID_80_);}
	.st58{clip-path:url(#SVGID_82_);fill:#D8D8D8;}
	.st59{clip-path:url(#SVGID_84_);}
	.st60{clip-path:url(#SVGID_86_);fill:#D8D8D8;}
	.st61{clip-path:url(#SVGID_88_);}
	.st62{clip-path:url(#SVGID_90_);fill:#D8D8D8;}
	.st63{clip-path:url(#SVGID_92_);}
	.st64{clip-path:url(#SVGID_94_);fill:#D8D8D8;}
	.st65{clip-path:url(#SVGID_96_);}
	.st66{clip-path:url(#SVGID_98_);fill:#D8D8D8;}
	.st67{clip-path:url(#SVGID_100_);}
	.st68{clip-path:url(#SVGID_102_);fill:#D8D8D8;}
	.st69{clip-path:url(#SVGID_104_);}
	.st70{clip-path:url(#SVGID_106_);fill:#D8D8D8;}
	.st71{clip-path:url(#SVGID_108_);}
	.st72{clip-path:url(#SVGID_110_);fill:#D8D8D8;}
	.st73{clip-path:url(#SVGID_112_);}
	.st74{clip-path:url(#SVGID_114_);fill:#D8D8D8;}
	.st75{clip-path:url(#SVGID_116_);}
	.st76{clip-path:url(#SVGID_118_);fill:#D8D8D8;}
	.st77{clip-path:url(#SVGID_120_);}
	.st78{clip-path:url(#SVGID_122_);fill:#D8D8D8;}
	.st79{clip-path:url(#SVGID_124_);}
	.st80{clip-path:url(#SVGID_126_);fill:#D8D8D8;}
	.st81{clip-path:url(#SVGID_128_);}
	.st82{clip-path:url(#SVGID_130_);fill:#D8D8D8;}
	.st83{clip-path:url(#SVGID_132_);}
	.st84{clip-path:url(#SVGID_134_);fill:#D8D8D8;}
	.st85{clip-path:url(#SVGID_136_);}
	.st86{clip-path:url(#SVGID_138_);fill:#D8D8D8;}
	.st87{clip-path:url(#SVGID_140_);}
	.st88{clip-path:url(#SVGID_142_);fill:#D8D8D8;}
	.st89{clip-path:url(#SVGID_144_);}
	.st90{clip-path:url(#SVGID_146_);fill:#D8D8D8;}
	.st91{clip-path:url(#SVGID_148_);}
	.st92{clip-path:url(#SVGID_150_);fill:#D8D8D8;}
	.st93{clip-path:url(#SVGID_152_);}
	.st94{clip-path:url(#SVGID_154_);fill:#D8D8D8;}
	.st95{clip-path:url(#SVGID_156_);}
	.st96{clip-path:url(#SVGID_158_);fill:#D8D8D8;}
	.st97{clip-path:url(#SVGID_160_);}
	.st98{clip-path:url(#SVGID_162_);fill:#D8D8D8;}
	.st99{clip-path:url(#SVGID_164_);}
	.st100{clip-path:url(#SVGID_166_);fill:#D8D8D8;}
	.st101{clip-path:url(#SVGID_168_);}
	.st102{clip-path:url(#SVGID_170_);fill:#F37422;}
	.st103{clip-path:url(#SVGID_172_);}
	.st104{clip-path:url(#SVGID_174_);fill:#F37422;}
	.st105{clip-path:url(#SVGID_176_);}
	.st106{clip-path:url(#SVGID_178_);fill:#F37422;}
	.st107{clip-path:url(#SVGID_180_);fill:none;stroke:#D8D8D8;stroke-linecap:square;stroke-miterlimit:10;}
	.st108{clip-path:url(#SVGID_182_);}
	.st109{clip-path:url(#SVGID_184_);fill:#F37422;}
	.st110{clip-path:url(#SVGID_186_);}
	.st111{clip-path:url(#SVGID_188_);fill:#0A395A;}
	.st112{clip-path:url(#SVGID_190_);}
	.st113{clip-path:url(#SVGID_192_);fill:#FFFFFF;}
	.st114{clip-path:url(#SVGID_194_);}
	.st115{clip-path:url(#SVGID_196_);fill:#003A5D;}
	.st116{clip-path:url(#SVGID_198_);}
	.st117{clip-path:url(#SVGID_200_);fill:#003A5D;}
	.st118{clip-path:url(#SVGID_202_);}
	.st119{clip-path:url(#SVGID_204_);enable-background:new    ;}
	.st120{clip-path:url(#SVGID_206_);}
	.st121{clip-path:url(#SVGID_208_);}
	.st122{clip-path:url(#SVGID_210_);fill:#003A5D;}
	.st123{clip-path:url(#SVGID_212_);}
	.st124{clip-path:url(#SVGID_214_);fill:#003A5D;}
	.st125{clip-path:url(#SVGID_216_);}
	.st126{clip-path:url(#SVGID_218_);fill:#003A5D;}
	.st127{clip-path:url(#SVGID_220_);}
	.st128{clip-path:url(#SVGID_222_);fill:#003A5D;}
	.st129{clip-path:url(#SVGID_224_);}
	.st130{clip-path:url(#SVGID_226_);fill:#003A5D;}
	.st131{clip-path:url(#SVGID_228_);}
	.st132{clip-path:url(#SVGID_230_);fill:#003A5D;}
	.st133{clip-path:url(#SVGID_232_);}
	.st134{clip-path:url(#SVGID_234_);fill:#003A5D;}
	.st135{clip-path:url(#SVGID_236_);}
	.st136{clip-path:url(#SVGID_238_);fill:#003A5D;}
	.st137{clip-path:url(#SVGID_240_);}
	.st138{clip-path:url(#SVGID_242_);fill:#003A5D;}
	.st139{clip-path:url(#SVGID_244_);}
	.st140{clip-path:url(#SVGID_246_);fill:#003A5D;}
	.st141{clip-path:url(#SVGID_248_);}
	.st142{clip-path:url(#SVGID_250_);fill:#003A5D;}
	.st143{clip-path:url(#SVGID_252_);}
	.st144{clip-path:url(#SVGID_254_);fill:#003A5D;}
	.st145{clip-path:url(#SVGID_256_);}
	.st146{clip-path:url(#SVGID_258_);fill:#003A5D;}
	.st147{clip-path:url(#SVGID_260_);}
	.st148{clip-path:url(#SVGID_262_);fill:#003A5D;}
	.st149{clip-path:url(#SVGID_264_);}
	.st150{clip-path:url(#SVGID_266_);fill:#003A5D;}
	.st151{clip-path:url(#SVGID_268_);}
	.st152{clip-path:url(#SVGID_270_);fill:#003A5D;}
	.st153{clip-path:url(#SVGID_272_);}
	.st154{clip-path:url(#SVGID_274_);fill:#003A5D;}
	.st155{clip-path:url(#SVGID_276_);}
	.st156{clip-path:url(#SVGID_278_);fill:#003A5D;}
	.st157{clip-path:url(#SVGID_280_);}
	.st158{clip-path:url(#SVGID_282_);fill:#003A5D;}
	.st159{clip-path:url(#SVGID_284_);}
	.st160{clip-path:url(#SVGID_286_);fill:#003A5D;}
	.st161{clip-path:url(#SVGID_288_);}
	.st162{clip-path:url(#SVGID_290_);fill:#003A5D;}
	.st163{clip-path:url(#SVGID_292_);}
	.st164{clip-path:url(#SVGID_294_);fill:#FFFFFF;}
	.st165{clip-path:url(#SVGID_296_);}
	.st166{clip-path:url(#SVGID_298_);fill:#FFFFFF;}
	.st167{clip-path:url(#SVGID_300_);}
	.st168{clip-path:url(#SVGID_302_);fill:#FFFFFF;}
	.st169{clip-path:url(#SVGID_304_);}
	.st170{clip-path:url(#SVGID_306_);fill:#FFFFFF;}
	.st171{clip-path:url(#SVGID_308_);}
	.st172{clip-path:url(#SVGID_310_);fill:#FFFFFF;}
	.st173{clip-path:url(#SVGID_312_);}
	.st174{clip-path:url(#SVGID_314_);fill:#FFFFFF;}
	.st175{clip-path:url(#SVGID_316_);}
	.st176{clip-path:url(#SVGID_318_);fill:#FFFFFF;}
	.st177{clip-path:url(#SVGID_320_);}
	.st178{clip-path:url(#SVGID_322_);fill:#FFFFFF;}
	.st179{clip-path:url(#SVGID_324_);}
	.st180{clip-path:url(#SVGID_326_);fill:#FFFFFF;}
	.st181{clip-path:url(#SVGID_328_);}
	.st182{clip-path:url(#SVGID_330_);fill:#FFFFFF;}
	.st183{clip-path:url(#SVGID_332_);}
	.st184{clip-path:url(#SVGID_334_);fill:#FFFFFF;}
	.st185{clip-path:url(#SVGID_336_);}
	.st186{clip-path:url(#SVGID_338_);fill:#FFFFFF;}
	.st187{clip-path:url(#SVGID_340_);}
	.st188{clip-path:url(#SVGID_342_);fill:#FFFFFF;}
	.st189{clip-path:url(#SVGID_344_);}
	.st190{clip-path:url(#SVGID_346_);fill:#FFFFFF;}
	.st191{clip-path:url(#SVGID_348_);}
	.st192{clip-path:url(#SVGID_350_);fill:#FFFFFF;}
	.st193{clip-path:url(#SVGID_352_);}
	.st194{clip-path:url(#SVGID_354_);fill:#FFFFFF;}
	.st195{clip-path:url(#SVGID_356_);}
	.st196{clip-path:url(#SVGID_358_);fill:#FFFFFF;}
	.st197{clip-path:url(#SVGID_360_);}
	.st198{clip-path:url(#SVGID_362_);fill:#FFFFFF;}
	.st199{clip-path:url(#SVGID_364_);}
	.st200{clip-path:url(#SVGID_366_);fill:#FFFFFF;}
	.st201{clip-path:url(#SVGID_368_);}
	.st202{clip-path:url(#SVGID_370_);fill:#FFFFFF;}
	.st203{clip-path:url(#SVGID_372_);}
	.st204{clip-path:url(#SVGID_374_);fill:#FFFFFF;}
	.st205{clip-path:url(#SVGID_376_);}
	.st206{clip-path:url(#SVGID_378_);fill:#FFFFFF;}
	.st207{clip-path:url(#SVGID_382_);}
	.st208{clip-path:url(#SVGID_384_);fill:#0A395A;}
	.st209{clip-path:url(#SVGID_386_);}
	.st210{clip-path:url(#SVGID_388_);fill:#FFFFFF;}
</style>
<g>
	
		<rect x="44.35" y="53.87" transform="matrix(-1.836970e-16 1 -1 -1.836970e-16 116.3266 16.3266)" class="st7" width="11.29" height="24.92"/>
	<g>
		<g>
			<g>
				<path class="st7" d="M47.62,60.9c0,0.94,0,1.81,0,2.79c-1.38,0-2.73,0-4.2,0c0-0.87,0-1.77,0-2.79
					C44.77,60.9,46.16,60.9,47.62,60.9z"/>
				<path class="st7" d="M56.56,60.88c0,1.02,0,1.89,0,2.84c-1.43,0-2.78,0-4.22,0c0-0.95,0-1.85,0-2.84
					C53.74,60.88,55.08,60.88,56.56,60.88z"/>
				<path class="st7" d="M43.35,69.72c0-0.95,0-1.82,0-2.8c1.38,0,2.72,0,4.2,0c0,0.88,0,1.78,0,2.8
					C46.23,69.72,44.89,69.72,43.35,69.72z"/>
				<path class="st7" d="M52.32,69.74c0-1.02,0-1.89,0-2.84c1.42,0,2.77,0,4.22,0c0,0.95,0,1.85,0,2.84
					C55.13,69.74,53.78,69.74,52.32,69.74z"/>
			</g>
		</g>
		<g>
			<g>
				<path class="st7" d="M47.68,42.92c0,0.94,0,1.81,0,2.79c-1.38,0-2.73,0-4.2,0c0-0.87,0-1.77,0-2.79
					C44.83,42.92,46.22,42.92,47.68,42.92z"/>
				<path class="st7" d="M56.62,42.89c0,1.02,0,1.89,0,2.84c-1.43,0-2.78,0-4.22,0c0-0.95,0-1.85,0-2.84
					C53.8,42.89,55.15,42.89,56.62,42.89z"/>
				<path class="st7" d="M43.41,51.74c0-0.95,0-1.82,0-2.8c1.38,0,2.72,0,4.2,0c0,0.88,0,1.78,0,2.8
					C46.3,51.74,44.95,51.74,43.41,51.74z"/>
				<path class="st7" d="M52.38,51.76c0-1.02,0-1.89,0-2.84c1.42,0,2.77,0,4.22,0c0,0.95,0,1.85,0,2.84
					C55.19,51.76,53.85,51.76,52.38,51.76z"/>
				<path class="st7" d="M47.68,54.97c0,0.94,0,1.81,0,2.79c-1.38,0-2.73,0-4.2,0c0-0.87,0-1.77,0-2.79
					C44.83,54.97,46.22,54.97,47.68,54.97z"/>
				<path class="st7" d="M52.42,54.91c1.42,0,2.73,0,4.16,0c0,0.95,0,1.85,0,2.86c-1.34,0-2.69,0-4.16,0
					C52.42,56.88,52.42,55.97,52.42,54.91z"/>
			</g>
		</g>
		<g>
			<g>
				<path class="st7" d="M47.68,24.88c0,0.94,0,1.81,0,2.79c-1.38,0-2.73,0-4.2,0c0-0.87,0-1.77,0-2.79
					C44.83,24.88,46.22,24.88,47.68,24.88z"/>
				<path class="st7" d="M56.62,24.85c0,1.02,0,1.89,0,2.84c-1.43,0-2.78,0-4.22,0c0-0.95,0-1.85,0-2.84
					C53.8,24.85,55.15,24.85,56.62,24.85z"/>
				<path class="st7" d="M43.41,33.7c0-0.95,0-1.82,0-2.8c1.38,0,2.72,0,4.2,0c0,0.88,0,1.78,0,2.8C46.3,33.7,44.95,33.7,43.41,33.7
					z"/>
				<path class="st7" d="M52.38,33.72c0-1.02,0-1.89,0-2.84c1.42,0,2.77,0,4.22,0c0,0.95,0,1.85,0,2.84
					C55.19,33.72,53.85,33.72,52.38,33.72z"/>
				<path class="st7" d="M47.68,36.93c0,0.94,0,1.81,0,2.79c-1.38,0-2.73,0-4.2,0c0-0.87,0-1.77,0-2.79
					C44.83,36.93,46.22,36.93,47.68,36.93z"/>
				<path class="st7" d="M52.42,36.87c1.42,0,2.73,0,4.16,0c0,0.95,0,1.85,0,2.86c-1.34,0-2.69,0-4.16,0
					C52.42,38.84,52.42,37.93,52.42,36.87z"/>
			</g>
		</g>
		<rect x="37.54" y="20.1" class="st21" width="24.92" height="60.27"/>
	</g>
	<g>
		<g>
			<g>
				<path class="st7" d="M31.44,60.9c0,0.94,0,1.81,0,2.79c-1.38,0-2.73,0-4.2,0c0-0.87,0-1.77,0-2.79
					C28.59,60.9,29.98,60.9,31.44,60.9z"/>
				<path class="st7" d="M27.17,69.72c0-0.95,0-1.82,0-2.8c1.38,0,2.72,0,4.2,0c0,0.88,0,1.78,0,2.8
					C30.05,69.72,28.7,69.72,27.17,69.72z"/>
				<path class="st7" d="M31.44,72.95c0,0.94,0,1.81,0,2.79c-1.38,0-2.73,0-4.2,0c0-0.87,0-1.77,0-2.79
					C28.59,72.95,29.98,72.95,31.44,72.95z"/>
			</g>
		</g>
		<g>
			<g>
				<path class="st7" d="M31.5,42.92c0,0.94,0,1.81,0,2.79c-1.38,0-2.73,0-4.2,0c0-0.87,0-1.77,0-2.79
					C28.65,42.92,30.04,42.92,31.5,42.92z"/>
				<path class="st7" d="M27.23,51.74c0-0.95,0-1.82,0-2.8c1.38,0,2.72,0,4.2,0c0,0.88,0,1.78,0,2.8
					C30.12,51.74,28.77,51.74,27.23,51.74z"/>
				<path class="st7" d="M31.5,54.97c0,0.94,0,1.81,0,2.79c-1.38,0-2.73,0-4.2,0c0-0.87,0-1.77,0-2.79
					C28.65,54.97,30.04,54.97,31.5,54.97z"/>
			</g>
		</g>
		<rect x="21.07" y="38.02" class="st21" width="16.47" height="42.36"/>
	</g>
	<g>
		<g>
			<g>
				<path class="st7" d="M72.82,60.9c0,0.94,0,1.81,0,2.79c-1.38,0-2.73,0-4.2,0c0-0.87,0-1.77,0-2.79
					C69.97,60.9,71.36,60.9,72.82,60.9z"/>
				<path class="st7" d="M68.55,69.72c0-0.95,0-1.82,0-2.8c1.38,0,2.72,0,4.2,0c0,0.88,0,1.78,0,2.8
					C71.44,69.72,70.09,69.72,68.55,69.72z"/>
				<path class="st7" d="M72.82,72.95c0,0.94,0,1.81,0,2.79c-1.38,0-2.73,0-4.2,0c0-0.87,0-1.77,0-2.79
					C69.97,72.95,71.36,72.95,72.82,72.95z"/>
			</g>
		</g>
		<g>
			<g>
				<path class="st7" d="M72.89,42.92c0,0.94,0,1.81,0,2.79c-1.38,0-2.73,0-4.2,0c0-0.87,0-1.77,0-2.79
					C70.04,42.92,71.42,42.92,72.89,42.92z"/>
				<path class="st7" d="M68.62,51.74c0-0.95,0-1.82,0-2.8c1.38,0,2.72,0,4.2,0c0,0.88,0,1.78,0,2.8
					C71.5,51.74,70.15,51.74,68.62,51.74z"/>
				<path class="st7" d="M72.89,54.97c0,0.94,0,1.81,0,2.79c-1.38,0-2.73,0-4.2,0c0-0.87,0-1.77,0-2.79
					C70.04,54.97,71.42,54.97,72.89,54.97z"/>
			</g>
		</g>
		<rect x="62.46" y="38.02" class="st21" width="16.47" height="42.36"/>
	</g>
	<path class="st7" d="M56.53,76.18c0,0.94,0,3.21,0,4.19c-4.28,0-8.47,0-13.06,0c0-0.87,0-3.17,0-4.19
		C47.68,76.18,52,76.18,56.53,76.18z"/>
</g>
</svg>
