<?xml version="1.0" encoding="utf-8"?>
<!-- Generator: Adobe Illustrator 23.0.3, SVG Export Plug-In . SVG Version: 6.00 Build 0)  -->
<svg version="1.0" id="Layer_1" xmlns="http://www.w3.org/2000/svg" xmlns:xlink="http://www.w3.org/1999/xlink" x="0px" y="0px"
	 viewBox="0 0 100 100" style="enable-background:new 0 0 100 100;" xml:space="preserve">
<style type="text/css">
	.st0{clip-path:url(#SVGID_2_);}
	.st1{fill:#E8F0F7;}
	.st2{fill:#F37422;}
	.st3{clip-path:url(#SVGID_4_);fill:#020202;}
	.st4{opacity:0.67;clip-path:url(#SVGID_4_);fill:#0A395A;}
	.st5{fill:#FFFFFF;}
	.st6{fill:#FFFFFF;stroke:#F37422;stroke-width:3;stroke-miterlimit:10;}
	.st7{fill:#0A395A;}
	.st8{fill:none;stroke:#F37422;stroke-width:2;stroke-miterlimit:10;}
	.st9{fill:none;stroke:#FFFFFF;stroke-width:3;stroke-miterlimit:10;}
	.st10{opacity:0.25;fill:#F37422;}
	.st11{fill:none;stroke:#F37422;stroke-miterlimit:10;}
	.st12{opacity:0.52;clip-path:url(#SVGID_6_);fill:#212B66;}
	.st13{clip-path:url(#SVGID_6_);fill:#FFFFFF;}
	.st14{fill:none;stroke:#0A395A;stroke-width:2;stroke-miterlimit:10;}
	.st15{clip-path:url(#SVGID_18_);}
	.st16{clip-path:url(#SVGID_20_);}
	.st17{fill:none;stroke:#BDBDBD;stroke-miterlimit:10;}
	.st18{fill:#FF6A00;}
	.st19{fill:none;}
	.st20{fill:#003A5D;}
	.st21{fill:none;stroke:#0A395A;stroke-width:2.25;stroke-miterlimit:10;}
	.st22{fill:none;stroke:#F37422;stroke-width:2.25;stroke-miterlimit:10;}
	.st23{fill:none;stroke:#F37422;stroke-width:2.25;stroke-linejoin:round;stroke-miterlimit:10;}
	.st24{clip-path:url(#SVGID_22_);fill:#020202;}
	.st25{opacity:0.7;clip-path:url(#SVGID_22_);fill:#003A5D;}
	.st26{opacity:0.4;clip-path:url(#SVGID_22_);fill:#003A5D;}
	.st27{fill:#EF7522;}
	.st28{clip-path:url(#SVGID_24_);fill:#020202;}
	.st29{opacity:0.7;clip-path:url(#SVGID_24_);fill:#003A5D;}
	.st30{opacity:0.4;clip-path:url(#SVGID_24_);fill:#003A5D;}
	.st31{clip-path:url(#SVGID_28_);}
	.st32{clip-path:url(#SVGID_30_);fill:#D8D8D8;}
	.st33{clip-path:url(#SVGID_32_);}
	.st34{clip-path:url(#SVGID_34_);fill:#D8D8D8;}
	.st35{clip-path:url(#SVGID_36_);}
	.st36{clip-path:url(#SVGID_38_);fill:#D8D8D8;}
	.st37{clip-path:url(#SVGID_40_);}
	.st38{clip-path:url(#SVGID_42_);fill:#D8D8D8;}
	.st39{clip-path:url(#SVGID_44_);}
	.st40{clip-path:url(#SVGID_46_);fill:#D8D8D8;}
	.st41{clip-path:url(#SVGID_48_);}
	.st42{clip-path:url(#SVGID_50_);fill:#D8D8D8;}
	.st43{clip-path:url(#SVGID_52_);}
	.st44{clip-path:url(#SVGID_54_);fill:#D8D8D8;}
	.st45{clip-path:url(#SVGID_56_);}
	.st46{clip-path:url(#SVGID_58_);fill:#D8D8D8;}
	.st47{clip-path:url(#SVGID_60_);}
	.st48{clip-path:url(#SVGID_62_);fill:#D8D8D8;}
	.st49{clip-path:url(#SVGID_64_);}
	.st50{clip-path:url(#SVGID_66_);fill:#D8D8D8;}
	.st51{clip-path:url(#SVGID_68_);}
	.st52{clip-path:url(#SVGID_70_);fill:#D8D8D8;}
	.st53{clip-path:url(#SVGID_72_);}
	.st54{clip-path:url(#SVGID_74_);fill:#D8D8D8;}
	.st55{clip-path:url(#SVGID_76_);}
	.st56{clip-path:url(#SVGID_78_);fill:#D8D8D8;}
	.st57{clip-path:url(#SVGID_80_);}
	.st58{clip-path:url(#SVGID_82_);fill:#D8D8D8;}
	.st59{clip-path:url(#SVGID_84_);}
	.st60{clip-path:url(#SVGID_86_);fill:#D8D8D8;}
	.st61{clip-path:url(#SVGID_88_);}
	.st62{clip-path:url(#SVGID_90_);fill:#D8D8D8;}
	.st63{clip-path:url(#SVGID_92_);}
	.st64{clip-path:url(#SVGID_94_);fill:#D8D8D8;}
	.st65{clip-path:url(#SVGID_96_);}
	.st66{clip-path:url(#SVGID_98_);fill:#D8D8D8;}
	.st67{clip-path:url(#SVGID_100_);}
	.st68{clip-path:url(#SVGID_102_);fill:#D8D8D8;}
	.st69{clip-path:url(#SVGID_104_);}
	.st70{clip-path:url(#SVGID_106_);fill:#D8D8D8;}
	.st71{clip-path:url(#SVGID_108_);}
	.st72{clip-path:url(#SVGID_110_);fill:#D8D8D8;}
	.st73{clip-path:url(#SVGID_112_);}
	.st74{clip-path:url(#SVGID_114_);fill:#D8D8D8;}
	.st75{clip-path:url(#SVGID_116_);}
	.st76{clip-path:url(#SVGID_118_);fill:#D8D8D8;}
	.st77{clip-path:url(#SVGID_120_);}
	.st78{clip-path:url(#SVGID_122_);fill:#D8D8D8;}
	.st79{clip-path:url(#SVGID_124_);}
	.st80{clip-path:url(#SVGID_126_);fill:#D8D8D8;}
	.st81{clip-path:url(#SVGID_128_);}
	.st82{clip-path:url(#SVGID_130_);fill:#D8D8D8;}
	.st83{clip-path:url(#SVGID_132_);}
	.st84{clip-path:url(#SVGID_134_);fill:#D8D8D8;}
	.st85{clip-path:url(#SVGID_136_);}
	.st86{clip-path:url(#SVGID_138_);fill:#D8D8D8;}
	.st87{clip-path:url(#SVGID_140_);}
	.st88{clip-path:url(#SVGID_142_);fill:#D8D8D8;}
	.st89{clip-path:url(#SVGID_144_);}
	.st90{clip-path:url(#SVGID_146_);fill:#D8D8D8;}
	.st91{clip-path:url(#SVGID_148_);}
	.st92{clip-path:url(#SVGID_150_);fill:#D8D8D8;}
	.st93{clip-path:url(#SVGID_152_);}
	.st94{clip-path:url(#SVGID_154_);fill:#D8D8D8;}
	.st95{clip-path:url(#SVGID_156_);}
	.st96{clip-path:url(#SVGID_158_);fill:#D8D8D8;}
	.st97{clip-path:url(#SVGID_160_);}
	.st98{clip-path:url(#SVGID_162_);fill:#D8D8D8;}
	.st99{clip-path:url(#SVGID_164_);}
	.st100{clip-path:url(#SVGID_166_);fill:#D8D8D8;}
	.st101{clip-path:url(#SVGID_168_);}
	.st102{clip-path:url(#SVGID_170_);fill:#F37422;}
	.st103{clip-path:url(#SVGID_172_);}
	.st104{clip-path:url(#SVGID_174_);fill:#F37422;}
	.st105{clip-path:url(#SVGID_176_);}
	.st106{clip-path:url(#SVGID_178_);fill:#F37422;}
	.st107{clip-path:url(#SVGID_180_);fill:none;stroke:#D8D8D8;stroke-linecap:square;stroke-miterlimit:10;}
	.st108{clip-path:url(#SVGID_182_);}
	.st109{clip-path:url(#SVGID_184_);fill:#F37422;}
	.st110{clip-path:url(#SVGID_186_);}
	.st111{clip-path:url(#SVGID_188_);fill:#0A395A;}
	.st112{clip-path:url(#SVGID_190_);}
	.st113{clip-path:url(#SVGID_192_);fill:#FFFFFF;}
	.st114{clip-path:url(#SVGID_194_);}
	.st115{clip-path:url(#SVGID_196_);fill:#003A5D;}
	.st116{clip-path:url(#SVGID_198_);}
	.st117{clip-path:url(#SVGID_200_);fill:#003A5D;}
	.st118{clip-path:url(#SVGID_202_);}
	.st119{clip-path:url(#SVGID_204_);enable-background:new    ;}
	.st120{clip-path:url(#SVGID_206_);}
	.st121{clip-path:url(#SVGID_208_);}
	.st122{clip-path:url(#SVGID_210_);fill:#003A5D;}
	.st123{clip-path:url(#SVGID_212_);}
	.st124{clip-path:url(#SVGID_214_);fill:#003A5D;}
	.st125{clip-path:url(#SVGID_216_);}
	.st126{clip-path:url(#SVGID_218_);fill:#003A5D;}
	.st127{clip-path:url(#SVGID_220_);}
	.st128{clip-path:url(#SVGID_222_);fill:#003A5D;}
	.st129{clip-path:url(#SVGID_224_);}
	.st130{clip-path:url(#SVGID_226_);fill:#003A5D;}
	.st131{clip-path:url(#SVGID_228_);}
	.st132{clip-path:url(#SVGID_230_);fill:#003A5D;}
	.st133{clip-path:url(#SVGID_232_);}
	.st134{clip-path:url(#SVGID_234_);fill:#003A5D;}
	.st135{clip-path:url(#SVGID_236_);}
	.st136{clip-path:url(#SVGID_238_);fill:#003A5D;}
	.st137{clip-path:url(#SVGID_240_);}
	.st138{clip-path:url(#SVGID_242_);fill:#003A5D;}
	.st139{clip-path:url(#SVGID_244_);}
	.st140{clip-path:url(#SVGID_246_);fill:#003A5D;}
	.st141{clip-path:url(#SVGID_248_);}
	.st142{clip-path:url(#SVGID_250_);fill:#003A5D;}
	.st143{clip-path:url(#SVGID_252_);}
	.st144{clip-path:url(#SVGID_254_);fill:#003A5D;}
	.st145{clip-path:url(#SVGID_256_);}
	.st146{clip-path:url(#SVGID_258_);fill:#003A5D;}
	.st147{clip-path:url(#SVGID_260_);}
	.st148{clip-path:url(#SVGID_262_);fill:#003A5D;}
	.st149{clip-path:url(#SVGID_264_);}
	.st150{clip-path:url(#SVGID_266_);fill:#003A5D;}
	.st151{clip-path:url(#SVGID_268_);}
	.st152{clip-path:url(#SVGID_270_);fill:#003A5D;}
	.st153{clip-path:url(#SVGID_272_);}
	.st154{clip-path:url(#SVGID_274_);fill:#003A5D;}
	.st155{clip-path:url(#SVGID_276_);}
	.st156{clip-path:url(#SVGID_278_);fill:#003A5D;}
	.st157{clip-path:url(#SVGID_280_);}
	.st158{clip-path:url(#SVGID_282_);fill:#003A5D;}
	.st159{clip-path:url(#SVGID_284_);}
	.st160{clip-path:url(#SVGID_286_);fill:#003A5D;}
	.st161{clip-path:url(#SVGID_288_);}
	.st162{clip-path:url(#SVGID_290_);fill:#003A5D;}
	.st163{clip-path:url(#SVGID_292_);}
	.st164{clip-path:url(#SVGID_294_);fill:#FFFFFF;}
	.st165{clip-path:url(#SVGID_296_);}
	.st166{clip-path:url(#SVGID_298_);fill:#FFFFFF;}
	.st167{clip-path:url(#SVGID_300_);}
	.st168{clip-path:url(#SVGID_302_);fill:#FFFFFF;}
	.st169{clip-path:url(#SVGID_304_);}
	.st170{clip-path:url(#SVGID_306_);fill:#FFFFFF;}
	.st171{clip-path:url(#SVGID_308_);}
	.st172{clip-path:url(#SVGID_310_);fill:#FFFFFF;}
	.st173{clip-path:url(#SVGID_312_);}
	.st174{clip-path:url(#SVGID_314_);fill:#FFFFFF;}
	.st175{clip-path:url(#SVGID_316_);}
	.st176{clip-path:url(#SVGID_318_);fill:#FFFFFF;}
	.st177{clip-path:url(#SVGID_320_);}
	.st178{clip-path:url(#SVGID_322_);fill:#FFFFFF;}
	.st179{clip-path:url(#SVGID_324_);}
	.st180{clip-path:url(#SVGID_326_);fill:#FFFFFF;}
	.st181{clip-path:url(#SVGID_328_);}
	.st182{clip-path:url(#SVGID_330_);fill:#FFFFFF;}
	.st183{clip-path:url(#SVGID_332_);}
	.st184{clip-path:url(#SVGID_334_);fill:#FFFFFF;}
	.st185{clip-path:url(#SVGID_336_);}
	.st186{clip-path:url(#SVGID_338_);fill:#FFFFFF;}
	.st187{clip-path:url(#SVGID_340_);}
	.st188{clip-path:url(#SVGID_342_);fill:#FFFFFF;}
	.st189{clip-path:url(#SVGID_344_);}
	.st190{clip-path:url(#SVGID_346_);fill:#FFFFFF;}
	.st191{clip-path:url(#SVGID_348_);}
	.st192{clip-path:url(#SVGID_350_);fill:#FFFFFF;}
	.st193{clip-path:url(#SVGID_352_);}
	.st194{clip-path:url(#SVGID_354_);fill:#FFFFFF;}
	.st195{clip-path:url(#SVGID_356_);}
	.st196{clip-path:url(#SVGID_358_);fill:#FFFFFF;}
	.st197{clip-path:url(#SVGID_360_);}
	.st198{clip-path:url(#SVGID_362_);fill:#FFFFFF;}
	.st199{clip-path:url(#SVGID_364_);}
	.st200{clip-path:url(#SVGID_366_);fill:#FFFFFF;}
	.st201{clip-path:url(#SVGID_368_);}
	.st202{clip-path:url(#SVGID_370_);fill:#FFFFFF;}
	.st203{clip-path:url(#SVGID_372_);}
	.st204{clip-path:url(#SVGID_374_);fill:#FFFFFF;}
	.st205{clip-path:url(#SVGID_376_);}
	.st206{clip-path:url(#SVGID_378_);fill:#FFFFFF;}
	.st207{clip-path:url(#SVGID_382_);}
	.st208{clip-path:url(#SVGID_384_);fill:#0A395A;}
	.st209{clip-path:url(#SVGID_386_);}
	.st210{clip-path:url(#SVGID_388_);fill:#FFFFFF;}
</style>
<path class="st7" d="M94.09,47.11l-3.15-3.15c-0.03-0.18-0.12-0.35-0.25-0.48L73.15,25.94c-0.17-0.17-0.4-0.26-0.64-0.26
	s-0.47,0.1-0.64,0.26l-8.05,8.05H40.05l-2.97-2.97c-0.03-0.11-0.09-0.22-0.18-0.31l-4.66-4.66c-0.14-0.14-0.33-0.22-0.52-0.22
	s-0.38,0.08-0.52,0.22L10.14,47.11c-0.14,0.14-0.22,0.33-0.22,0.52c0,0.2,0.08,0.38,0.22,0.52l4.66,4.66
	c0.14,0.14,0.33,0.22,0.52,0.22c0.19,0,0.38-0.07,0.52-0.22l2.91-2.91l3,3c0.16,0.16,0.38,0.24,0.59,0.24
	c0.21,0,0.43-0.08,0.59-0.24l2.68-2.68l6.75,6.75l-0.34,0.34c-1.5,1.5-1.5,3.95,0,5.45l0.04,0.04c0.73,0.73,1.7,1.13,2.73,1.13
	c0.11,0,0.22-0.01,0.33-0.01c-0.01,0.11-0.01,0.22-0.01,0.33c0,1.03,0.4,2,1.13,2.73l0.04,0.04c0.73,0.73,1.7,1.13,2.73,1.13
	c0.11,0,0.23-0.01,0.34-0.02c-0.1,1.1,0.27,2.23,1.11,3.07l0.04,0.04c0.73,0.73,1.7,1.13,2.73,1.13c0.68,0,1.32-0.17,1.9-0.5
	c0.32,1.87,1.95,3.31,3.91,3.31c1.1,0,2.09-0.45,2.81-1.17c0.74,0.74,1.75,1.17,2.81,1.17c1.96,0,3.6-1.43,3.91-3.31
	c0.57,0.32,1.22,0.5,1.9,0.5c1.03,0,2-0.4,2.73-1.13l0.04-0.04c0.84-0.84,1.21-1.97,1.11-3.06c0.11,0.01,0.23,0.02,0.34,0.02
	c1.03,0,2-0.4,2.73-1.13l0.04-0.04c0.84-0.84,1.21-1.96,1.11-3.06c0.11,0.01,0.22,0.01,0.33,0.01c1.03,0,2-0.4,2.73-1.13l0.04-0.04
	c1.5-1.5,1.5-3.95,0-5.45l-0.22-0.22l6.86-6.86l2.83,2.83c0.18,0.18,0.41,0.26,0.64,0.26s0.46-0.09,0.64-0.26l3.13-3.13l2.88,2.88
	c0.14,0.14,0.33,0.22,0.52,0.22s0.38-0.08,0.52-0.22l4.66-4.66C94.38,47.87,94.38,47.4,94.09,47.11z M22.35,51.14l-2.41-2.41
	l16.24-16.24l2.41,2.41L22.35,51.14z M34.78,62.14c-0.55,0-1.06-0.21-1.45-0.6L33.3,61.5c-0.8-0.8-0.8-2.1,0-2.9l3.22-3.22
	c0.39-0.39,0.9-0.6,1.45-0.6c0.55,0,1.06,0.21,1.45,0.6l0.04,0.04c0.39,0.39,0.6,0.9,0.6,1.45c0,0.5-0.18,0.96-0.5,1.34
	c-0.04,0.04-0.08,0.07-0.11,0.11l-3.22,3.22c-0.04,0.04-0.07,0.07-0.11,0.11C35.75,61.96,35.28,62.14,34.78,62.14z M37.54,65.74
	l-0.04-0.04c-0.39-0.39-0.6-0.9-0.6-1.45c0-0.5,0.18-0.96,0.5-1.34c0.04-0.04,0.08-0.07,0.11-0.11l3.22-3.22l0,0
	c0.04-0.04,0.07-0.07,0.11-0.11c0.37-0.32,0.84-0.5,1.34-0.5c0.55,0,1.06,0.21,1.45,0.6l0.04,0.04c0.8,0.8,0.8,2.1,0,2.9l-3.22,3.22
	c-0.39,0.39-0.9,0.6-1.45,0.6C38.44,66.35,37.93,66.13,37.54,65.74z M43.21,70.56c-0.55,0-1.06-0.21-1.45-0.6l-0.04-0.04
	c-0.8-0.8-0.8-2.1,0-2.9l3.22-3.22c0.39-0.39,0.9-0.6,1.45-0.6c0.55,0,1.06,0.21,1.45,0.6l0.04,0.04c0.8,0.8,0.8,2.1,0,2.9l-1.5,1.5
	c-0.11,0.1-0.21,0.2-0.31,0.31l-1.4,1.4C44.27,70.35,43.75,70.56,43.21,70.56z M49.02,73.37c-1.19,0-2.17-0.97-2.17-2.17
	c0-0.54,0.2-1.03,0.53-1.41l0.23-0.23c0.38-0.33,0.87-0.53,1.41-0.53c1.19,0,2.17,0.97,2.17,2.17
	C51.18,72.4,50.21,73.37,49.02,73.37z M70.36,61.5l-0.04,0.04c-0.39,0.39-0.9,0.6-1.45,0.6c-0.5,0-0.96-0.18-1.34-0.5
	c-0.03-0.04-0.07-0.08-0.11-0.11l-5.58-5.58c-0.35-0.35-0.92-0.35-1.28,0c0,0,0,0,0,0c0,0,0,0,0,0c-0.35,0.35-0.35,0.92,0,1.28
	l5.58,5.58c0.04,0.04,0.07,0.07,0.11,0.11c0.69,0.81,0.66,2.03-0.1,2.79l-0.04,0.04c-0.39,0.39-0.9,0.6-1.45,0.6
	c-0.55,0-1.06-0.21-1.45-0.6l-5.58-5.58c-0.35-0.35-0.92-0.35-1.28,0l0,0c0,0,0,0,0,0c-0.35,0.35-0.35,0.92,0,1.28l5.58,5.58
	c0.8,0.8,0.8,2.1,0,2.9l-0.04,0.04c-0.39,0.39-0.9,0.6-1.45,0.6c-0.55,0-1.06-0.21-1.45-0.6l-1.39-1.39
	c-0.11-0.12-0.22-0.24-0.34-0.34l-3.85-3.85c-0.35-0.35-0.92-0.35-1.28,0c-0.35,0.35-0.35,0.92,0,1.28l4.14,4.14
	c0.34,0.39,0.53,0.89,0.53,1.41c0,1.19-0.97,2.17-2.17,2.17c-0.74,0-1.43-0.38-1.83-1.01c0.11-0.37,0.17-0.76,0.17-1.16
	c0-1.95-1.41-3.57-3.27-3.91c0.9-1.48,0.72-3.45-0.57-4.73l-0.04-0.04c-0.73-0.73-1.7-1.13-2.73-1.13c-0.11,0-0.23,0.01-0.34,0.02
	c0.1-1.1-0.27-2.23-1.11-3.06l-0.04-0.04c-0.73-0.73-1.7-1.13-2.73-1.13c-0.11,0-0.22,0.01-0.33,0.01c0.01-0.11,0.01-0.22,0.01-0.33
	c0-1.03-0.4-2-1.13-2.73l-0.04-0.04c-0.73-0.73-1.7-1.13-2.73-1.13c-1.03,0-2,0.4-2.73,1.13l-1.7,1.7l-6.75-6.75L40.05,35.8h8.7
	l-6.27,6.27c-2.18,2.18-2.18,5.74,0,7.92c2.18,2.18,5.74,2.18,7.92,0l4.28-4.28c0.77-0.77,2.03-0.77,2.8,0L69.5,57.74l0,0l0,0
	l0.86,0.86C71.16,59.4,71.16,60.7,70.36,61.5z M70.14,55.82L58.75,44.44c-0.71-0.71-1.67-1.11-2.68-1.11
	c-1.01,0-1.96,0.39-2.68,1.11l-4.28,4.28c-0.72,0.72-1.67,1.11-2.68,1.11c-1.01,0-1.97-0.39-2.68-1.11c-1.48-1.48-1.48-3.89,0-5.37
	l7.55-7.55h12.52l13.17,13.17L70.14,55.82z M81.74,51.16L65.47,34.9l2.49-2.49l16.26,16.26L81.74,51.16z"/>
</svg>
