<?xml version="1.0" encoding="UTF-8"?>
<svg width="90px" height="53px" viewBox="0 0 90 53" version="1.1" xmlns="http://www.w3.org/2000/svg" xmlns:xlink="http://www.w3.org/1999/xlink">
    <!-- Generator: Sketch 53.2 (72643) - https://sketchapp.com -->
    <title>Fill 1</title>
    <desc>Created with Sketch.</desc>
    <g id="Page-1" stroke="none" stroke-width="1" fill="none" fill-rule="evenodd">
        <g id="regular-screen" transform="translate(-924.000000, -697.000000)" fill="#0A395A">
            <path d="M1000.59308,724.286111 L983.248437,706.871614 L985.908528,704.20081 L1003.25317,721.615307 L1000.59308,724.286111 Z M988.223003,729.280712 L976.076512,717.086123 C975.314848,716.319747 974.300116,715.898734 973.22232,715.898734 C972.144525,715.898734 971.129792,716.319747 970.368128,717.086123 L965.807973,721.664645 C965.043853,722.431843 964.027482,722.854501 962.946411,722.854501 C961.865339,722.854501 960.849788,722.431843 960.084848,721.664645 C958.507466,720.080088 958.507466,717.502203 960.084848,715.918469 L968.133096,707.837807 L981.489239,707.837807 L995.534976,721.940112 L988.223003,729.280712 Z M988.460511,735.359916 L988.421199,735.398563 C988.007608,735.813821 987.458063,736.042418 986.873302,736.042418 C986.344232,736.042418 985.844646,735.853291 985.448253,735.509573 C985.41058,735.470103 985.373725,735.428988 985.334413,735.39034 L979.381969,729.413101 C979.006051,729.035669 978.395901,729.035669 978.019983,729.413101 L978.015888,729.418035 C978.015069,729.418857 978.013431,729.420501 978.011794,729.421324 C977.635876,729.798756 977.635876,730.410541 978.011794,730.787973 L983.964237,736.765212 C984.00273,736.804682 984.042861,736.841686 984.082991,736.877866 C984.822542,737.740451 984.787326,739.04625 983.973246,739.863608 L983.933935,739.903078 C983.521162,740.318336 982.970798,740.546933 982.386856,740.546933 C981.802095,740.546933 981.25255,740.318336 980.838959,739.903078 L974.885696,733.926661 C974.509778,733.549229 973.900447,733.549229 973.524529,733.926661 L973.524529,733.927483 C973.148611,734.304915 973.148611,734.9167 973.524529,735.294132 L979.477792,741.27055 C980.331183,742.127378 980.331183,743.521985 979.477792,744.377991 L979.43848,744.416638 C979.024888,744.831896 978.475344,745.061315 977.890582,745.061315 C977.305821,745.061315 976.757096,744.831896 976.343504,744.416638 L974.862764,742.930757 C974.748105,742.801657 974.625256,742.677491 974.495036,742.561548 L970.390241,738.440221 C970.014323,738.062789 969.404992,738.062789 969.029074,738.440221 C968.653156,738.817653 968.653156,739.429438 969.029074,739.80687 L973.441811,744.237379 C973.80053,744.655103 974.004459,745.190415 974.004459,745.750396 C974.004459,747.028237 972.969251,748.068436 971.695717,748.068436 C970.904569,748.068436 970.167475,747.65729 969.744874,746.989589 C969.864447,746.597356 969.929967,746.181277 969.929967,745.750396 C969.929967,743.661774 968.423019,741.922627 966.444331,741.566575 C967.408286,739.977084 967.207633,737.871195 965.839914,736.497145 L965.80224,736.458498 C965.024197,735.678143 963.992265,735.248906 962.893176,735.248906 C962.771146,735.248906 962.650754,735.254662 962.531181,735.265352 C962.632736,734.091119 962.237981,732.880706 961.34446,731.983585 L961.305148,731.944115 C960.528742,731.164582 959.495172,730.735346 958.396902,730.735346 C958.279786,730.735346 958.16267,730.741102 958.047192,730.750147 C958.056201,730.634204 958.062753,730.517439 958.062753,730.399851 C958.062753,729.296335 957.635239,728.258603 956.858014,727.478248 L956.819521,727.4396 C956.042296,726.660068 955.009546,726.230009 953.910457,726.230009 C952.811368,726.230009 951.777798,726.660068 951.001392,727.4396 L949.191417,729.256865 L941.994922,722.031387 L956.130748,707.837807 L965.410762,707.837807 L958.723681,714.55182 C956.396102,716.889596 956.396102,720.693518 958.723681,723.031294 C961.052898,725.368247 964.840742,725.368247 967.168321,723.031294 L971.729295,718.452773 C972.552384,717.625547 973.892257,717.625547 974.715345,718.452773 L987.5416,731.330685 L987.542419,731.330685 L988.460511,732.252475 C989.313902,733.10848 989.313902,734.503087 988.460511,735.359916 L988.460511,735.359916 Z M965.695771,748.068436 C964.422237,748.068436 963.38621,747.028237 963.38621,745.750396 C963.38621,745.171502 963.599148,744.644413 963.948858,744.238201 L964.189642,743.995625 C964.594225,743.645328 965.120019,743.43071 965.695771,743.43071 C966.968487,743.43071 968.004514,744.471732 968.004514,745.750396 C968.004514,747.028237 966.968487,748.068436 965.695771,748.068436 L965.695771,748.068436 Z M959.500086,745.061315 C958.915325,745.061315 958.364962,744.831896 957.952189,744.416638 L957.913696,744.378813 C957.060305,743.521985 957.060305,742.127378 957.913696,741.27055 L961.34446,737.825147 C961.758051,737.409889 962.308415,737.182114 962.893176,737.182114 C963.477937,737.182114 964.027482,737.409889 964.440254,737.825969 L964.478747,737.864617 C965.332138,738.721445 965.332138,740.115229 964.478747,740.972058 L962.874339,742.582927 C962.758042,742.688181 962.64584,742.800012 962.541009,742.9176 L961.047984,744.416638 C960.634392,744.831896 960.084848,745.061315 959.500086,745.061315 L959.500086,745.061315 Z M953.455915,739.903078 L953.417423,739.86443 C953.00465,739.449173 952.776151,738.898238 952.776151,738.311121 C952.776151,737.779098 952.964519,737.278323 953.30604,736.879511 C953.346989,736.842508 953.38712,736.804682 953.426432,736.765212 L956.858014,733.319809 C956.896507,733.280339 956.934999,733.240047 956.972673,733.198933 C957.369066,732.856037 957.867833,732.66691 958.396902,732.66691 C958.981664,732.66691 959.531208,732.896329 959.9448,733.311587 L959.983293,733.349412 C960.836684,734.20624 960.836684,735.601669 959.983293,736.458498 L956.55171,739.903078 C956.138938,740.318336 955.588574,740.546933 955.003813,740.546933 C954.419871,740.546933 953.869507,740.318336 953.455915,739.903078 L953.455915,739.903078 Z M950.517367,736.042418 C949.933425,736.042418 949.383061,735.813821 948.970289,735.398563 L948.930977,735.359916 C948.077586,734.503087 948.077586,733.10848 948.930977,732.252475 L952.362559,728.806249 C952.775332,728.390992 953.325695,728.163217 953.910457,728.163217 C954.495218,728.163217 955.044763,728.390992 955.458354,728.807072 L955.496847,728.845719 C955.90962,729.260977 956.138119,729.812735 956.138119,730.399851 C956.138119,730.930229 955.94975,731.431005 955.60823,731.829817 C955.56728,731.867642 955.52715,731.905467 955.488657,731.944115 L952.056256,735.39034 C952.016944,735.42981 951.980089,735.470103 951.942416,735.510395 C951.545204,735.853291 951.046437,736.042418 950.517367,736.042418 L950.517367,736.042418 Z M937.252951,724.266376 L934.680492,721.682735 L952.004659,704.288795 L954.577117,706.871614 L937.252951,724.266376 Z M1013.76904,719.950166 L1010.40871,716.577125 C1010.37432,716.384708 1010.28341,716.204627 1010.14336,716.064015 L991.437552,697.283691 C991.257373,697.101964 991.012494,697 990.756968,697 C990.502261,697 990.257382,697.101964 990.076385,697.283691 L981.489239,705.904599 L956.130748,705.904599 L952.965338,702.726441 C952.929303,702.606386 952.867059,702.492087 952.772056,702.397524 L947.800766,697.406212 C947.652528,697.257377 947.451875,697.173504 947.242213,697.173504 C947.034188,697.173504 946.832716,697.257377 946.684478,697.406212 L924.231775,719.950166 C924.083537,720.098179 924,720.29964 924,720.510147 C924,720.720653 924.083537,720.922115 924.231775,721.07095 L929.202246,726.061439 C929.357036,726.216852 929.558508,726.293325 929.760799,726.293325 C929.962272,726.293325 930.164563,726.216852 930.318534,726.061439 L933.422519,722.944953 L936.624783,726.160114 C936.79759,726.33444 937.026089,726.421603 937.252951,726.421603 C937.480631,726.421603 937.70913,726.33444 937.882757,726.160114 L940.736948,723.293605 L947.933443,730.519906 L947.56981,730.885003 C945.966221,732.495051 945.966221,735.115695 947.56981,736.726565 L947.609122,736.765212 C948.385527,737.545567 949.419097,737.974804 950.517367,737.974804 C950.635302,737.974804 950.751599,737.969048 950.867077,737.95918 C950.857249,738.075946 950.851517,738.192711 950.851517,738.311121 C950.851517,739.412992 951.27985,740.450725 952.056256,741.23108 L952.095567,741.269727 C952.871973,742.050082 953.905543,742.479319 955.003813,742.479319 C955.125024,742.479319 955.246235,742.473563 955.365808,742.462873 C955.263434,743.637928 955.659008,744.848341 956.552529,745.745462 L956.591022,745.78411 C957.368247,746.564465 958.400997,746.993701 959.500086,746.993701 C960.219982,746.993701 960.912031,746.807863 961.522181,746.460856 C961.859606,748.467248 963.602424,750 965.695771,750 C966.866113,750 967.926709,749.520604 968.694925,748.747649 C969.479521,749.537872 970.557316,750 971.695717,750 C973.788245,750 975.530244,748.467248 975.869307,746.460856 C976.479457,746.807863 977.169868,746.993701 977.890582,746.993701 C978.989672,746.993701 980.022422,746.564465 980.799647,745.784932 L980.83814,745.745462 C981.731661,744.848341 982.126416,743.637928 982.024861,742.462873 C982.144434,742.473563 982.264826,742.479319 982.386856,742.479319 C983.485126,742.479319 984.518696,742.050082 985.295102,741.269727 L985.334413,741.23108 C986.224659,740.337248 986.620233,739.130946 986.521135,737.95918 C986.638251,737.969048 986.755367,737.974804 986.873302,737.974804 C987.972391,737.974804 989.005141,737.545567 989.782366,736.765212 L989.820859,736.726565 C991.425267,735.115695 991.425267,732.495051 989.820859,730.885003 L989.584989,730.647361 L996.895324,723.306761 L999.913314,726.335262 C1000.10004,726.524389 1000.34738,726.618953 1000.59308,726.618953 C1000.8396,726.618953 1001.08611,726.524389 1001.27366,726.335262 L1004.61434,722.981956 L1007.68147,726.061439 C1007.8297,726.210274 1008.03036,726.293325 1008.24002,726.293325 C1008.44886,726.293325 1008.64952,726.210274 1008.79857,726.061439 L1013.76904,721.07095 C1014.07699,720.761768 1014.07699,720.26017 1013.76904,719.950166 L1013.76904,719.950166 Z" id="Fill-1"></path>
        </g>
    </g>
</svg>