<?xml version="1.0" encoding="UTF-8"?>
<svg width="72px" height="60px" viewBox="0 0 72 60" version="1.1" xmlns="http://www.w3.org/2000/svg" xmlns:xlink="http://www.w3.org/1999/xlink">
    <!-- Generator: Sketch 53.2 (72643) - https://sketchapp.com -->
    <title>Group 13</title>
    <desc>Created with Sketch.</desc>
    <g id="Page-1" stroke="none" stroke-width="1" fill="none" fill-rule="evenodd">
        <g id="Home-page" transform="translate(-29.000000, -1440.000000)" stroke="#F37422" stroke-width="2.25">
            <g id="Group-13" transform="translate(30.000000, 1441.000000)">
                <polyline id="Stroke-1" points="43.859 40.7708 0.126 40.7708 0.126 31.5808 43.956 31.5808"></polyline>
                <path d="M63.9176,44.429 L45.9226,44.429 C43.0576,44.429 40.7346,46.751 40.7346,49.616 L40.7346,57.867 L69.1056,57.867 L69.1056,49.616 C69.1056,46.751 66.7826,44.429 63.9176,44.429 Z" id="Stroke-3"></path>
                <polyline id="Stroke-5" points="54.92 24.2327 54.92 0.1257 0.125 0.1257 0.125 40.7717"></polyline>
                <path d="M55.0133,28.0618 C54.9813,28.0618 54.9513,28.0658 54.9203,28.0668 C50.4443,28.1168 46.8293,31.7568 46.8293,36.2458 C46.8293,39.5828 48.8283,42.4468 51.6923,43.7208 C52.7073,44.1718 53.8293,44.4288 55.0133,44.4288 C59.5323,44.4288 63.1963,40.7648 63.1963,36.2458 C63.1963,31.7258 59.5323,28.0618 55.0133,28.0618 Z" id="Stroke-7"></path>
                <path d="M27.5226,40.7708 L27.5226,46.9768" id="Stroke-9"></path>
                <path d="M19.5045,46.9759 L35.5485,46.9759" id="Stroke-11"></path>
            </g>
        </g>
    </g>
</svg>