<?xml version="1.0" encoding="UTF-8"?>
<svg width="72px" height="69px" viewBox="0 0 72 69" version="1.1" xmlns="http://www.w3.org/2000/svg" xmlns:xlink="http://www.w3.org/1999/xlink">
    <!-- Generator: Sketch 53.2 (72643) - https://sketchapp.com -->
    <title>Group 5</title>
    <desc>Created with Sketch.</desc>
    <g id="Page-1" stroke="none" stroke-width="1" fill="none" fill-rule="evenodd">
        <g id="Home-page" transform="translate(-407.000000, -1435.000000)" stroke="#F37422" stroke-width="2.25">
            <g id="Group-5" transform="translate(408.000000, 1436.000000)">
                <path d="M34.9719,0.0504 C34.9719,0.0504 33.3539,0.6724 32.7319,1.7924 C32.1099,2.9124 29.2469,8.1394 29.2469,12.1214 L29.2469,25.5634 L0.1249,39.1284 L0.1249,43.9824 L29.7449,38.8794 L32.8559,58.1694 L26.3849,62.7744 C26.3849,62.7744 25.3889,66.5074 25.7629,66.3834 C26.1359,66.2584 34.9719,63.6454 34.9719,63.6454" id="Stroke-1"></path>
                <path d="M34.9719,0.0504 C34.9719,0.0504 36.5899,0.6724 37.2119,1.7924 C37.8339,2.9124 40.6969,8.1394 40.6969,12.1214 L40.6969,25.5634 L69.8189,39.1284 L69.8189,43.9824 L40.1989,38.8794 L37.0879,58.1694 L43.5589,62.7744 C43.5589,62.7744 44.5549,66.5074 44.1809,66.3834 C43.8079,66.2584 34.9719,63.6454 34.9719,63.6454" id="Stroke-3"></path>
            </g>
        </g>
    </g>
</svg>