<svg id="Layer_1" data-name="Layer 1" xmlns="http://www.w3.org/2000/svg" viewBox="0 0 97.44 88.88"><defs><style>.cls-1{fill:none;stroke:#ed5623;stroke-linecap:round;stroke-linejoin:round;stroke-width:2.25px;}</style></defs><title>Artboard 6 copy 2</title><g id="Group_536" data-name="Group 536"><circle id="Ellipse_12" data-name="Ellipse 12" class="cls-1" cx="65.32" cy="20.44" r="6.7"/><circle id="Ellipse_13" data-name="Ellipse 13" class="cls-1" cx="45.45" cy="25.8" r="4.69"/><circle id="Ellipse_14" data-name="Ellipse 14" class="cls-1" cx="20.44" cy="28.25" r="4.69"/><circle id="Ellipse_15" data-name="Ellipse 15" class="cls-1" cx="15.75" cy="49.47" r="4.69"/><circle id="Ellipse_16" data-name="Ellipse 16" class="cls-1" cx="37.63" cy="63.76" r="4.69"/><circle id="Ellipse_17" data-name="Ellipse 17" class="cls-1" cx="35.18" cy="43.44" r="4.69"/><path id="Path_238" data-name="Path 238" class="cls-1" d="M76.49,56.83V37.19c0-3.13-2-3.8-3.13-4s-6.25-1.34-6.25-1.34l-2,2-2-2s-5.36,1.11-6.25,1.34a4.17,4.17,0,0,0-3.13,4V54.37c0,1.57.67,2.46,2,2.46H58.4"/><rect id="Rectangle_314" data-name="Rectangle 314" class="cls-1" x="65.32" y="56.83" width="20.54" height="16.08"/><line id="Line_26" data-name="Line 26" class="cls-1" x1="72.02" y1="40.98" x2="72.02" y2="56.83"/><path id="Path_239" data-name="Path 239" class="cls-1" d="M70.46,74S70,81.62,70,82.29a1.87,1.87,0,0,1-1.73,2H62.64q-1.66,0-2-2c0-.9-2-25.46-2-25.46V40.76"/><line id="Line_27" data-name="Line 27" class="cls-1" x1="49.02" y1="28.7" x2="52.15" y2="30.93"/><line id="Line_28" data-name="Line 28" class="cls-1" x1="41.21" y1="60.85" x2="49.47" y2="51.7"/><line id="Line_29" data-name="Line 29" class="cls-1" x1="33.61" y1="61.75" x2="19.55" y2="52.15"/><line id="Line_30" data-name="Line 30" class="cls-1" x1="16.64" y1="45" x2="18.88" y2="32.94"/><line id="Line_31" data-name="Line 31" class="cls-1" x1="24.91" y1="27.58" x2="40.98" y2="26.47"/><line id="Line_32" data-name="Line 32" class="cls-1" x1="23.57" y1="31.38" x2="31.83" y2="40.31"/><line id="Line_33" data-name="Line 33" class="cls-1" x1="43.22" y1="29.82" x2="37.41" y2="39.64"/><line id="Line_34" data-name="Line 34" class="cls-1" x1="19.99" y1="47.9" x2="30.71" y2="45"/><line id="Line_35" data-name="Line 35" class="cls-1" x1="35.62" y1="48.13" x2="36.96" y2="59.07"/><line id="Line_36" data-name="Line 36" class="cls-1" x1="39.64" y1="42.99" x2="49.47" y2="42.77"/></g></svg>