<svg id="Layer_1" data-name="Layer 1" xmlns="http://www.w3.org/2000/svg" viewBox="0 0 97.44 88.88"><defs><style>.cls-1{fill:none;stroke:#ed5623;stroke-linecap:round;stroke-linejoin:round;stroke-width:2.25px;}</style></defs><title>Artboard 6 copy 3</title><g id="Group_537" data-name="Group 537"><path id="Path_240" data-name="Path 240" class="cls-1" d="M36.86,39.82S22.41,30.55,21.59,29.74a8.62,8.62,0,0,0-6.27-2.46H12.05a8.85,8.85,0,0,0-8.73,6.27c-.54,1.91.27,5.18.27,5.18l2.46,9.82"/><line id="Line_37" data-name="Line 37" class="cls-1" x1="7.69" y1="53.73" x2="9.59" y2="61.64"/><line id="Line_38" data-name="Line 38" class="cls-1" x1="8.78" y1="38.73" x2="13.14" y2="55.91"/><circle id="Ellipse_18" data-name="Ellipse 18" class="cls-1" cx="13.41" cy="21.01" r="6.27"/><line id="Line_39" data-name="Line 39" class="cls-1" x1="25.41" y1="55.91" x2="13.14" y2="55.91"/><line id="Line_40" data-name="Line 40" class="cls-1" x1="21.59" y1="61.64" x2="9.59" y2="61.64"/><line id="Line_41" data-name="Line 41" class="cls-1" x1="21.59" y1="72.54" x2="9.59" y2="72.54"/><line id="Line_42" data-name="Line 42" class="cls-1" x1="20.23" y1="38.73" x2="24.59" y2="55.91"/><path id="Path_242" data-name="Path 242" class="cls-1" d="M41.22,72.54,36.86,55.91H25.41l4.36,16.63"/><line id="Line_43" data-name="Line 43" class="cls-1" x1="28.14" y1="44.46" x2="68.49" y2="44.46"/><line id="Line_44" data-name="Line 44" class="cls-1" x1="48.31" y1="44.46" x2="48.31" y2="72.55"/><line id="Line_45" data-name="Line 45" class="cls-1" x1="15.59" y1="72.55" x2="15.59" y2="61.64"/><path id="Path_243" data-name="Path 243" class="cls-1" d="M60.31,39.82S75,30.28,76.13,29.46a9,9,0,0,1,6-2.18H85.4a8.84,8.84,0,0,1,8.72,6.27c.55,1.91-.27,5.18-.27,5.18L91.4,48.55"/><line id="Line_46" data-name="Line 46" class="cls-1" x1="89.76" y1="53.73" x2="87.85" y2="61.64"/><line id="Line_47" data-name="Line 47" class="cls-1" x1="88.4" y1="38.73" x2="84.31" y2="55.91"/><circle id="Ellipse_19" data-name="Ellipse 19" class="cls-1" cx="83.76" cy="21.01" r="6.27"/><line id="Line_48" data-name="Line 48" class="cls-1" x1="72.04" y1="55.91" x2="84.31" y2="55.91"/><line id="Line_49" data-name="Line 49" class="cls-1" x1="75.85" y1="61.64" x2="87.85" y2="61.64"/><line id="Line_50" data-name="Line 50" class="cls-1" x1="75.85" y1="72.54" x2="87.85" y2="72.54"/><line id="Line_51" data-name="Line 51" class="cls-1" x1="76.94" y1="38.73" x2="72.85" y2="55.91"/><path id="Path_245" data-name="Path 245" class="cls-1" d="M56.22,72.54l4.09-16.63H71.76L67.67,72.54"/><line id="Line_52" data-name="Line 52" class="cls-1" x1="81.85" y1="72.55" x2="81.85" y2="61.64"/></g></svg>