<svg id="Layer_1" data-name="Layer 1" xmlns="http://www.w3.org/2000/svg" viewBox="0 0 97.44 88.88"><defs><style>.cls-1{fill:none;stroke:#ed5623;stroke-linecap:round;stroke-linejoin:round;stroke-width:2.25px;}</style></defs><title>Artboard 6 copy 4</title><g id="Group_539" data-name="Group 539"><g id="Group_538" data-name="Group 538"><line id="Line_53" data-name="Line 53" class="cls-1" x1="50.83" y1="79.17" x2="50.83" y2="13.02"/><path id="Path_246" data-name="Path 246" class="cls-1" d="M50.83,62.91C69.27,62.91,84,55.32,84,46s-15-16.92-33.18-16.92Z"/><path id="Path_247" data-name="Path 247" class="cls-1" d="M50.83,79.39c9.33,0,16.92-14.75,16.92-33.19S60.16,13,50.83,13Z"/><path id="Path_248" data-name="Path 248" class="cls-1" d="M50.83,79.39h0A33.19,33.19,0,1,0,51.2,13h-.37Z"/><path id="Path_249" data-name="Path 249" class="cls-1" d="M10.71,48.81a.21.21,0,0,0,.21.21h0c.44,0,.87.22,1.3.22l4.34.65c.22,0,.22,0,.22.22a31.33,31.33,0,0,0,1.08,4.77c.22,0,0,.22,0,.22-1.51.86-3,1.95-4.55,3l-.22.22a43.8,43.8,0,0,0,2.39,4.55h.21a50.76,50.76,0,0,0,5.43-1.51c0-.22.21,0,.21,0a18.86,18.86,0,0,0,3,3.9v.21C23.5,67,22.85,68.32,22,69.84c-.21.22-.21.44-.43.65a19.66,19.66,0,0,0,4.12,3.26l.22-.22c1.3-1.09,2.82-2.39,4.12-3.69h.22a27.49,27.49,0,0,0,3.68,1.74c.44.21.65.21,1.09.43v.65c0,1.52-.22,3.26-.22,4.77v.44c0,.21.22.21.44.21.43,0,.65.22,1.08.22.87.22,1.52.22,2.17.43h.22c.43,0,.86.22,1.3.22h.21c.65-1.52,1.09-2.82,1.74-4.34.21-.21.21-.65.43-1.08h2.39V66.37a28.62,28.62,0,0,1-4.34-.43,19.21,19.21,0,0,1-5-1.74,19.93,19.93,0,0,1-9.11-9.76,20.11,20.11,0,0,1,1.74-19.51,20.43,20.43,0,0,1,16.7-8.68V19.09c-.87,0-1.74.22-2.6.22-.22,0-.22,0-.22-.22a28.38,28.38,0,0,1-1.52-3.9,10.11,10.11,0,0,0-.65-1.51c-1.73.21-3.47.65-5,.86v.22c.22,2,.22,3.69.44,5.64,0,.22,0,.22-.22.22a27,27,0,0,0-4.34,2.16h-.22c-1.3-1.08-2.6-2.38-4.12-3.68l-.21-.22C24.59,20,23.29,21.05,22,22.13v.22c.86,1.52,2,3.25,2.82,4.77v.22a47.45,47.45,0,0,0-3,3.9h-.22c-.65-.22-1.08-.22-1.73-.43-1.3-.44-2.6-.65-3.9-1.09a.21.21,0,0,0-.22.21h0A26.1,26.1,0,0,0,14,33.41c-.22.43-.22.87-.44.87l.22.21c1.73,1.09,3.25,2.17,4.77,3.26V38a3,3,0,0,0-.43,1.3c-.22.87-.44,2-.65,2.82a1.28,1.28,0,0,0-.22.87c-1.95.43-3.9.65-5.86,1.08h0A11.6,11.6,0,0,1,10.71,48.81Z"/><line id="Line_54" data-name="Line 54" class="cls-1" x1="50.83" y1="46.21" x2="84.01" y2="46.21"/></g></g></svg>