<svg id="Layer_1" data-name="Layer 1" xmlns="http://www.w3.org/2000/svg" viewBox="0 0 97.44 88.88"><defs><style>.cls-1,.cls-2{fill:none;stroke:#ed5623;stroke-linecap:round;stroke-linejoin:round;}.cls-1{stroke-width:2.25px;}.cls-2{stroke-width:2.25px;}</style></defs><title>Artboard 6 copy</title><g id="Group_535" data-name="Group 535"><line id="Line_21" data-name="Line 21" class="cls-1" x1="75.52" y1="18.99" x2="67.1" y2="27.42"/><line id="Line_22" data-name="Line 22" class="cls-1" x1="89.81" y1="36.86" x2="83.17" y2="43.75"/><path id="Path_234" data-name="Path 234" class="cls-1" d="M74.24,52.68l-3.06,2.81a4.08,4.08,0,0,1-1.28,5.1"/><path id="Path_235" data-name="Path 235" class="cls-1" d="M22.18,52.68l3.06,2.81A4.66,4.66,0,0,0,27,60.59"/><path id="Path_236" data-name="Path 236" class="cls-1" d="M58.42,36.86a32.86,32.86,0,0,1-4.08,3.83c-1.28,1.27-2.81,2-4.09,1-1-1-3.06-2-6.12-.26a75.15,75.15,0,0,0-10.21,7.92c-1.53,1.53-1.28,3.06,0,4.59a4.22,4.22,0,0,0,5.1.51c1.79-1.28,3.06-2.3,11-7.4,0,0,17.61,11.48,20.93,14.29C74.49,64.17,75,67,73,69.27s-4.59,2.3-5.87,1c0,0,1.53,1.53-.25,3.58s-3.83,2.8-5.62,1c0,0,.77,1.53-1,3.31s-3.57,2-5.36.51c0,0,1,1.28-.76,3.07s-3.32,1.53-4.85.25a14.46,14.46,0,0,1-1.79-1.53"/><path id="Path_237" data-name="Path 237" class="cls-1" d="M47.7,80.24a14.53,14.53,0,0,1-1.79,2.05c-1.27,1.27-2.55,1.53-4.08-.26S41.32,79,41.32,79c-1.53,1.53-3.06,1.27-4.59-.51A3.55,3.55,0,0,1,36,74.89c-1.53,1.78-3.32,1-4.85-1-1.53-2.3-.25-3.82-.25-3.82-1.28,1.27-3.32,1.27-5.1-1.28s-1.28-4.85,1.53-7.91c.51-.51,3.57-3.06,4.59-2.55s3.32,1,10.46,9.7S47.7,80.24,47.7,80.24Z"/><rect id="Rectangle_312" data-name="Rectangle 312" class="cls-2" x="64.54" y="26.63" width="12.5" height="27.31" transform="translate(-7.75 61.86) rotate(-45)"/><circle id="Ellipse_10" data-name="Ellipse 10" class="cls-1" cx="75.52" cy="47.32" r="0.77"/><line id="Line_23" data-name="Line 23" class="cls-1" x1="20.9" y1="18.74" x2="29.58" y2="27.16"/><line id="Line_24" data-name="Line 24" class="cls-1" x1="7.63" y1="37.62" x2="13.5" y2="43.49"/><rect id="Rectangle_313" data-name="Rectangle 313" class="cls-2" x="11.89" y="33.79" width="27.31" height="12.5" transform="translate(-20.83 29.79) rotate(-45)"/><circle id="Ellipse_11" data-name="Ellipse 11" class="cls-1" cx="20.9" cy="47.07" r="0.77"/><line id="Line_25" data-name="Line 25" class="cls-1" x1="37.75" y1="36.86" x2="42.85" y2="41.96"/></g></svg>