<svg id="Layer_1" data-name="Layer 1" xmlns="http://www.w3.org/2000/svg" viewBox="0 0 97.44 88.88"><defs><style>.cls-1{fill:none;stroke:#ed5623;stroke-linecap:round;stroke-linejoin:round;stroke-width:2.25px;}</style></defs><title>Artboard 6 copy 6</title><g id="Group_544" data-name="Group 544"><g id="Group_542" data-name="Group 542"><path id="Path_251" data-name="Path 251" class="cls-1" d="M28.45,56.59H25.88A23.06,23.06,0,0,0,2.82,79.65H51.51A23.05,23.05,0,0,0,28.45,56.59Z"/><circle id="Ellipse_20" data-name="Ellipse 20" class="cls-1" cx="27.33" cy="42.54" r="14.05"/></g><g id="Group_543" data-name="Group 543"><path id="Path_252" data-name="Path 252" class="cls-1" d="M79.4,20,88,44.22s-10.5-3.85-25.28,1.72l-3.85-10.5C58.63,35.23,74.47,30.73,79.4,20Z"/><path id="Path_253" data-name="Path 253" class="cls-1" d="M58.63,35.23,52.2,37.59l-1.07,2.14-4.07,1.71,2.57,6.85L53.27,47l2.79,1.28,6.63-2.57"/><line id="Line_57" data-name="Line 57" class="cls-1" x1="90.32" y1="30.09" x2="94.82" y2="28.59"/><line id="Line_58" data-name="Line 58" class="cls-1" x1="88.18" y1="25.59" x2="90.11" y2="23.24"/><line id="Line_59" data-name="Line 59" class="cls-1" x1="91.82" y1="35.44" x2="94.82" y2="36.3"/><path id="Path_254" data-name="Path 254" class="cls-1" d="M52.2,47.44l6.43,12.42,9.2-3.21s-4.06-2.36-6.63-10.28"/></g></g></svg>