<svg id="Layer_1" data-name="Layer 1" xmlns="http://www.w3.org/2000/svg" viewBox="0 0 97.44 88.88"><defs><style>.cls-1{fill:none;stroke:#ed5623;stroke-linecap:round;stroke-linejoin:round;stroke-width:2.25px;}</style></defs><title>Artboard 6 copy 9</title><g id="Group_558" data-name="Group 558"><g id="Group_556" data-name="Group 556"><path id="Path_261" data-name="Path 261" class="cls-1" d="M75.52,23.65l5.72,16.17s-7-2.57-16.89,1.15l-2.57-7C61.63,33.81,72.23,30.81,75.52,23.65Z"/><path id="Path_262" data-name="Path 262" class="cls-1" d="M61.63,33.81l-4.29,1.57-.72,1.44L53.91,38l1.71,4.58,2.44-.86,1.86.86,4.43-1.72"/><line id="Line_67" data-name="Line 67" class="cls-1" x1="82.82" y1="30.38" x2="85.82" y2="29.37"/><line id="Line_68" data-name="Line 68" class="cls-1" x1="81.39" y1="27.37" x2="82.67" y2="25.8"/><line id="Line_69" data-name="Line 69" class="cls-1" x1="83.82" y1="33.95" x2="85.82" y2="34.53"/><path id="Path_263" data-name="Path 263" class="cls-1" d="M57.34,42l4.29,8.3,6.16-2.15s-2.72-1.57-4.44-6.87"/></g><g id="Group_557" data-name="Group 557"><rect id="Rectangle_323" data-name="Rectangle 323" class="cls-1" x="35.2" y="60.79" width="7.91" height="18.38"/><path id="Path_264" data-name="Path 264" class="cls-1" d="M43.11,62.94s5.63-7,6.38-8a7.92,7.92,0,0,0,1-4.15c.14-1.82.37-2.4,1.33-2.78s2.07.69,2.76,1.86A6,6,0,0,1,55.45,55l-1.6,5.41h9.51a2.27,2.27,0,0,1,2.4,2.12v.28c0,2.19-1.5,2.74-2,2.74,0,0,2.3.24,2.3,2.37s-1.39,2.55-2.67,2.55A2.66,2.66,0,0,1,65,72.74c0,1.39-1.23,2.31-2.78,2.31a2.08,2.08,0,0,1,1.82,2c0,1.39-1.23,2.1-2.73,2.1H50.21a10.24,10.24,0,0,1-7.1-2.46"/></g><path id="Path_265" data-name="Path 265" class="cls-1" d="M43,49.49H31.09L21.75,54V49.49a3.29,3.29,0,0,1-3.29-3.29v-15a3.28,3.28,0,0,1,3.29-3.28H43a3.28,3.28,0,0,1,3.29,3.28v15A3.29,3.29,0,0,1,43,49.49Z"/><path id="Path_266" data-name="Path 266" class="cls-1" d="M74.42,45.76a24.46,24.46,0,0,1-2.91,17.52"/><path id="Path_267" data-name="Path 267" class="cls-1" d="M50.54,26.41a24.18,24.18,0,0,1,10.51,2.37"/><path id="Path_268" data-name="Path 268" class="cls-1" d="M30.77,65.1A24.22,24.22,0,0,1,27,57.2"/></g></svg>