<svg id="Layer_1" data-name="Layer 1" xmlns="http://www.w3.org/2000/svg" viewBox="0 0 97.44 88.88"><defs><style>.cls-1{fill:none;stroke:#ed5623;stroke-linecap:round;stroke-linejoin:round;stroke-width:2.25px;}</style></defs><title>Artboard 6 copy 7</title><g id="Group_552" data-name="Group 552"><path id="Path_255" data-name="Path 255" class="cls-1" d="M48,13.65l9.78,19.82L79.6,36.64,63.78,52.07l3.73,21.78L48,63.56,28.39,73.84l3.74-21.78L16.3,36.64l21.87-3.18Z"/><path id="Path_256" data-name="Path 256" class="cls-1" d="M48,13.65l9.78,19.82L79.6,36.64,63.78,52.07l3.73,21.78L48,63.56,28.39,73.84l3.74-21.78L16.3,36.64l21.87-3.18Z"/><line id="Line_60" data-name="Line 60" class="cls-1" x1="66.21" y1="20.64" x2="61.84" y2="26.89"/><line id="Line_61" data-name="Line 61" class="cls-1" x1="29.38" y1="20.64" x2="33.75" y2="26.89"/><line id="Line_62" data-name="Line 62" class="cls-1" x1="48.03" y1="71.11" x2="47.87" y2="78.73"/><line id="Line_63" data-name="Line 63" class="cls-1" x1="17.48" y1="56.05" x2="25.4" y2="53.55"/><line id="Line_64" data-name="Line 64" class="cls-1" x1="81.14" y1="56.05" x2="73.23" y2="53.55"/><circle id="Ellipse_21" data-name="Ellipse 21" class="cls-1" cx="47.87" cy="47.04" r="10.42"/><path id="Path_259" data-name="Path 259" class="cls-1" d="M52.29,50.63a5.7,5.7,0,1,1-.82-8,5.43,5.43,0,0,1,1.06,1.13"/></g></svg>