<svg id="Layer_1" data-name="Layer 1" xmlns="http://www.w3.org/2000/svg" viewBox="0 0 97.44 88.88"><defs><style>.cls-1{fill:none;stroke:#ed5623;stroke-linecap:round;stroke-linejoin:round;stroke-width:2.25px;}</style></defs><title>Artboard 6 copy 10</title><g id="Group_570" data-name="Group 570"><path id="Path_275" data-name="Path 275" class="cls-1" d="M39.42,43.48h-8v6.76h8v5l10-8.41-10-8.41Z"/><g id="Group_567" data-name="Group 567"><path id="Path_276" data-name="Path 276" class="cls-1" d="M20.79,58.48l-4.18,2.67a26.86,26.86,0,0,0,8.48,8.36L27.7,65.3"/><path id="Path_277" data-name="Path 277" class="cls-1" d="M57.58,35l4.18-2.67A27,27,0,0,0,53.26,24l-2.6,4.22"/><path id="Path_278" data-name="Path 278" class="cls-1" d="M27.45,28.36l-2.67-4.18a26.76,26.76,0,0,0-8.36,8.48l4.22,2.61"/><path id="Path_279" data-name="Path 279" class="cls-1" d="M17.87,42,13,41a26.47,26.47,0,0,0,.07,11.78c0,.1.05.21.07.32l2.44-.77,2.32-.59"/><path id="Path_280" data-name="Path 280" class="cls-1" d="M34.47,68.07,33.39,72.9a26.93,26.93,0,0,0,11.89-.07l.57-.2L44.33,68"/><path id="Path_281" data-name="Path 281" class="cls-1" d="M50.91,65.17l2.66,4.18A27,27,0,0,0,62,60.88l-4.21-2.62"/><path id="Path_282" data-name="Path 282" class="cls-1" d="M65.31,40.83l-.08-.34-4.78,1.3"/><line id="Line_76" data-name="Line 76" class="cls-1" x1="60.51" y1="51.5" x2="65.34" y2="52.58"/><path id="Path_283" data-name="Path 283" class="cls-1" d="M43.89,25.43,45,20.59a26.79,26.79,0,0,0-11.82.08l-.13,0,1.22,4.8"/><path id="Path_284" data-name="Path 284" class="cls-1" d="M17.91,42.1a21.5,21.5,0,0,1,2.78-6.8"/><path id="Path_285" data-name="Path 285" class="cls-1" d="M20.79,58.48A21.45,21.45,0,0,1,18,51.71"/><path id="Path_286" data-name="Path 286" class="cls-1" d="M34.46,68.09a21.7,21.7,0,0,1-6.78-2.77"/><path id="Path_287" data-name="Path 287" class="cls-1" d="M50.91,65.2A21.59,21.59,0,0,1,44.34,68"/><path id="Path_288" data-name="Path 288" class="cls-1" d="M60.49,51.5a21.48,21.48,0,0,1-2.74,6.77"/><path id="Path_289" data-name="Path 289" class="cls-1" d="M57.43,34.85a21.52,21.52,0,0,1,3,6.94"/><path id="Path_290" data-name="Path 290" class="cls-1" d="M43.78,25.5a21.49,21.49,0,0,1,6.84,2.74"/><path id="Path_291" data-name="Path 291" class="cls-1" d="M27.49,28.42a21.75,21.75,0,0,1,6.76-2.84"/></g><path id="Path_292" data-name="Path 292" class="cls-1" d="M56.21,46.86A17.23,17.23,0,1,1,39,29.64h0A17.23,17.23,0,0,1,56.21,46.86Z"/><g id="Group_569" data-name="Group 569"><g id="Group_568" data-name="Group 568"><line id="Line_77" data-name="Line 77" class="cls-1" x1="76.24" y1="39.31" x2="76.24" y2="53.76"/><path id="Path_293" data-name="Path 293" class="cls-1" d="M72.24,51.08s1.08,1.26,4,1.26S80,50.77,80,49.51s-.57-2.41-3.77-3.28c-3.55-1-3.45-2.78-3.45-3.18,0-.9.55-2.53,3.33-2.53a7.47,7.47,0,0,1,3.23.61"/></g><circle id="Ellipse_23" data-name="Ellipse 23" class="cls-1" cx="76.24" cy="46.23" r="12.03"/></g></g></svg>