<svg id="Layer_1" data-name="Layer 1" xmlns="http://www.w3.org/2000/svg" viewBox="0 0 97.44 88.88"><defs><style>.cls-1{fill:none;stroke:#ed5623;stroke-linecap:round;stroke-linejoin:round;stroke-width:2.25px;}</style></defs><title>Artboard 6 copy 8</title><g id="Group_555" data-name="Group 555"><g id="Group_553" data-name="Group 553"><rect id="Rectangle_320" data-name="Rectangle 320" class="cls-1" x="11.72" y="17.65" width="73" height="54.01"/><rect id="Rectangle_321" data-name="Rectangle 321" class="cls-1" x="16.9" y="22.93" width="62.65" height="43.44"/><rect id="Rectangle_322" data-name="Rectangle 322" class="cls-1" x="32.81" y="41.53" width="7.91" height="18.38"/><path id="Path_260" data-name="Path 260" class="cls-1" d="M40.72,43.68s5.63-7,6.38-8a8.15,8.15,0,0,0,1-4.16c.14-1.82.36-2.4,1.32-2.77s2.07.68,2.77,1.86a5.93,5.93,0,0,1,.81,5.12c-.69,2.36-1.6,5.41-1.6,5.41H61a2.26,2.26,0,0,1,2.4,2.11,1.41,1.41,0,0,1,0,.29c0,2.19-1.5,2.74-2,2.74,0,0,2.3.23,2.3,2.37S62.24,51.22,61,51.22a2.62,2.62,0,0,1,1.6,2.26c0,1.39-1.23,2.31-2.78,2.31a2.08,2.08,0,0,1,1.82,2c0,1.39-1.23,2.11-2.73,2.11h-11a10.24,10.24,0,0,1-7.1-2.46"/></g><g id="Group_554" data-name="Group 554"><line id="Line_65" data-name="Line 65" class="cls-1" x1="35.31" y1="71.78" x2="33.49" y2="79"/><line id="Line_66" data-name="Line 66" class="cls-1" x1="61.13" y1="71.78" x2="62.95" y2="79"/></g></g></svg>