<svg id="Layer_1" data-name="Layer 1" xmlns="http://www.w3.org/2000/svg" viewBox="0 0 97.44 88.88"><defs><style>.cls-1{fill:none;stroke:#ed5623;stroke-linecap:round;stroke-linejoin:round;stroke-width:2.25px;}</style></defs><title>Artboard 6 copy 11</title><g id="Group_563" data-name="Group 563"><rect id="Rectangle_324" data-name="Rectangle 324" class="cls-1" x="15.35" y="62.89" width="6.26" height="7.44"/><rect id="Rectangle_325" data-name="Rectangle 325" class="cls-1" x="29.98" y="62.89" width="6.26" height="7.44"/><rect id="Rectangle_326" data-name="Rectangle 326" class="cls-1" x="44.61" y="59.97" width="6.26" height="10.36"/><rect id="Rectangle_327" data-name="Rectangle 327" class="cls-1" x="59.24" y="52.15" width="6.26" height="18.18"/><rect id="Rectangle_328" data-name="Rectangle 328" class="cls-1" x="73.87" y="19.6" width="6.26" height="50.73"/><g id="Group_559" data-name="Group 559"><path id="Path_269" data-name="Path 269" class="cls-1" d="M15.35,42.16,38.61,31.28h9.47L65.67,13.7V19"/><line id="Line_70" data-name="Line 70" class="cls-1" x1="60.3" y1="13.7" x2="65.67" y2="13.7"/></g><line id="Line_71" data-name="Line 71" class="cls-1" x1="81.21" y1="75.09" x2="13.72" y2="75.09"/><g id="Group_560" data-name="Group 560"><line id="Line_72" data-name="Line 72" class="cls-1" x1="33.22" y1="44.95" x2="33.22" y2="59.4"/><path id="Path_270" data-name="Path 270" class="cls-1" d="M29.22,56.72S30.3,58,33.22,58,37,56.41,37,55.15s-.57-2.41-3.78-3.28c-3.55-1-3.45-2.78-3.45-3.18,0-.9.56-2.53,3.34-2.53a7.77,7.77,0,0,1,3.23.61"/></g><g id="Group_561" data-name="Group 561"><line id="Line_73" data-name="Line 73" class="cls-1" x1="47.58" y1="42.16" x2="47.58" y2="56.61"/><path id="Path_271" data-name="Path 271" class="cls-1" d="M43.58,53.93s1.08,1.26,4,1.26,3.77-1.57,3.77-2.82-.57-2.42-3.77-3.29c-3.55-1-3.45-2.78-3.45-3.18,0-.9.55-2.53,3.33-2.53a7.77,7.77,0,0,1,3.23.61"/></g><g id="Group_562" data-name="Group 562"><line id="Line_74" data-name="Line 74" class="cls-1" x1="62.48" y1="32.28" x2="62.48" y2="46.73"/><path id="Path_272" data-name="Path 272" class="cls-1" d="M58.48,44.05s1.08,1.26,4,1.26,3.77-1.57,3.77-2.83-.56-2.41-3.77-3.28C58.93,38.24,59,36.42,59,36c0-.9.55-2.53,3.33-2.53a7.66,7.66,0,0,1,3.24.61"/></g></g></svg>