<svg id="Layer_1" data-name="Layer 1" xmlns="http://www.w3.org/2000/svg" viewBox="0 0 97.44 88.88"><defs><style>.cls-1{fill:none;stroke:#ed5623;stroke-linecap:round;stroke-linejoin:round;stroke-width:2.25px;}</style></defs><title>Artboard 6 copy 12</title><g id="Group_566" data-name="Group 566"><g id="Group_565" data-name="Group 565"><g id="Group_564" data-name="Group 564"><line id="Line_75" data-name="Line 75" class="cls-1" x1="42.74" y1="23.71" x2="42.74" y2="44.52"/><path id="Path_273" data-name="Path 273" class="cls-1" d="M37,40.66s1.57,1.82,5.77,1.82,5.44-2.27,5.44-4.08-.82-3.48-5.44-4.73c-5.11-1.38-5-4-5-4.58,0-1.29.8-3.64,4.8-3.64a11,11,0,0,1,4.66.88"/></g><circle id="Ellipse_22" data-name="Ellipse 22" class="cls-1" cx="42.74" cy="34.2" r="17.33"/></g><path id="Path_274" data-name="Path 274" class="cls-1" d="M59.24,39h0A9.08,9.08,0,1,1,63,56.74a8.9,8.9,0,0,1-1.86.2H33.33V45L14,61.45l19.3,16.42V65.23H61.09a17.38,17.38,0,0,0,0-34.75c-.47,0-.94,0-1.41.06"/></g></svg>