<?xml version="1.0" encoding="UTF-8"?>
<svg width="40px" height="40px" viewBox="0 0 40 40" version="1.1" xmlns="http://www.w3.org/2000/svg" xmlns:xlink="http://www.w3.org/1999/xlink">
    <!-- Generator: Sketch 53.2 (72643) - https://sketchapp.com -->
    <title>linkedin</title>
    <desc>Created with Sketch.</desc>
    <defs>
        <polygon id="path-1" points="8.88888889e-05 0.107644444 39.8924444 0.107644444 39.8924444 40 8.88888889e-05 40"></polygon>
    </defs>
    <g id="Page-1" stroke="none" stroke-width="1" fill="none" fill-rule="evenodd">
        <g id="Homepage" transform="translate(-1160.000000, -5880.000000)">
            <g id="Footer" transform="translate(0.000000, 5759.000000)">
                <g id="linkedin" transform="translate(1160.000000, 121.000000)">
                    <path d="M21.8781481,17.4462963 L21.8781481,17.3685185 C21.8633333,17.3944444 21.8403704,17.4203704 21.8255556,17.4462963 L21.8781481,17.4462963 Z" id="Fill-1" fill="#F1F2F2"></path>
                    <g id="Group-5">
                        <mask id="mask-2" fill="white">
                            <use xlink:href="#path-1"></use>
                        </mask>
                        <g id="Clip-4"></g>
                        <path d="M31.8627556,29.8818667 L27.0956444,29.8818667 L27.0956444,22.2098667 C27.0956444,20.2827556 26.4080889,18.9672 24.6805333,18.9672 C23.3645333,18.9672 22.5818667,19.8543111 22.2360889,20.7120889 C22.1094222,21.0174222 22.0783111,21.4427556 22.0783111,21.8729778 L22.0783111,29.8818667 L17.3089778,29.8818667 C17.3089778,29.8818667 17.3734222,16.8872 17.3089778,15.5418667 L22.0783111,15.5418667 L22.0783111,17.5747556 C22.7120889,16.5992 23.8423111,15.2049778 26.3752,15.2049778 C29.5120889,15.2049778 31.8627556,17.2552 31.8627556,21.6578667 L31.8627556,29.8818667 Z M12.2898667,13.5849778 L12.2605333,13.5849778 C10.6596444,13.5849778 9.62497778,12.4845333 9.62497778,11.1076444 C9.62497778,9.70142222 10.6912,8.63031111 12.3232,8.63031111 C13.9534222,8.63031111 14.9565333,9.70142222 14.9880889,11.1076444 C14.9880889,12.4845333 13.9534222,13.5849778 12.2898667,13.5849778 L12.2898667,13.5849778 Z M9.90808889,29.8818667 L14.6738667,29.8818667 L14.6738667,15.5418667 L9.90808889,15.5418667 L9.90808889,29.8818667 Z M19.9463111,0.107644444 C8.93075556,0.107644444 8.88888889e-05,9.03831111 8.88888889e-05,20.0538667 C8.88888889e-05,31.0694222 8.93075556,40.0000889 19.9463111,40.0000889 C30.9618667,40.0000889 39.8925333,31.0694222 39.8925333,20.0538667 C39.8925333,9.03831111 30.9618667,0.107644444 19.9463111,0.107644444 L19.9463111,0.107644444 Z" id="Fill-3" fill="#F1F2F2" mask="url(#mask-2)"></path>
                    </g>
                </g>
            </g>
        </g>
    </g>
</svg>