<?xml version="1.0" encoding="utf-8"?>
<!-- Generator: Adobe Illustrator 23.1.1, SVG Export Plug-In . SVG Version: 6.00 Build 0)  -->
<svg version="1.1" id="Layer_1" xmlns="http://www.w3.org/2000/svg" xmlns:xlink="http://www.w3.org/1999/xlink" x="0px" y="0px"
	 viewBox="0 0 20.9 20.9" style="enable-background:new 0 0 20.9 20.9;" xml:space="preserve">
<style type="text/css">
	.st0{fill:#0A395A;}
	.st1{fill:#FFFFFF;}
</style>
<g id="Group_501" transform="translate(-796.248 -859.009)">
	<ellipse id="Ellipse_3" class="st0" cx="806.7" cy="869.5" rx="10.4" ry="10.4"/>
	<g id="Group_500" transform="translate(871.341 865.872)">
		<path id="Path_198" class="st1" d="M-60.5,0.1"/>
		<path id="Path_199" class="st1" d="M-60.9,1c-0.1,0-0.2,0-0.3,0l0,0c0.3-0.2,0.5-0.5,0.7-0.8c0-0.1,0-0.1,0-0.1l-0.6,0.2l-0.5,0.2
			l0,0C-62,0.2-62.5,0-63,0c-0.9-0.1-1.7,0.6-1.8,1.6c0,0.2,0,0.4,0.1,0.6c0,0,0,0,0,0c-0.8-0.1-1.5-0.3-2.2-0.7
			c-1.5-0.7-1.5-1.2-1.5-1.2c-0.3,0.5-0.3,1.1-0.1,1.7c0.2,0.3,0.4,0.6,0.7,0.8l0,0c-0.2,0-0.3,0-0.5-0.1c-0.1,0-0.2-0.1-0.3-0.2
			c-0.1,0.3,0.1,1,0.6,1.4c0.2,0.2,0.5,0.3,0.8,0.4l-0.8,0c0,0.8,1.7,1.3,1.7,1.3l0,0c-0.5,0.4-1.1,0.6-1.7,0.6
			c-0.3,0-0.6,0-0.9-0.1c0.8,0.7,1.9,1.1,3,1.1c2.8-0.2,4.9-2.6,4.9-5.4v0c0.2-0.1,0.3-0.2,0.4-0.4c0.2-0.2,0.4-0.4,0.5-0.7
			C-60.2,0.8-60.7,1-60.9,1z"/>
		<path id="Path_200" class="st1" d="M-60.5,0.1C-60.5,0.2-60.5,0.1-60.5,0.1z"/>
	</g>
</g>
</svg>
