<?xml version="1.0" encoding="utf-8"?>
<!-- Generator: Adobe Illustrator 23.1.1, SVG Export Plug-In . SVG Version: 6.00 Build 0)  -->
<svg version="1.1" id="Layer_1" xmlns="http://www.w3.org/2000/svg" xmlns:xlink="http://www.w3.org/1999/xlink" x="0px" y="0px"
	 viewBox="0 0 20.9 20.9" style="enable-background:new 0 0 20.9 20.9;" xml:space="preserve">
<style type="text/css">
	.st0{fill:#0A395A;}
	.st1{fill:#FFFFFF;}
	.st2{fill-rule:evenodd;clip-rule:evenodd;fill:#FFFFFF;}
</style>
<g id="Group_502" transform="translate(-804.248 -859.009)">
	<ellipse id="Ellipse_2" class="st0" cx="814.7" cy="869.5" rx="10.4" ry="10.4"/>
	<g id="Group_498" transform="translate(845.58 864.322)">
		<rect id="Rectangle_306" x="-34.9" y="2.7" class="st1" width="1.7" height="5.4"/>
		<path id="Path_196" class="st2" d="M-33,1c0,0.6-0.4,1-1,1s-1-0.4-1-1s0.4-1,1-1S-33,0.4-33,1z"/>
		<path id="Path_197" class="st2" d="M-28.5,2.5c-0.7-0.1-1.4,0.3-1.8,0.8V2.7h-1.7v5.4h1.7V5c0,0,0.1-1,1-1s0.9,0.9,0.9,1.1v3.1
			h1.7V5C-26.7,3.9-27.1,2.5-28.5,2.5z"/>
	</g>
</g>
</svg>
