<?xml version="1.0" encoding="UTF-8"?>
<svg width="40px" height="40px" viewBox="0 0 40 40" version="1.1" xmlns="http://www.w3.org/2000/svg" xmlns:xlink="http://www.w3.org/1999/xlink">
    <!-- Generator: Sketch 53.2 (72643) - https://sketchapp.com -->
    <title>twter</title>
    <desc>Created with Sketch.</desc>
    <defs>
        <polygon id="path-1" points="0 0 40 0 40 40 0 40"></polygon>
    </defs>
    <g id="Page-1" stroke="none" stroke-width="1" fill="none" fill-rule="evenodd">
        <g id="Homepage" transform="translate(-1076.000000, -5880.000000)">
            <g id="Footer" transform="translate(0.000000, 5759.000000)">
                <g id="twter" transform="translate(1076.000000, 121.000000)">
                    <mask id="mask-2" fill="white">
                        <use xlink:href="#path-1"></use>
                    </mask>
                    <g id="Clip-2"></g>
                    <path d="M29.8651931,16.8473356 C29.8736603,17.0527747 29.879008,17.2582137 29.879008,17.4654352 C29.879008,23.7823505 25.069186,31.0680823 16.2762094,31.0680823 C13.5765057,31.0680823 11.0644177,30.2757384 8.94939727,28.9196627 C9.32195459,28.9646721 9.70297912,28.985617 10.089797,28.985617 C12.330043,28.985617 14.3911406,28.2231308 16.0275407,26.9401397 C13.9352481,26.9018149 12.1700573,25.5198922 11.560418,23.6210296 C11.8532053,23.6762887 12.1526772,23.7061465 12.4606163,23.7061465 C12.8960093,23.7061465 13.3189242,23.6468766 13.7191114,23.5372497 C11.5327882,23.0982965 9.88435571,21.1660112 9.88435571,18.8513687 L9.88435571,18.7898707 C10.530092,19.1490547 11.2662938,19.3642977 12.0497337,19.3892534 C10.7685109,18.532292 9.92446356,17.068372 9.92446356,15.4092626 C9.92446356,14.5335844 10.1593173,13.712274 10.5719824,13.0054925 C12.9289868,15.8985728 16.4522382,17.8014461 20.4246975,18.0015375 C20.3426993,17.6517118 20.3012545,17.2858432 20.3012545,16.9115075 C20.3012545,14.2728863 22.4403396,12.1315968 25.0812184,12.1315968 C26.4564718,12.1315968 27.6993694,12.7113716 28.5714922,13.6409719 C29.6597518,13.4266202 30.6833931,13.02822 31.6076561,12.4814225 C31.2489137,13.5972994 30.4917668,14.5335844 29.5046681,15.125837 C30.4708215,15.0108624 31.393302,14.7532838 32.2498273,14.3736004 C31.6094387,15.331276 30.7997059,16.1735313 29.8651931,16.8473356 M20,0 C8.95474498,0 0,8.95464522 0,19.9997772 C0,31.0449091 8.95474498,40 20,40 C31.045255,40 40,31.0449091 40,19.9997772 C40,8.95464522 31.045255,0 20,0" id="Fill-1" fill="#F1F2F2" mask="url(#mask-2)"></path>
                </g>
            </g>
        </g>
    </g>
</svg>