<?xml version="1.0" encoding="utf-8"?>
<!-- Generator: Adobe Illustrator 23.1.1, SVG Export Plug-In . SVG Version: 6.00 Build 0)  -->
<svg version="1.1" id="Layer_1" xmlns="http://www.w3.org/2000/svg" xmlns:xlink="http://www.w3.org/1999/xlink" x="0px" y="0px"
	 viewBox="0 0 30 30" style="enable-background:new 0 0 30 30;" xml:space="preserve">
<style type="text/css">
	.st0{fill:#F37422;}
	.st1{fill:none;stroke:#F37422;stroke-width:1.117;stroke-linecap:round;stroke-miterlimit:10;}
</style>
<path class="st0" d="M26.12,23.02H3.91c-0.43,0-0.85-0.21-1.08-0.53c-0.19-0.26-0.24-0.57-0.14-0.86l0.65-2.04
	c0.91-2.89,2.31-4.61,4.18-5.12c-1.11-0.48-1.89-1.59-1.89-2.88c0-1.73,1.4-3.16,3.14-3.18h0.01c1.18,0.01,2.22,0.68,2.77,1.65
	c0.19-1.74,1.64-3.07,3.39-3.07c0.95,0,1.78,0.34,2.43,0.99c0.62,0.61,0.97,1.41,1.02,2.27c0.5-1.07,1.59-1.82,2.84-1.83h0
	c1.75,0,3.18,1.43,3.18,3.18c-0.01,1.29-0.8,2.4-1.92,2.88c1.86,0.5,3.24,2.19,4.2,5.12l0.62,2.06c0.09,0.28,0.04,0.59-0.15,0.85
	C26.93,22.81,26.52,23.02,26.12,23.02z M26.24,21.97C26.25,21.98,26.25,21.98,26.24,21.97L26.24,21.97z M3.75,21.97L3.75,21.97
	C3.75,21.98,3.75,21.97,3.75,21.97z M21.68,21.9h4.44c0.03,0,0.06-0.01,0.09-0.03l-0.59-1.95c-1.02-3.1-2.44-4.52-4.47-4.5
	c-0.64,0-1.26,0.18-1.79,0.52c0.61,0.88,1.13,2,1.55,3.35l0.73,2.27C21.68,21.67,21.69,21.79,21.68,21.9z M9.99,21.9h10.34
	c0.08,0,0.17-0.04,0.22-0.08l-0.71-2.2c-1.06-3.4-2.66-5.05-4.91-5.05c-2.23,0-3.79,1.6-4.91,5.05l-0.68,2.22
	c0.04,0.03,0.11,0.06,0.18,0.06H9.99z M3.79,21.87c0.04,0.02,0.08,0.03,0.13,0.03h4.3c0-0.13,0.02-0.26,0.07-0.38l0.68-2.23
	c0.45-1.38,0.98-2.51,1.6-3.4c-0.53-0.32-1.14-0.48-1.77-0.47c-2,0-3.43,1.48-4.38,4.51L3.79,21.87z M9.34,21.89L9.34,21.89
	C9.34,21.89,9.34,21.89,9.34,21.89z M16.21,13.61c0.92,0.23,1.73,0.72,2.45,1.46c0.41-0.28,0.86-0.48,1.33-0.61
	c-1.05-0.46-1.8-1.47-1.89-2.66c-0.17,0.38-0.4,0.72-0.7,1.02C17.06,13.17,16.65,13.44,16.21,13.61z M10.05,14.46
	c0.43,0.12,0.85,0.31,1.23,0.56c0.71-0.73,1.51-1.2,2.41-1.42c-0.42-0.17-0.81-0.42-1.14-0.75c-0.25-0.25-0.46-0.53-0.63-0.84
	C11.76,13.11,11.03,14.03,10.05,14.46z M8.78,9.52c-1.12,0.02-2.03,0.94-2.03,2.06c0,1.12,0.91,2.03,2.03,2.03c0,0,0,0,0,0
	c1.12,0,2.04-0.91,2.06-2.03C10.83,10.46,9.9,9.54,8.78,9.52z M21.23,9.52c-1.11,0.01-2.01,0.92-2.02,2.02
	c-0.01,1.13,0.9,2.05,2.02,2.06c0.01,0,0.01,0,0.02,0c1.12,0,2.03-0.9,2.04-2.02C23.29,10.45,22.37,9.52,21.23,9.52z M14.94,8.1
	c-1.26,0-2.29,1.03-2.29,2.3c0.01,1.3,1.05,2.33,2.31,2.33c0.01,0,0.01,0,0.02,0c0.62,0,1.2-0.25,1.63-0.69s0.67-1.02,0.67-1.64
	s-0.25-1.2-0.69-1.63C16.14,8.33,15.52,8.08,14.94,8.1L14.94,8.1z"/>
</svg>
