<?xml version="1.0" encoding="utf-8"?>
<!-- Generator: Adobe Illustrator 23.1.1, SVG Export Plug-In . SVG Version: 6.00 Build 0)  -->
<svg version="1.1" id="Layer_1" xmlns="http://www.w3.org/2000/svg" xmlns:xlink="http://www.w3.org/1999/xlink" x="0px" y="0px"
	 viewBox="0 0 30 30" style="enable-background:new 0 0 30 30;" xml:space="preserve">
<style type="text/css">
	.st0{fill:#F37422;}
</style>
<g id="Group_178" transform="translate(-389.563 219.614)">
	<circle id="Ellipse_9" class="st0" cx="404.38" cy="-197.17" r="1.64"/>
	<g id="Group_177">
		<g id="Group_176">
			<g id="Group_173">
				<path class="st0" d="M416.15-207.49c-0.15,0-0.3-0.06-0.41-0.18c-5.9-6.27-15.79-6.57-22.06-0.68c-0.11,0.1-0.21,0.2-0.31,0.3
					c-0.22,0.22-0.57,0.22-0.79,0c-0.22-0.22-0.22-0.57,0-0.79c0.11-0.11,0.22-0.22,0.34-0.33c6.72-6.32,17.32-5.99,23.64,0.72
					c0.21,0.22,0.2,0.58-0.02,0.79C416.42-207.54,416.29-207.49,416.15-207.49z"/>
			</g>
			<g id="Group_174">
				<path class="st0" d="M412.53-204.2c-0.14,0-0.29-0.06-0.4-0.17c-4.14-4.2-10.99-4.31-15.26-0.25c-0.22,0.21-0.58,0.2-0.79-0.02
					c-0.21-0.22-0.2-0.58,0.02-0.79c4.71-4.48,12.26-4.36,16.82,0.27c0.22,0.22,0.21,0.57-0.01,0.79
					C412.81-204.26,412.67-204.2,412.53-204.2z"/>
			</g>
			<g id="Group_175">
				<path class="st0" d="M408.76-200.75c-0.14,0-0.28-0.05-0.39-0.16c-2.17-2.15-5.62-2.2-7.85-0.12c-0.23,0.21-0.58,0.2-0.79-0.03
					c-0.21-0.23-0.2-0.58,0.03-0.79c2.67-2.49,6.8-2.43,9.4,0.15c0.22,0.22,0.22,0.57,0,0.79
					C409.05-200.8,408.91-200.75,408.76-200.75z"/>
			</g>
		</g>
	</g>
</g>
</svg>
