<?xml version="1.0" encoding="utf-8"?>
<!-- Generator: Adobe Illustrator 23.1.1, SVG Export Plug-In . SVG Version: 6.00 Build 0)  -->
<svg version="1.1" id="Layer_1" xmlns="http://www.w3.org/2000/svg" xmlns:xlink="http://www.w3.org/1999/xlink" x="0px" y="0px"
	 viewBox="0 0 107 91.9" style="enable-background:new 0 0 107 91.9;" xml:space="preserve">
<style type="text/css">
	.st0{fill:#0A395A;}
	.st1{fill:none;stroke:#0A395A;stroke-width:2.739;stroke-miterlimit:10;}
</style>
<g>
	<path id="Path_215" class="st0" d="M85.11,35.48l1.32,0.37c1.07,0.3,2.18-0.32,2.48-1.39c0.3-1.07-0.32-2.18-1.39-2.48l-1.32-0.37
		c-1.07-0.3-2.18,0.32-2.48,1.39C83.42,34.07,84.04,35.18,85.11,35.48L85.11,35.48L85.11,35.48z"/>
	<path id="Path_216" class="st0" d="M30.3,45.94c0-1.11-0.9-2.01-2.01-2.01h-3.32c-1.11,0-2.01,0.9-2.01,2.01
		c0,1.11,0.9,2.01,2.01,2.01l0,0h3.32C29.4,47.96,30.3,47.06,30.3,45.94C30.3,45.94,30.3,45.94,30.3,45.94z"/>
	<path id="Path_217" class="st0" d="M21.1,45.94c0-1.11-0.9-2.01-2.01-2.01H4.02v-3.44l39.27-11c0.21,4.35,0.47,9.3,0.79,14.45
		h-9.87c-1.11,0-2.01,0.9-2.01,2.01c0,1.11,0.9,2.01,2.01,2.01l0,0h10.13c0.09,1.33,0.18,2.66,0.28,3.99
		c0.56,7.62,1.17,14.18,1.82,19.61l-14.47,8.75c-0.69,0.42-1.06,1.2-0.95,2l0.78,5.62c0.14,0.99,0.99,1.73,1.99,1.73
		c0.12,0,0.23-0.01,0.34-0.03L49.25,87c1.11,3.5,2.42,4.89,4.25,4.89s3.14-1.39,4.25-4.89l15.09,2.64c0.11,0.02,0.23,0.03,0.35,0.03
		c1,0,1.85-0.74,1.99-1.73l0.78-5.62c0.11-0.8-0.26-1.58-0.95-2l-14.47-8.75c0.66-5.43,1.27-11.99,1.82-19.61
		c0.1-1.33,0.19-2.66,0.28-3.99h42.34c1.11,0,2.01-0.9,2.01-2.01v-6.98c0-0.9-0.6-1.69-1.47-1.94L93.2,33.58
		c-1.08-0.27-2.17,0.38-2.45,1.46c-0.26,1.04,0.33,2.1,1.36,2.42l10.86,3.04v3.44H62.91c0.32-5.14,0.59-10.09,0.79-14.45l15.6,4.37
		c0.18,0.05,0.36,0.07,0.54,0.08c1.11,0,2.01-0.91,2.01-2.02c0-0.9-0.6-1.68-1.46-1.93l-16.5-4.62c0.31-6.88,0.45-11.48,0.45-11.58
		v-0.06C64.34,6.16,59.48,0,53.5,0S42.65,6.16,42.65,13.73v0.06c0,0.09,0.14,4.7,0.45,11.58L1.47,37.03C0.6,37.27,0,38.06,0,38.96
		v6.98c0,1.11,0.9,2.01,2.01,2.01c0,0,0,0,0,0h17.08C20.2,47.96,21.1,47.06,21.1,45.94C21.1,45.94,21.1,45.94,21.1,45.94z
		 M71.8,83.07l-0.31,2.24l-12.74-2.22c0.29-1.4,0.58-2.99,0.87-4.79c0.12-0.76,0.24-1.55,0.36-2.38L71.8,83.07z M53.5,4.02
		c3.69,0,6.81,4.43,6.82,9.68c-0.03,0.84-0.57,18.05-1.8,35.69c-1.45,20.71-3.03,30.35-4.16,34.84c-0.01,0.04-0.03,0.08-0.04,0.13
		v0.02c-0.21,0.88-0.49,1.75-0.82,2.6c-0.33-0.85-0.61-1.72-0.82-2.6v-0.02c-0.01-0.05-0.03-0.09-0.04-0.13
		c-1.13-4.49-2.71-14.14-4.16-34.82c-1.23-17.65-1.78-34.86-1.81-35.71C46.69,8.45,49.81,4.02,53.5,4.02L53.5,4.02z M47.03,75.92
		c0.12,0.83,0.24,1.62,0.36,2.38c0.29,1.8,0.57,3.39,0.87,4.79l-12.74,2.22l-0.31-2.24L47.03,75.92z"/>
	<path id="Path_218" class="st0" d="M13.48,51.04c-1.11,0-2.01,0.9-2.01,2.01c0,0,0,0,0,0v7.04c0,1.11,0.9,2.01,2.01,2.01
		s2.01-0.9,2.01-2.01v-7.04C15.49,51.94,14.59,51.04,13.48,51.04C13.48,51.04,13.48,51.04,13.48,51.04z"/>
	<path id="Path_219" class="st0" d="M13.48,63.9c-1.11,0-2.01,0.9-2.01,2.01c0,0,0,0,0,0v1.02c0,1.11,0.9,2.01,2.01,2.01
		s2.01-0.9,2.01-2.01v-1.01C15.49,64.8,14.59,63.9,13.48,63.9C13.48,63.9,13.48,63.9,13.48,63.9z"/>
	<path id="Path_220" class="st0" d="M81.86,53.05c0-1.11-0.91-2.01-2.02-2.01c-1.11,0-2,0.9-2.01,2.01v10.46
		c0,1.11,0.91,2.01,2.02,2.01c1.11,0,2-0.9,2.01-2.01V53.05z"/>
	<path id="Path_221" class="st0" d="M79.85,67.32c-1.11,0-2.01,0.9-2.01,2.01v3.28c0,1.11,0.91,2.01,2.02,2.01
		c1.11,0,2-0.9,2.01-2.01v-3.28C81.86,68.22,80.96,67.32,79.85,67.32z"/>
	<path id="Path_222" class="st0" d="M29.17,53.05c0-1.11-0.9-2.01-2.01-2.01c-1.11,0-2.01,0.9-2.01,2.01l0,0v10.46
		c0,1.11,0.9,2.01,2.01,2.01c1.11,0,2.01-0.9,2.01-2.01V53.05z"/>
	<path id="Path_223" class="st0" d="M27.15,67.32c-1.11,0-2.01,0.9-2.01,2.01c0,0,0,0,0,0v3.28c0,1.11,0.9,2.01,2.01,2.01
		c1.11,0,2.01-0.9,2.01-2.01v-3.28C29.17,68.22,28.26,67.32,27.15,67.32z"/>
	<path id="Path_224" class="st0" d="M95.54,53.05c0-1.11-0.91-2.01-2.02-2c-1.1,0-2,0.9-2,2v7.04c0,1.11,0.89,2.01,2,2.02
		c1.11,0,2.01-0.89,2.02-2c0,0,0-0.01,0-0.01V53.05z"/>
	<path id="Path_225" class="st0" d="M93.53,63.9c-1.11,0-2.01,0.9-2.01,2.01c0,0,0,0,0,0v1.02c0,1.11,0.89,2.01,2,2.02
		c1.11,0,2.01-0.89,2.02-2c0,0,0-0.01,0-0.01v-1.01C95.54,64.8,94.64,63.9,93.53,63.9C93.53,63.9,93.53,63.9,93.53,63.9z"/>
</g>
</svg>
