<?xml version="1.0" encoding="utf-8"?>
<!-- Generator: Adobe Illustrator 23.1.1, SVG Export Plug-In . SVG Version: 6.00 Build 0)  -->
<svg version="1.1" id="Layer_1" xmlns="http://www.w3.org/2000/svg" xmlns:xlink="http://www.w3.org/1999/xlink" x="0px" y="0px"
	 viewBox="0 0 107 91.9" style="enable-background:new 0 0 107 91.9;" xml:space="preserve">
<style type="text/css">
	.st0{fill:#0A395A;}
</style>
<g id="Group_192" transform="translate(-777.777 -889.107)">
	<g id="Group_191" transform="translate(777.777 906.614)">
		<g id="Group_190">
			<g id="Group_189">
				<path id="Path_208" class="st0" d="M98.49,27.51c2.9,0.01,5.26-2.34,5.27-5.25c0.01-2.9-2.34-5.26-5.25-5.27
					c-0.01,0-0.01,0-0.02,0H96.7c-2.58,0-4.78,1.87-5.19,4.42L87.03,9.11c-1.02-2.78-3.66-4.63-6.62-4.64H67.65L66.7-0.25
					c-0.5-2.45-2.65-4.22-5.16-4.23H45.94c-2.5,0.01-4.66,1.77-5.16,4.23l-0.95,4.72H27.08c-2.96,0.01-5.6,1.86-6.62,4.64
					l-4.47,12.31C15.57,18.87,13.37,17,10.79,17H9c-2.9-0.01-5.26,2.34-5.27,5.25c-0.01,2.9,2.34,5.26,5.25,5.27
					c0.01,0,0.01,0,0.02,0h1.79c0.8,0,1.59-0.18,2.31-0.53l-3.84,4.8c-1.25,1.57-1.93,3.51-1.94,5.52v33.28
					c0,1.91,1.55,3.47,3.47,3.47h5.37c1.91,0,3.47-1.55,3.47-3.47v-7.27h68.23v7.27c0,1.91,1.55,3.47,3.47,3.47h5.37
					c1.91,0,3.47-1.55,3.47-3.47V37.3c0-2.01-0.69-3.95-1.94-5.52l-3.84-4.8c0.72,0.35,1.51,0.53,2.31,0.53L98.49,27.51z
					 M10.79,24.16H9c-1.05,0-1.9-0.86-1.9-1.9c0-1.05,0.85-1.89,1.9-1.9h1.79c1.05,0,1.9,0.86,1.9,1.9
					C12.68,23.31,11.84,24.16,10.79,24.16z M44.07,0.41c0.18-0.89,0.96-1.53,1.86-1.53h15.61c0.91,0,1.68,0.64,1.86,1.53l0.81,4.06
					H43.27L44.07,0.41z M16.27,70.58c0,0.06-0.05,0.11-0.11,0.11h-5.37c-0.06,0-0.11-0.05-0.11-0.11c0,0,0,0,0,0v-8.32
					c1.11,0.68,2.38,1.05,3.69,1.05h1.9L16.27,70.58L16.27,70.58z M73.55,59.96h-39.6v-3.69c0-0.06,0.05-0.11,0.11-0.11l0,0h39.37
					c0.06,0,0.11,0.05,0.11,0.11c0,0,0,0,0,0L73.55,59.96L73.55,59.96z M96.81,70.58c0,0.06-0.05,0.11-0.11,0.11c0,0,0,0,0,0h-5.37
					c-0.06,0-0.11-0.05-0.11-0.11c0,0,0,0,0,0v-7.27h1.9c1.3,0,2.58-0.36,3.69-1.05L96.81,70.58L96.81,70.58z M95.61,33.88
					c0.78,0.97,1.2,2.18,1.2,3.42v18.97c0,2.04-1.65,3.69-3.69,3.69H76.9v-3.69c0-1.91-1.55-3.47-3.47-3.47H34.06
					c-1.91,0-3.47,1.55-3.47,3.47v3.69H14.37c-2.04,0-3.69-1.65-3.69-3.69V37.3c0-1.24,0.42-2.45,1.2-3.42l5.09-6.36h47.52
					c0.93,0,1.68-0.75,1.68-1.68s-0.75-1.68-1.68-1.68l0,0H18.55l5.05-13.9c0.53-1.46,1.92-2.43,3.47-2.43h53.33
					c1.55,0,2.94,0.97,3.47,2.43l5.05,13.9h-6.55c-0.93,0-1.68,0.75-1.68,1.68s0.75,1.68,1.68,1.68l0,0h8.14L95.61,33.88z
					 M94.8,22.26c0-1.05,0.85-1.9,1.9-1.9h0h1.79c1.05,0,1.9,0.85,1.9,1.9c0,1.05-0.85,1.9-1.9,1.9c0,0-0.01,0-0.01,0H96.7
					C95.65,24.16,94.8,23.31,94.8,22.26C94.79,22.26,94.79,22.26,94.8,22.26L94.8,22.26z"/>
			</g>
		</g>
	</g>
	<path class="st0" d="M810.32,951.85h-15.08c-1.64,0-2.98-1.34-2.98-2.98v-4.46c0-1.64,1.34-2.98,2.98-2.98h15.08
		c1.64,0,2.98,1.34,2.98,2.98v4.46C813.3,950.51,811.96,951.85,810.32,951.85z M795.24,944.18c-0.13,0-0.24,0.11-0.24,0.24v4.46
		c0,0.13,0.11,0.24,0.24,0.24h15.08c0.13,0,0.24-0.11,0.24-0.24v-4.46c0-0.13-0.11-0.24-0.24-0.24H795.24z"/>
	<path class="st0" d="M868.99,951.85h-15.08c-1.64,0-2.98-1.34-2.98-2.98v-4.46c0-1.64,1.34-2.98,2.98-2.98h15.08
		c1.64,0,2.98,1.34,2.98,2.98v4.46C871.96,950.51,870.63,951.85,868.99,951.85z M853.91,944.18c-0.13,0-0.24,0.11-0.24,0.24v4.46
		c0,0.13,0.11,0.24,0.24,0.24h15.08c0.13,0,0.24-0.11,0.24-0.24v-4.46c0-0.13-0.11-0.24-0.24-0.24H853.91z"/>
</g>
</svg>
