<?xml version="1.0" encoding="utf-8"?>
<!-- Generator: Adobe Illustrator 23.1.1, SVG Export Plug-In . SVG Version: 6.00 Build 0)  -->
<svg version="1.1" id="Layer_1" xmlns="http://www.w3.org/2000/svg" xmlns:xlink="http://www.w3.org/1999/xlink" x="0px" y="0px"
	 viewBox="0 0 107 91.9" style="enable-background:new 0 0 107 91.9;" xml:space="preserve">
<style type="text/css">
	.st0{fill:#0A395A;}
	.st1{fill:none;stroke:#0A395A;stroke-width:2.739;stroke-miterlimit:10;}
</style>
<g id="Group_193" transform="translate(310 7.429)">
	<path id="Path_209" class="st0" d="M-242.33,50.8c3.77,0,6.83-3.06,6.83-6.83s-3.06-6.83-6.83-6.83s-6.83,3.06-6.83,6.83
		c0,0,0,0,0,0C-249.15,47.74-246.09,50.8-242.33,50.8z M-242.33,40.58c1.88,0,3.4,1.52,3.4,3.4s-1.52,3.4-3.4,3.4
		c-1.88,0-3.4-1.52-3.4-3.4S-244.2,40.58-242.33,40.58L-242.33,40.58z"/>
	<path id="Path_210" class="st0" d="M-270.67,50.8c3.77,0,6.83-3.06,6.83-6.83s-3.06-6.83-6.83-6.83s-6.83,3.06-6.83,6.83
		c0,0,0,0,0,0C-277.49,47.74-274.44,50.8-270.67,50.8z M-270.67,40.58c1.88,0,3.4,1.52,3.4,3.4s-1.52,3.4-3.4,3.4
		c-1.88,0-3.4-1.52-3.4-3.4S-272.55,40.58-270.67,40.58L-270.67,40.58z"/>
	<path id="Path_211" class="st0" d="M-245.97,1.05h-21.04c-0.95,0-1.71,0.77-1.71,1.72c0,0.94,0.77,1.71,1.71,1.71h21.04
		c0.95,0,1.71-0.77,1.71-1.72C-244.26,1.81-245.03,1.05-245.97,1.05z"/>
	<path id="Path_212" class="st0" d="M-301.24,84.24c0.82,0.47,1.87,0.19,2.34-0.64c0,0,0,0,0,0l2.15-3.76h49.02
		c0.95,0,1.71-0.77,1.71-1.72c0-0.94-0.77-1.7-1.71-1.71h-47.06l3.6-6.32h12.66c0.95,0,1.71-0.77,1.71-1.72
		c0-0.94-0.77-1.71-1.71-1.71h-10.7l5.68-9.96c2.98,2.36,6.68,3.64,10.48,3.64h33.15c3.8,0,7.5-1.28,10.48-3.64l5.68,9.96h-41.96
		c-0.95,0-1.72,0.76-1.72,1.71c0,0.95,0.76,1.72,1.71,1.72c0,0,0,0,0.01,0h43.91l3.6,6.32h-16.73c-0.95,0-1.72,0.76-1.72,1.71
		c0,0.95,0.76,1.72,1.71,1.72c0,0,0.01,0,0.01,0h18.69l2.15,3.76c0.31,0.54,0.87,0.87,1.49,0.86c0.3,0,0.59-0.08,0.85-0.23
		c0.82-0.47,1.11-1.51,0.64-2.33c0,0,0,0,0,0l-15.78-27.65c2.55-3.05,3.95-6.89,3.95-10.87V10.23c-0.01-9.37-7.6-16.97-16.97-16.98
		h-33.15c-9.37,0.01-16.96,7.61-16.97,16.98v33.15c0,3.98,1.39,7.82,3.95,10.87l-15.78,27.66
		C-302.35,82.72-302.07,83.77-301.24,84.24C-301.24,84.24-301.24,84.24-301.24,84.24z M-273.07-3.32h33.15
		c6.94,0.01,12.75,5.25,13.47,12.16h-60.1C-285.83,1.93-280.01-3.31-273.07-3.32L-273.07-3.32z M-286.62,12.27h60.24v16.08h-60.24
		V12.27z M-286.62,43.38v-11.6h60.24v11.6c0,3.47-1.34,6.81-3.73,9.32c-0.1,0.08-0.19,0.17-0.26,0.27
		c-2.53,2.53-5.97,3.95-9.55,3.95h-33.15c-3.58,0-7.01-1.42-9.55-3.95c-0.08-0.1-0.17-0.19-0.26-0.27
		C-285.28,50.19-286.62,46.85-286.62,43.38L-286.62,43.38z"/>
	<path id="Path_213" class="st0" d="M-273.21,66.67c-0.95,0-1.72,0.76-1.72,1.71c0,0.95,0.76,1.72,1.71,1.72c0,0,0,0,0.01,0h1.2
		c0.95,0,1.71-0.77,1.71-1.72c0-0.94-0.77-1.71-1.71-1.71H-273.21z"/>
	<path id="Path_214" class="st0" d="M-241.44,76.41c-0.95,0-1.72,0.76-1.72,1.71c0,0.95,0.76,1.72,1.71,1.72c0,0,0.01,0,0.01,0h1.2
		c0.95,0,1.72-0.76,1.72-1.71c0-0.95-0.76-1.72-1.71-1.72c0,0-0.01,0-0.01,0H-241.44z"/>
</g>
</svg>
