<svg xmlns="http://www.w3.org/2000/svg" width="155.927" height="53.397" viewBox="0 0 155.927 53.397">
    <defs>
        <style>
            .prefix__cls-1{fill:#392338}
        </style>
    </defs>
    <g id="prefix__Group_148" data-name="Group 148" transform="translate(-548.349 -27.081)">
        <g id="prefix__Group_147" data-name="Group 147">
            <g id="prefix__Group_146" data-name="Group 146">
                <path id="prefix__Path_185" d="M603.277 27.081c-1.367 0-1.717 1-2.116 2.156L590.879 57.6l-9.866-28.171c-.471-1.309-.838-2.345-2.259-2.345a1.951 1.951 0 0 0-2 1.851 4.6 4.6 0 0 0 .44 1.681l10.833 29.651c.65 1.726 1.085 2.864 2.793 2.864s2.138-1.134 2.792-2.86l11.054-29.722a3.906 3.906 0 0 0 .457-1.708 1.853 1.853 0 0 0-1.851-1.757" class="prefix__cls-1" data-name="Path 185"/>
                <path id="prefix__Path_186" d="M566.636 29.9c-.793-1.815-1.228-2.819-2.882-2.819-1.757 0-2.223 1.174-2.922 2.954L548.9 59.416a4.267 4.267 0 0 0-.551 1.91 1.926 1.926 0 0 0 1.945 1.806c1.376 0 1.713-.86 2.224-2.16l11.192-28.606 6.463 15.818a27.86 27.86 0 0 0-4.352-.372 16.8 16.8 0 0 0-5.594.712 1.791 1.791 0 0 0 .6 3.479 1.824 1.824 0 0 0 .6-.1 13.642 13.642 0 0 1 4.4-.507 25.992 25.992 0 0 1 5.989.78l3.527 8.682.027.067c.569 1.332.946 2.21 2.268 2.21a2 2 0 0 0 2.044-1.9 4.543 4.543 0 0 0-.556-1.959z" class="prefix__cls-1" data-name="Path 186"/>
                <path id="prefix__Path_187" d="M661.952 27.177c-.888 0-1.945.4-1.945 2.331l.228 26.823-18.3-27.083c-.883-1.3-1.376-2.021-2.551-2.021-2.277 0-2.277 2.115-2.277 3.519v29.435c0 1.215 0 3.048 1.99 3.048a1.9 1.9 0 0 0 1.412-.5 3.008 3.008 0 0 0 .538-2.209l-.233-26.114 18.015 26.607c.981 1.439 1.47 2.165 2.7 2.165a2.236 2.236 0 0 0 1.623-.614c.8-.686.8-1.341.8-3.1V30.221c0-1.21 0-3.044-1.995-3.044" class="prefix__cls-1" data-name="Path 187"/>
                <path id="prefix__Path_188" d="M672.785 27.177c-1.994 0-1.994 1.982-1.994 3.044v29.96c0 1.143 0 3.048 2.044 3.048 1.945 0 1.945-1.9 1.945-3.048v-29.96c0-1.138 0-3.044-2-3.044" class="prefix__cls-1" data-name="Path 188"/>
                <path id="prefix__Path_189" d="M701.228 42.769H695.1v-6.131c0-1.139 0-3.044-1.995-3.044s-1.995 1.981-1.995 3.044v6.131h-6.13c-1.139 0-3.044 0-3.044 1.995s1.981 1.994 3.044 1.994h6.131v6.128c0 1.143 0 3.048 2.044 3.048 1.946 0 1.946-1.9 1.946-3.048v-6.128h6.127c1.143 0 3.048 0 3.048-2.043 0-1.946-1.905-1.946-3.048-1.946z" class="prefix__cls-1" data-name="Path 189"/>
                <path id="prefix__Path_190" d="M620.494 29.9c-.793-1.815-1.228-2.819-2.886-2.819-1.753 0-2.219 1.174-2.923 2.954l-11.923 29.381a4.254 4.254 0 0 0-.551 1.91 1.926 1.926 0 0 0 1.945 1.806c1.376 0 1.712-.86 2.223-2.16l11.188-28.606 6.468 15.818a27.87 27.87 0 0 0-4.352-.372 16.776 16.776 0 0 0-5.594.712 1.79 1.79 0 0 0 1.192 3.376 13.661 13.661 0 0 1 4.4-.507 26.02 26.02 0 0 1 5.988.78l3.524 8.682.031.067c.569 1.332.946 2.21 2.268 2.21a2 2 0 0 0 2.039-1.9 4.481 4.481 0 0 0-.555-1.959z" class="prefix__cls-1" data-name="Path 190"/>
            </g>
        </g>
        <text id="prefix__Bangkok" transform="translate(602.211 76.478)" style="font-size:12.123px;font-family:Futura-Medium,Futura;font-weight:500;fill:#392338">
            <tspan x="0" y="0">Bangkok</tspan>
        </text>
    </g>
</svg>
