<?xml version="1.0" encoding="utf-8"?>
<!-- Generator: Adobe Illustrator 23.0.3, SVG Export Plug-In . SVG Version: 6.00 Build 0)  -->
<svg version="1.1" id="Layer_1" xmlns="http://www.w3.org/2000/svg" xmlns:xlink="http://www.w3.org/1999/xlink" x="0px" y="0px"
	 viewBox="0 0 60 60" style="enable-background:new 0 0 60 60;" xml:space="preserve">
<style type="text/css">
	.st0{filter:url(#Adobe_OpacityMaskFilter);}
	.st1{fill-rule:evenodd;clip-rule:evenodd;fill:#FFFFFF;}
	.st2{mask:url(#mask-2_1_);fill-rule:evenodd;clip-rule:evenodd;fill:#FFFFFF;}
	.st3{fill:none;stroke:#FFFFFF;stroke-width:3;}
</style>
<title>Group 6</title>
<desc>Created with Sketch.</desc>
<g id="Page-1">
	<g id="pricing" transform="translate(-271.000000, -801.000000)">
		<g id="Group-6" transform="translate(271.000000, 804.000000)">
			<g id="Group-3" transform="translate(0.000000, 6.569900)">
				<g id="Clip-2">
				</g>
				<defs>
					<filter id="Adobe_OpacityMaskFilter" filterUnits="userSpaceOnUse" x="4.7" y="2.1" width="50.7" height="42.7">
						<feColorMatrix  type="matrix" values="1 0 0 0 0  0 1 0 0 0  0 0 1 0 0  0 0 0 1 0"/>
					</filter>
				</defs>
				<mask maskUnits="userSpaceOnUse" x="4.7" y="2.1" width="50.7" height="42.7" id="mask-2_1_">
					<g class="st0">
						<polygon id="path-1_1_" class="st1" points="4.7,2.1 55.3,2.1 55.3,44.8 4.7,44.8 						"/>
					</g>
				</mask>
				<path id="Fill-1" class="st2" d="M55.3,2.1L28.9,13.3l-14.7-1.2l-9.5,6.4l8.2,2.1l6.2,16.9l17.5,2.1l11.2,5.3L36.6,27l0.3-0.1
					c8.8-3,15.4-10.4,17.4-19.5L55.3,2.1z M51.2,7.1c-1.8,7.9-7.7,14.3-15.3,17l-0.3,0.1L32,25.4l2,3.2l5.7,9.1l-1.9-0.9l-0.4-0.2
					l-0.5-0.1l-15.7-1.9l-5.6-15.2L15.1,18l-1.5-0.4l-1.6-0.4l3.1-2l13.7,1.2l0.7,0.1l0.7-0.3L51.2,7.1L51.2,7.1z"/>
			</g>
			<polyline id="Stroke-4" class="st3" points="23.9,20.7 41.7,2.2 42.8,11.6 			"/>
		</g>
	</g>
</g>
</svg>
