<?xml version="1.0" encoding="utf-8"?>
<!-- Generator: Adobe Illustrator 23.0.3, SVG Export Plug-In . SVG Version: 6.00 Build 0)  -->
<svg version="1.1" id="Layer_1" xmlns="http://www.w3.org/2000/svg" xmlns:xlink="http://www.w3.org/1999/xlink" x="0px" y="0px"
	 viewBox="0 0 60 60" style="enable-background:new 0 0 60 60;" xml:space="preserve">
<style type="text/css">
	.st0{fill:none;stroke:#FFFFFF;stroke-width:3;}
</style>
<title>Group 13</title>
<desc>Created with Sketch.</desc>
<g id="Page-1">
	<g id="pricing" transform="translate(-1004.000000, -803.000000)">
		<g id="Group-13" transform="translate(1005.000000, 804.000000)">
			<path id="Stroke-1" class="st0" d="M22.2,39.7h17.6c0-5.9-4.8-10.7-10.7-10.7h-1.2c-4,0-7.5,2.2-9.3,5.4"/>
			<path id="Stroke-3" class="st0" d="M35.1,22.4c0-3.6-2.9-6.5-6.5-6.5c-3.6,0-6.5,2.9-6.5,6.5s2.9,6.5,6.5,6.5
				C32.1,28.9,35.1,26,35.1,22.4z"/>
			<path id="Stroke-5" class="st0" d="M12.7,32.4h-1.1c-5.3,0-9.5,4.3-9.5,9.5h20.1C22.2,36.7,18,32.4,12.7,32.4z"/>
			<path id="Stroke-7" class="st0" d="M18,26.6c0-3.2-2.6-5.8-5.8-5.8c-3.2,0-5.8,2.6-5.8,5.8c0,3.2,2.6,5.8,5.8,5.8
				C15.4,32.4,18,29.8,18,26.6z"/>
			<path id="Stroke-9" class="st0" d="M35.6,39.7c-0.2,0.7-0.3,1.5-0.3,2.3h20.1c0-5.3-4.3-9.5-9.5-9.5h-1.1c-2.4,0-4.6,0.9-6.3,2.3
				"/>
			<path id="Stroke-11" class="st0" d="M51.2,26.6c0-3.2-2.6-5.8-5.8-5.8c-3.2,0-5.8,2.6-5.8,5.8c0,3.2,2.6,5.8,5.8,5.8
				C48.6,32.4,51.2,29.8,51.2,26.6z"/>
		</g>
	</g>
</g>
</svg>
