<?xml version="1.0" encoding="utf-8"?>
<!-- Generator: Adobe Illustrator 23.0.3, SVG Export Plug-In . SVG Version: 6.00 Build 0)  -->
<svg version="1.1" id="Layer_1" xmlns="http://www.w3.org/2000/svg" xmlns:xlink="http://www.w3.org/1999/xlink" x="0px" y="0px"
	 viewBox="0 0 60 60" style="enable-background:new 0 0 60 60;" xml:space="preserve">
<style type="text/css">
	.st0{fill:none;stroke:#FFFFFF;stroke-width:3;}
</style>
<title>spouse</title>
<desc>Created with Sketch.</desc>
<g id="Page-1">
	<g id="pricing" transform="translate(-265.000000, -1309.000000)">
		<g id="spouse" transform="translate(266.000000, 1310.000000)">
			<path id="Stroke-1" class="st0" d="M28.9,14.4c-4.5,0-8.2,3.7-8.2,8.2c0-4.5-3.7-8.2-8.2-8.2S4.4,18,4.4,22.5
				c0,9.2,16.3,20.6,16.3,20.6s16.3-11.4,16.3-20.6C37.1,18,33.4,14.4,28.9,14.4z"/>
			<path id="Stroke-3" class="st0" d="M45.2,14.4c-4.5,0-8.2,3.7-8.2,8.2c0-4.5-3.7-8.2-8.2-8.2s-8.2,3.7-8.2,8.2
				c0,9.2,16.3,20.6,16.3,20.6s16.3-11.4,16.3-20.6C53.4,18,49.7,14.4,45.2,14.4z"/>
		</g>
	</g>
</g>
</svg>
