<?xml version="1.0" encoding="utf-8"?>
<!-- Generator: Adobe Illustrator 23.0.3, SVG Export Plug-In . SVG Version: 6.00 Build 0)  -->
<svg version="1.1" id="Layer_1" xmlns="http://www.w3.org/2000/svg" xmlns:xlink="http://www.w3.org/1999/xlink" x="0px" y="0px"
	 viewBox="0 0 60 60" style="enable-background:new 0 0 60 60;" xml:space="preserve">
<style type="text/css">
	.st0{fill:none;stroke:#FFFFFF;stroke-width:3;}
	.st1{filter:url(#Adobe_OpacityMaskFilter);}
	.st2{fill-rule:evenodd;clip-rule:evenodd;fill:#FFFFFF;}
	.st3{mask:url(#mask-2_1_);fill:none;stroke:#FFFFFF;stroke-width:3;}
	.st4{filter:url(#Adobe_OpacityMaskFilter_1_);}
	.st5{mask:url(#mask-2_2_);fill:none;stroke:#FFFFFF;stroke-width:3;}
</style>
<title>Group 9</title>
<desc>Created with Sketch.</desc>
<g id="Page-1">
	<g id="pricing" transform="translate(-645.000000, -1306.000000)">
		<g id="Group-9" transform="translate(645.000000, 1305.000000)">
			<g id="Group-6" transform="translate(0.000000, 0.861100)">
				<polygon id="Stroke-1" class="st0" points="56.1,23 5.5,23 10.5,11.4 51.1,11.4 				"/>
				<g id="Clip-4">
				</g>
				<defs>
					<filter id="Adobe_OpacityMaskFilter" filterUnits="userSpaceOnUse" x="3.2" y="24.3" width="7.8" height="24.4">
						<feColorMatrix  type="matrix" values="1 0 0 0 0  0 1 0 0 0  0 0 1 0 0  0 0 0 1 0"/>
					</filter>
				</defs>
				<mask maskUnits="userSpaceOnUse" x="3.2" y="24.3" width="7.8" height="24.4" id="mask-2_1_">
					<g class="st1">
						<polygon id="path-1_1_" class="st2" points="3.2,48.7 58.3,48.7 58.3,9.9 3.2,9.9 						"/>
					</g>
				</mask>
				<polygon id="Stroke-3" class="st3" points="4.7,47.2 9.5,47.2 9.5,25.8 4.7,25.8 				"/>
				<defs>
					<filter id="Adobe_OpacityMaskFilter_1_" filterUnits="userSpaceOnUse" x="50.5" y="24.3" width="7.8" height="24.4">
						<feColorMatrix  type="matrix" values="1 0 0 0 0  0 1 0 0 0  0 0 1 0 0  0 0 0 1 0"/>
					</filter>
				</defs>
				<mask maskUnits="userSpaceOnUse" x="50.5" y="24.3" width="7.8" height="24.4" id="mask-2_2_">
					<g class="st4">
						<polygon id="path-1_2_" class="st2" points="3.2,48.7 58.3,48.7 58.3,9.9 3.2,9.9 						"/>
					</g>
				</mask>
				<polygon id="Stroke-5" class="st5" points="52,47.2 56.8,47.2 56.8,25.8 52,25.8 				"/>
			</g>
			<path id="Stroke-7" class="st0" d="M15.2,23.9v16"/>
			<path id="Stroke-8" class="st0" d="M46.1,23.9v16"/>
		</g>
	</g>
</g>
</svg>
