<?xml version="1.0" encoding="utf-8"?>
<!-- Generator: Adobe Illustrator 23.0.3, SVG Export Plug-In . SVG Version: 6.00 Build 0)  -->
<svg version="1.1" id="Layer_1" xmlns="http://www.w3.org/2000/svg" xmlns:xlink="http://www.w3.org/1999/xlink" x="0px" y="0px"
	 viewBox="0 0 60 60" style="enable-background:new 0 0 60 60;" xml:space="preserve">
<style type="text/css">
	.st0{fill:none;stroke:#FFFFFF;stroke-width:3;stroke-linejoin:round;}
	.st1{fill-rule:evenodd;clip-rule:evenodd;fill:#FFFFFF;}
</style>
<title>beer</title>
<desc>Created with Sketch.</desc>
<g id="Page-1">
	<g id="sponsors" transform="translate(-958.000000, -2197.000000)">
		<g id="beer" transform="translate(959.000000, 2198.000000)">
			<path id="Stroke-1" class="st0" d="M41.9,23.8c3.1,0,5.6-2.5,5.6-5.6s-2.5-5.6-5.6-5.6c0,0,0,0,0,0c0-0.2,0-0.3,0-0.5
				c0-3.1-2.5-5.6-5.6-5.6c-1.1,0-2.1,0.3-3,0.9c0.1-0.3,0.1-0.6,0.1-0.9c0-2.4-2-4.4-4.4-4.4s-4.4,2-4.4,4.4c0,0.5,0.1,1,0.2,1.4
				h-0.2c-1-1.1-2.4-1.8-4-1.8c-3,0-5.4,2.4-5.4,5.4c0,1.3,0.5,2.6,1.3,3.5c-0.2,0-0.5-0.1-0.7-0.1c-3,0-5.4,2.4-5.4,5.4
				c0,3,2.4,5.4,5.4,5.4"/>
			<path id="Stroke-3" class="st0" d="M37.6,23.7v9.6c0,1.3-1,2.3-2.3,2.3s-2.3-1-2.3-2.3v-9.6H16.7v7.4c0,2.8,0.6,5.6,1.8,8.1
				l1.5,3.3c0.9,1.9,1.4,4.1,1.4,6.2v5.2c0,1.1,0.9,1.9,1.9,1.9h12.9c1.1,0,1.9-0.9,1.9-1.9v-5.2c0-2.1,0.5-4.3,1.4-6.2l1.5-3.3
				c1.2-2.5,1.8-5.3,1.8-8.1v-7.4H37.6z"/>
			<path id="Fill-5" class="st1" d="M26.6,34c0,1.4-1.1,2.5-2.5,2.5c-1.4,0-2.5-1.1-2.5-2.5s1.1-2.5,2.5-2.5
				C25.4,31.5,26.6,32.7,26.6,34"/>
			<path id="Fill-7" class="st1" d="M30.2,39.7c0,1-0.8,1.9-1.9,1.9c-1,0-1.9-0.8-1.9-1.9c0-1,0.8-1.9,1.9-1.9
				C29.4,37.9,30.2,38.7,30.2,39.7"/>
			<path id="Fill-9" class="st1" d="M27.8,44.1c0,0.6-0.5,1.2-1.2,1.2c-0.6,0-1.2-0.5-1.2-1.2c0-0.7,0.5-1.2,1.2-1.2
				C27.3,42.9,27.8,43.5,27.8,44.1"/>
		</g>
	</g>
</g>
</svg>
