<?xml version="1.0" encoding="utf-8"?>
<!-- Generator: Adobe Illustrator 23.0.3, SVG Export Plug-In . SVG Version: 6.00 Build 0)  -->
<svg version="1.1" id="Layer_1" xmlns="http://www.w3.org/2000/svg" xmlns:xlink="http://www.w3.org/1999/xlink" x="0px" y="0px"
	 viewBox="0 0 60 60" style="enable-background:new 0 0 60 60;" xml:space="preserve">
<style type="text/css">
	.st0{fill:none;stroke:#FFFFFF;stroke-width:3;}
</style>
<title>coffee</title>
<desc>Created with Sketch.</desc>
<g id="Page-1">
	<g id="sponsors" transform="translate(-958.000000, -1734.000000)">
		<g id="coffee" transform="translate(959.000000, 1735.000000)">
			<path id="Stroke-1" class="st0" d="M30.8,44.9h-7.4c-5.9,0-10.7-4.8-10.7-10.7V28h28.7v6.2C41.4,40.1,36.7,44.9,30.8,44.9z"/>
			<path id="Stroke-3" class="st0" d="M39.3,52.8H14.9c-2.5,0-4.6-2-4.6-4.6V48h33.5v0.3C43.8,50.7,41.8,52.8,39.3,52.8z"/>
			<path id="Stroke-5" class="st0" d="M41.4,30h2.5c2.1,0,3.8,1.9,3.8,4.3v0.6c0,2.3-1.7,4.3-3.8,4.3h-3.8"/>
			<path id="Stroke-7" class="st0" d="M23.4,5.2L23.4,5.2c2.3,2.3,2.3,6.1,0,8.4s-2.3,6.1,0,8.4"/>
			<path id="Stroke-9" class="st0" d="M30.8,5.2L30.8,5.2c2.3,2.3,2.3,6.1,0,8.4s-2.3,6.1,0,8.4"/>
		</g>
	</g>
</g>
</svg>
