<?xml version="1.0" encoding="utf-8"?>
<!-- Generator: Adobe Illustrator 23.0.3, SVG Export Plug-In . SVG Version: 6.00 Build 0)  -->
<svg version="1.1" id="Layer_1" xmlns="http://www.w3.org/2000/svg" xmlns:xlink="http://www.w3.org/1999/xlink" x="0px" y="0px"
	 viewBox="0 0 60 60" style="enable-background:new 0 0 60 60;" xml:space="preserve">
<style type="text/css">
	.st0{fill:none;stroke:#FFFFFF;stroke-width:3;}
	.st1{fill-rule:evenodd;clip-rule:evenodd;fill:#FFFFFF;}
</style>
<title>Group 9</title>
<desc>Created with Sketch.</desc>
<g id="Page-1">
	<g id="sponsors" transform="translate(-951.000000, -1275.000000)">
		<g id="Group-9" transform="translate(952.000000, 1276.000000)">
			<polygon id="Stroke-1" class="st0" points="51.7,44.8 39.9,53.9 30.6,41.9 42.4,32.8 			"/>
			<path id="Stroke-3" class="st0" d="M28.7,39.4L27.6,38c-0.7-0.9-0.6-2.3,0.4-3l8.4-6.5c0.9-0.7,2.3-0.6,3,0.4l1.1,1.4"/>
			<path id="Fill-5" class="st1" d="M35.3,33.4c0.5,0.6,0.4,1.6-0.3,2.1c-0.6,0.5-1.6,0.4-2.1-0.3c-0.5-0.6-0.4-1.6,0.3-2.1
				C33.9,32.6,34.8,32.7,35.3,33.4"/>
			<path id="Stroke-7" class="st0" d="M30.9,31.9L9.7,23.3C4.9,21.3,4,14.9,8.1,11.8L17,4.9c4-3.1,9.9-0.8,10.7,4.3l3,18.9"/>
		</g>
	</g>
</g>
</svg>
