<?xml version="1.0" encoding="utf-8"?>
<!-- Generator: Adobe Illustrator 23.0.3, SVG Export Plug-In . SVG Version: 6.00 Build 0)  -->
<svg version="1.1" id="Layer_1" xmlns="http://www.w3.org/2000/svg" xmlns:xlink="http://www.w3.org/1999/xlink" x="0px" y="0px"
	 viewBox="0 0 60 60" style="enable-background:new 0 0 60 60;" xml:space="preserve">
<style type="text/css">
	.st0{fill:none;stroke:#FFFFFF;stroke-width:3;}
	.st1{fill-rule:evenodd;clip-rule:evenodd;fill:#FFFFFF;}
</style>
<title>meeting</title>
<desc>Created with Sketch.</desc>
<g id="Page-1">
	<g id="sponsors" transform="translate(-399.000000, -2209.000000)">
		<g id="meeting" transform="translate(400.000000, 2210.000000)">
			<polygon id="Stroke-1" class="st0" points="9.5,46 41.7,46 41.7,6 9.5,6 			"/>
			<polyline id="Stroke-3" class="st0" points="41.7,12 48.1,12 48.1,52 15.9,52 15.9,46 			"/>
			<path id="Fill-4" class="st1" d="M18.1,23.1c0,1.2-0.9,2.1-2.1,2.1s-2.1-0.9-2.1-2.1c0-1.2,0.9-2.1,2.1-2.1S18.1,21.9,18.1,23.1"
				/>
			<path id="Fill-5" class="st1" d="M18.1,30.4c0,1.2-0.9,2.1-2.1,2.1s-2.1-0.9-2.1-2.1c0-1.2,0.9-2.1,2.1-2.1S18.1,29.3,18.1,30.4"
				/>
			<path id="Fill-6" class="st1" d="M18.1,37.8c0,1.2-0.9,2.1-2.1,2.1s-2.1-0.9-2.1-2.1c0-1.2,0.9-2.1,2.1-2.1S18.1,36.7,18.1,37.8"
				/>
			<path id="Stroke-7" class="st0" d="M22.6,23.1H35"/>
			<path id="Stroke-8" class="st0" d="M17.6,13.5h15.9"/>
			<path id="Stroke-9" class="st0" d="M22.6,30.4H35"/>
			<path id="Stroke-10" class="st0" d="M22.6,37.8H35"/>
		</g>
	</g>
</g>
</svg>
