<?xml version="1.0" encoding="utf-8"?>
<!-- Generator: Adobe Illustrator 23.0.3, SVG Export Plug-In . SVG Version: 6.00 Build 0)  -->
<svg version="1.1" id="Layer_1" xmlns="http://www.w3.org/2000/svg" xmlns:xlink="http://www.w3.org/1999/xlink" x="0px" y="0px"
	 viewBox="0 0 60 60" style="enable-background:new 0 0 60 60;" xml:space="preserve">
<style type="text/css">
	.st0{fill:none;stroke:#FFFFFF;stroke-width:3;}
</style>
<title>Group 7</title>
<desc>Created with Sketch.</desc>
<g id="Page-1">
	<g id="sponsors" transform="translate(-393.000000, -821.000000)">
		<g id="Group-7" transform="translate(395.000000, 823.000000)">
			<polygon id="Stroke-1" class="st0" points="28,8.1 37.5,5 42.1,13.9 51,18.5 47.9,28 51,37.5 42.1,42.1 37.5,51 28,47.9 18.5,51 
				13.9,42.1 5,37.5 8.1,28 5,18.5 13.9,13.9 18.5,5 			"/>
			<polygon id="Stroke-3" class="st0" points="28,8.1 37.5,5 42.1,13.9 51,18.5 47.9,28 51,37.5 42.1,42.1 37.5,51 28,47.9 18.5,51 
				13.9,42.1 5,37.5 8.1,28 5,18.5 13.9,13.9 18.5,5 			"/>
			<path id="Stroke-5" class="st0" d="M42.1,28c0,7.8-6.3,14.1-14.1,14.1S13.9,35.8,13.9,28c0-7.8,6.3-14.1,14.1-14.1
				S42.1,20.2,42.1,28z"/>
		</g>
	</g>
</g>
</svg>
