<?xml version="1.0" encoding="utf-8"?>
<!-- Generator: Adobe Illustrator 23.0.3, SVG Export Plug-In . SVG Version: 6.00 Build 0)  -->
<svg version="1.1" id="Layer_1" xmlns="http://www.w3.org/2000/svg" xmlns:xlink="http://www.w3.org/1999/xlink" x="0px" y="0px"
	 viewBox="0 0 60 60" style="enable-background:new 0 0 60 60;" xml:space="preserve">
<style type="text/css">
	.st0{fill:none;stroke:#FFFFFF;stroke-width:3;}
	.st1{filter:url(#Adobe_OpacityMaskFilter);}
	.st2{fill-rule:evenodd;clip-rule:evenodd;fill:#FFFFFF;}
	.st3{mask:url(#mask-2_1_);fill:none;stroke:#FFFFFF;stroke-width:3;}
</style>
<title>Group 26</title>
<desc>Created with Sketch.</desc>
<g id="Page-1">
	<g id="sponsors" transform="translate(-396.000000, -1280.000000)">
		<g id="Group-26" transform="translate(396.000000, 1279.000000)">
			<path id="Stroke-1" class="st0" d="M29.3,25.9c0,7.9-6.4,14.2-14.2,14.2"/>
			<path id="Stroke-3" class="st0" d="M43.5,39.7c-7.9,0-14.2-6.4-14.2-14.2"/>
			<path id="Stroke-5" class="st0" d="M29.3,53.9c0-7.9,6.4-14.2,14.2-14.2"/>
			<path id="Stroke-7" class="st0" d="M15,40.1c7.9,0,14.2,6.4,14.2,14.2"/>
			<path id="Stroke-9" class="st0" d="M41.3,7.3c0,5.9-4.8,10.7-10.7,10.7"/>
			<g id="Group-13" transform="translate(33.000000, 0.375900)">
				<g id="Clip-12">
				</g>
				<defs>
					<filter id="Adobe_OpacityMaskFilter" filterUnits="userSpaceOnUse" x="6.8" y="6.6" width="12.2" height="12.2">
						<feColorMatrix  type="matrix" values="1 0 0 0 0  0 1 0 0 0  0 0 1 0 0  0 0 0 1 0"/>
					</filter>
				</defs>
				<mask maskUnits="userSpaceOnUse" x="6.8" y="6.6" width="12.2" height="12.2" id="mask-2_1_">
					<g class="st1">
						<polygon id="path-1_1_" class="st2" points="8.3,6.6 19,6.6 19,17.3 8.3,17.3 						"/>
					</g>
				</mask>
				<path id="Stroke-11" class="st3" d="M19,17.3c-5.9,0-10.7-4.8-10.7-10.7"/>
			</g>
			<path id="Stroke-14" class="st0" d="M41.3,28.3c0-5.9,4.8-10.7,10.7-10.7"/>
			<path id="Stroke-16" class="st0" d="M30.6,18c5.9,0,10.7,4.8,10.7,10.7"/>
			<path id="Stroke-18" class="st0" d="M15.9,17.7c0,4.3-3.5,7.9-7.9,7.9"/>
			<path id="Stroke-20" class="st0" d="M23.8,25.3c-4.4,0-7.9-3.5-7.9-7.9"/>
			<path id="Stroke-22" class="st0" d="M15.9,33.2c0-4.3,3.5-7.9,7.9-7.9"/>
			<path id="Stroke-24" class="st0" d="M8,25.6c4.4,0,7.9,3.5,7.9,7.9"/>
		</g>
	</g>
</g>
</svg>
